<ttFont>
    <TTGlyph name="A" xMin="59" yMin="-10" xMax="1289" yMax="1114">
      <contour>
        <pt x="622" y="1063" on="1"/>
        <pt x="638" y="1092" on="0"/>
        <pt x="656" y="1114" on="0"/>
        <pt x="674" y="1114" on="1"/>
        <pt x="688" y="1114" on="0"/>
        <pt x="709" y="1093" on="0"/>
        <pt x="726" y="1063" on="1"/>
        <pt x="1278" y="67" on="1"/>
        <pt x="1289" y="47" on="0"/>
        <pt x="1289" y="28" on="1"/>
        <pt x="1289" y="10" on="0"/>
        <pt x="1269" y="-10" on="0"/>
        <pt x="1255" y="-10" on="1"/>
        <pt x="1241" y="-10" on="0"/>
        <pt x="1214" y="9" on="0"/>
        <pt x="1200" y="34" on="1"/>
        <pt x="1030" y="342" on="1"/>
        <pt x="318" y="342" on="1"/>
        <pt x="146" y="30" on="1"/>
        <pt x="135" y="9" on="0"/>
        <pt x="106" y="-10" on="0"/>
        <pt x="92" y="-10" on="1"/>
        <pt x="75" y="-10" on="0"/>
        <pt x="59" y="14" on="0"/>
        <pt x="59" y="34" on="1"/>
        <pt x="59" y="42" on="0"/>
        <pt x="66" y="58" on="0"/>
        <pt x="71" y="68" on="1"/>
      </contour>
      <contour>
        <pt x="1001" y="401" on="1"/>
        <pt x="674" y="998" on="1"/>
        <pt x="347" y="401" on="1"/>
      </contour>
    </TTGlyph>
    <TTGlyph name="AE" xMin="9" yMin="-18" xMax="1352" yMax="1114">
      <contour>
        <pt x="1352" y="35" on="1"/>
        <pt x="1352" y="20" on="0"/>
        <pt x="1340" y="6" on="0"/>
        <pt x="1319" y="0" on="0"/>
        <pt x="1293" y="0" on="0"/>
        <pt x="1278" y="0" on="1"/>
        <pt x="666" y="0" on="1"/>
        <pt x="651" y="0" on="0"/>
        <pt x="636" y="1" on="0"/>
        <pt x="628" y="8" on="0"/>
        <pt x="627" y="22" on="0"/>
        <pt x="627" y="35" on="1"/>
        <pt x="627" y="348" on="1"/>
        <pt x="269" y="348" on="1"/>
        <pt x="253" y="317" on="0"/>
        <pt x="214" y="239" on="0"/>
        <pt x="172" y="158" on="0"/>
        <pt x="128" y="80" on="0"/>
        <pt x="89" y="19" on="0"/>
        <pt x="57" y="-18" on="0"/>
        <pt x="46" y="-18" on="1"/>
        <pt x="27" y="-18" on="0"/>
        <pt x="9" y="4" on="0"/>
        <pt x="9" y="12" on="1"/>
        <pt x="9" y="25" on="0"/>
        <pt x="22" y="49" on="0"/>
        <pt x="30" y="63" on="1"/>
        <pt x="578" y="1065" on="1"/>
        <pt x="589" y="1084" on="0"/>
        <pt x="607" y="1112" on="0"/>
        <pt x="619" y="1114" on="1"/>
        <pt x="1276" y="1114" on="1"/>
        <pt x="1291" y="1114" on="0"/>
        <pt x="1317" y="1114" on="0"/>
        <pt x="1338" y="1108" on="0"/>
        <pt x="1350" y="1094" on="0"/>
        <pt x="1350" y="1079" on="1"/>
        <pt x="1350" y="1067" on="0"/>
        <pt x="1338" y="1054" on="0"/>
        <pt x="1317" y="1048" on="0"/>
        <pt x="1291" y="1048" on="0"/>
        <pt x="1276" y="1048" on="1"/>
        <pt x="712" y="1048" on="1"/>
        <pt x="712" y="601" on="1"/>
        <pt x="1249" y="601" on="1"/>
        <pt x="1263" y="601" on="0"/>
        <pt x="1290" y="601" on="0"/>
        <pt x="1311" y="596" on="0"/>
        <pt x="1323" y="584" on="0"/>
        <pt x="1323" y="572" on="1"/>
        <pt x="1323" y="550" on="0"/>
        <pt x="1298" y="539" on="0"/>
        <pt x="1278" y="539" on="1"/>
        <pt x="1271" y="539" on="0"/>
        <pt x="1257" y="540" on="0"/>
        <pt x="1249" y="540" on="1"/>
        <pt x="712" y="540" on="1"/>
        <pt x="712" y="66" on="1"/>
        <pt x="1278" y="66" on="1"/>
        <pt x="1293" y="66" on="0"/>
        <pt x="1319" y="66" on="0"/>
        <pt x="1340" y="60" on="0"/>
        <pt x="1352" y="47" on="0"/>
      </contour>
      <contour>
        <pt x="627" y="397" on="1"/>
        <pt x="627" y="1014" on="1"/>
        <pt x="290" y="397" on="1"/>
      </contour>
    </TTGlyph>
    <TTGlyph name="Aacute" xMin="59" yMin="-10" xMax="1289" yMax="1627">
      <component glyphName="A" x="0" y="0" flags="0x204"/>
      <component glyphName="acute" x="485" y="339" flags="0x4"/>
    </TTGlyph>
    <TTGlyph name="Abreve" xMin="59" yMin="-10" xMax="1289" yMax="1514">
      <component glyphName="A" x="0" y="0" flags="0x204"/>
      <component glyphName="breve" x="315" y="339" flags="0x4"/>
    </TTGlyph>
    <TTGlyph name="Acircumflex" xMin="59" yMin="-10" xMax="1289" yMax="1504">
      <component glyphName="A" x="0" y="0" flags="0x204"/>
      <component glyphName="circumflex" x="433" y="339" flags="0x4"/>
    </TTGlyph>
    <TTGlyph name="Adieresis" xMin="59" yMin="-10" xMax="1289" yMax="1405">
      <component glyphName="A" x="0" y="0" flags="0x204"/>
      <component glyphName="dieresis" x="299" y="350" flags="0x4"/>
    </TTGlyph>
    <TTGlyph name="Agrave" xMin="59" yMin="-10" xMax="1289" yMax="1639">
      <component glyphName="A" x="0" y="0" flags="0x204"/>
      <component glyphName="grave" x="488" y="339" flags="0x4"/>
    </TTGlyph>
    <TTGlyph name="Amacron" xMin="59" yMin="-10" xMax="1289" yMax="1114">
      <component glyphName="A" x="0" y="0" flags="0x204"/>
    </TTGlyph>
    <TTGlyph name="Aogonek" xMin="59" yMin="-279" xMax="1355" yMax="1114">
      <component glyphName="A" x="0" y="0" flags="0x204"/>
      <component glyphName="ogonek" x="1088" y="0" flags="0x4"/>
    </TTGlyph>
    <TTGlyph name="Aring" xMin="59" yMin="-10" xMax="1289" yMax="1449">
      <component glyphName="A" x="0" y="0" flags="0x204"/>
      <component glyphName="ring" x="491" y="339" flags="0x4"/>
    </TTGlyph>
    <TTGlyph name="Atilde" xMin="59" yMin="-10" xMax="1289" yMax="1396">
      <component glyphName="A" x="0" y="0" flags="0x204"/>
      <component glyphName="tilde" x="208" y="339" flags="0x4"/>
    </TTGlyph>
    <TTGlyph name="B" xMin="160" yMin="0" xMax="1278" yMax="1114">
      <contour>
        <pt x="1278" y="326" on="1"/>
        <pt x="1278" y="224" on="0"/>
        <pt x="1200" y="97" on="0"/>
        <pt x="1063" y="26" on="0"/>
        <pt x="877" y="0" on="0"/>
        <pt x="770" y="0" on="1"/>
        <pt x="194" y="0" on="1"/>
        <pt x="177" y="0" on="0"/>
        <pt x="160" y="20" on="0"/>
        <pt x="160" y="35" on="1"/>
        <pt x="160" y="1077" on="1"/>
        <pt x="160" y="1095" on="0"/>
        <pt x="182" y="1114" on="0"/>
        <pt x="199" y="1114" on="1"/>
        <pt x="657" y="1114" on="1"/>
        <pt x="729" y="1114" on="0"/>
        <pt x="869" y="1111" on="0"/>
        <pt x="994" y="1094" on="0"/>
        <pt x="1099" y="1060" on="0"/>
        <pt x="1176" y="998" on="0"/>
        <pt x="1219" y="904" on="0"/>
        <pt x="1219" y="836" on="1"/>
        <pt x="1219" y="778" on="0"/>
        <pt x="1187" y="698" on="0"/>
        <pt x="1138" y="644" on="0"/>
        <pt x="1078" y="613" on="0"/>
        <pt x="1022" y="598" on="0"/>
        <pt x="976" y="594" on="0"/>
        <pt x="965" y="594" on="1"/>
        <pt x="958" y="594" on="1"/>
        <pt x="1019" y="588" on="0"/>
        <pt x="1133" y="558" on="0"/>
        <pt x="1222" y="497" on="0"/>
        <pt x="1277" y="399" on="0"/>
      </contour>
      <contour>
        <pt x="1134" y="836" on="1"/>
        <pt x="1134" y="887" on="0"/>
        <pt x="1100" y="966" on="0"/>
        <pt x="1004" y="1020" on="0"/>
        <pt x="832" y="1048" on="0"/>
        <pt x="694" y="1048" on="1"/>
        <pt x="245" y="1048" on="1"/>
        <pt x="245" y="619" on="1"/>
        <pt x="718" y="619" on="1"/>
        <pt x="826" y="619" on="0"/>
        <pt x="983" y="636" on="0"/>
        <pt x="1085" y="684" on="0"/>
        <pt x="1134" y="768" on="0"/>
      </contour>
      <contour>
        <pt x="1193" y="326" on="1"/>
        <pt x="1193" y="395" on="0"/>
        <pt x="1126" y="487" on="0"/>
        <pt x="1003" y="541" on="0"/>
        <pt x="827" y="564" on="0"/>
        <pt x="718" y="564" on="1"/>
        <pt x="245" y="564" on="1"/>
        <pt x="245" y="66" on="1"/>
        <pt x="808" y="66" on="1"/>
        <pt x="943" y="66" on="0"/>
        <pt x="1098" y="110" on="0"/>
        <pt x="1174" y="182" on="0"/>
        <pt x="1193" y="276" on="0"/>
      </contour>
    </TTGlyph>
    <TTGlyph name="C" xMin="123" yMin="-21" xMax="1404" yMax="1135">
      <contour>
        <pt x="123" y="557" on="1"/>
        <pt x="123" y="713" on="0"/>
        <pt x="218" y="932" on="0"/>
        <pt x="406" y="1071" on="0"/>
        <pt x="687" y="1135" on="0"/>
        <pt x="873" y="1135" on="1"/>
        <pt x="1003" y="1135" on="0"/>
        <pt x="1247" y="1088" on="0"/>
        <pt x="1373" y="1036" on="1"/>
        <pt x="1389" y="1029" on="0"/>
        <pt x="1403" y="1008" on="0"/>
        <pt x="1403" y="998" on="1"/>
        <pt x="1403" y="986" on="0"/>
        <pt x="1385" y="968" on="0"/>
        <pt x="1371" y="968" on="1"/>
        <pt x="1367" y="968" on="0"/>
        <pt x="1352" y="973" on="1"/>
        <pt x="1237" y="1021" on="0"/>
        <pt x="991" y="1069" on="0"/>
        <pt x="873" y="1069" on="1"/>
        <pt x="695" y="1069" on="0"/>
        <pt x="443" y="1010" on="0"/>
        <pt x="282" y="885" on="0"/>
        <pt x="208" y="692" on="0"/>
        <pt x="208" y="557" on="1"/>
        <pt x="208" y="422" on="0"/>
        <pt x="282" y="229" on="0"/>
        <pt x="443" y="104" on="0"/>
        <pt x="695" y="45" on="0"/>
        <pt x="873" y="45" on="1"/>
        <pt x="991" y="45" on="0"/>
        <pt x="1237" y="93" on="0"/>
        <pt x="1352" y="141" on="1"/>
        <pt x="1360" y="145" on="0"/>
        <pt x="1370" y="145" on="1"/>
        <pt x="1385" y="145" on="0"/>
        <pt x="1404" y="127" on="0"/>
        <pt x="1404" y="115" on="1"/>
        <pt x="1404" y="105" on="0"/>
        <pt x="1390" y="85" on="0"/>
        <pt x="1373" y="78" on="1"/>
        <pt x="1246" y="26" on="0"/>
        <pt x="1003" y="-21" on="0"/>
        <pt x="873" y="-21" on="1"/>
        <pt x="687" y="-21" on="0"/>
        <pt x="406" y="43" on="0"/>
        <pt x="218" y="182" on="0"/>
        <pt x="123" y="401" on="0"/>
      </contour>
    </TTGlyph>
    <TTGlyph name="Cacute" xMin="123" yMin="-21" xMax="1404" yMax="1627">
      <component glyphName="C" x="0" y="0" flags="0x204"/>
      <component glyphName="acute" x="574" y="339" flags="0x4"/>
    </TTGlyph>
    <TTGlyph name="Ccaron" xMin="123" yMin="-21" xMax="1404" yMax="1587">
      <component glyphName="C" x="0" y="0" flags="0x204"/>
      <component glyphName="caron" x="484" y="339" flags="0x4"/>
    </TTGlyph>
    <TTGlyph name="Ccedilla" xMin="123" yMin="-324" xMax="1404" yMax="1135">
      <component glyphName="C" x="0" y="0" flags="0x204"/>
      <component glyphName="cedilla" x="631" y="0" flags="0x4"/>
    </TTGlyph>
    <TTGlyph name="D" xMin="160" yMin="0" xMax="1547" yMax="1114">
      <contour>
        <pt x="1547" y="559" on="1"/>
        <pt x="1547" y="399" on="0"/>
        <pt x="1463" y="185" on="0"/>
        <pt x="1297" y="55" on="0"/>
        <pt x="1050" y="0" on="0"/>
        <pt x="887" y="0" on="1"/>
        <pt x="199" y="0" on="1"/>
        <pt x="184" y="0" on="0"/>
        <pt x="169" y="1" on="0"/>
        <pt x="161" y="8" on="0"/>
        <pt x="160" y="22" on="0"/>
        <pt x="160" y="35" on="1"/>
        <pt x="160" y="1077" on="1"/>
        <pt x="160" y="1092" on="0"/>
        <pt x="161" y="1107" on="0"/>
        <pt x="169" y="1113" on="0"/>
        <pt x="186" y="1114" on="0"/>
        <pt x="201" y="1114" on="1"/>
        <pt x="887" y="1114" on="1"/>
        <pt x="1050" y="1114" on="0"/>
        <pt x="1297" y="1058" on="0"/>
        <pt x="1463" y="927" on="0"/>
        <pt x="1547" y="715" on="0"/>
      </contour>
      <contour>
        <pt x="1462" y="559" on="1"/>
        <pt x="1462" y="688" on="0"/>
        <pt x="1404" y="873" on="0"/>
        <pt x="1270" y="992" on="0"/>
        <pt x="1050" y="1048" on="0"/>
        <pt x="887" y="1048" on="1"/>
        <pt x="245" y="1048" on="1"/>
        <pt x="245" y="66" on="1"/>
        <pt x="887" y="66" on="1"/>
        <pt x="1050" y="66" on="0"/>
        <pt x="1270" y="122" on="0"/>
        <pt x="1404" y="241" on="0"/>
        <pt x="1462" y="428" on="0"/>
      </contour>
    </TTGlyph>
    <TTGlyph name="E" xMin="161" yMin="0" xMax="1187" yMax="1114">
      <contour>
        <pt x="1187" y="35" on="1"/>
        <pt x="1187" y="20" on="0"/>
        <pt x="1177" y="6" on="0"/>
        <pt x="1160" y="0" on="0"/>
        <pt x="1136" y="0" on="0"/>
        <pt x="1121" y="0" on="1"/>
        <pt x="187" y="0" on="1"/>
        <pt x="177" y="0" on="0"/>
        <pt x="167" y="2" on="0"/>
        <pt x="162" y="10" on="0"/>
        <pt x="161" y="23" on="0"/>
        <pt x="161" y="35" on="1"/>
        <pt x="161" y="1067" on="1"/>
        <pt x="161" y="1082" on="0"/>
        <pt x="162" y="1100" on="0"/>
        <pt x="168" y="1110" on="0"/>
        <pt x="183" y="1114" on="0"/>
        <pt x="198" y="1114" on="1"/>
        <pt x="1111" y="1114" on="1"/>
        <pt x="1126" y="1114" on="0"/>
        <pt x="1152" y="1114" on="0"/>
        <pt x="1173" y="1108" on="0"/>
        <pt x="1185" y="1094" on="0"/>
        <pt x="1185" y="1079" on="1"/>
        <pt x="1185" y="1067" on="0"/>
        <pt x="1173" y="1054" on="0"/>
        <pt x="1152" y="1048" on="0"/>
        <pt x="1126" y="1048" on="0"/>
        <pt x="1111" y="1048" on="1"/>
        <pt x="246" y="1048" on="1"/>
        <pt x="246" y="610" on="1"/>
        <pt x="1106" y="610" on="1"/>
        <pt x="1128" y="610" on="0"/>
        <pt x="1158" y="598" on="0"/>
        <pt x="1158" y="578" on="1"/>
        <pt x="1158" y="556" on="0"/>
        <pt x="1133" y="542" on="0"/>
        <pt x="1113" y="542" on="1"/>
        <pt x="246" y="542" on="1"/>
        <pt x="246" y="66" on="1"/>
        <pt x="1113" y="66" on="1"/>
        <pt x="1128" y="66" on="0"/>
        <pt x="1154" y="66" on="0"/>
        <pt x="1175" y="60" on="0"/>
        <pt x="1187" y="47" on="0"/>
      </contour>
    </TTGlyph>
    <TTGlyph name="Eacute" xMin="161" yMin="0" xMax="1187" yMax="1627">
      <component glyphName="E" x="0" y="0" flags="0x4"/>
      <component glyphName="acute" x="484" y="339" flags="0x4"/>
    </TTGlyph>
    <TTGlyph name="Ecircumflex" xMin="161" yMin="0" xMax="1187" yMax="1504">
      <component glyphName="E" x="0" y="0" flags="0x4"/>
      <component glyphName="circumflex" x="432" y="339" flags="0x4"/>
    </TTGlyph>
    <TTGlyph name="Edieresis" xMin="161" yMin="0" xMax="1187" yMax="1403">
      <component glyphName="E" x="0" y="0" flags="0x204"/>
      <component glyphName="dieresis" x="298" y="348" flags="0x4"/>
    </TTGlyph>
    <TTGlyph name="Egrave" xMin="161" yMin="0" xMax="1187" yMax="1639">
      <component glyphName="E" x="0" y="0" flags="0x4"/>
      <component glyphName="grave" x="487" y="339" flags="0x4"/>
    </TTGlyph>
    <TTGlyph name="Emacron" xMin="161" yMin="0" xMax="1187" yMax="1319">
      <component glyphName="E" x="0" y="0" flags="0x204"/>
      <component glyphName="macron" x="336" y="338" flags="0x4"/>
    </TTGlyph>
    <TTGlyph name="Eogonek" xMin="161" yMin="-279" xMax="1234" yMax="1114">
      <component glyphName="E" x="0" y="0" flags="0x204"/>
      <component glyphName="ogonek" x="967" y="0" flags="0x4"/>
    </TTGlyph>
    <TTGlyph name="Eth" xMin="24" yMin="0" xMax="1528" yMax="1114">
      <component glyphName="D" x="-19" y="0" flags="0x4"/>
      <component glyphName="hyphen" x="-71" y="96" flags="0x4"/>
    </TTGlyph>
    <TTGlyph name="Euro" xMin="59" yMin="-21" xMax="1049" yMax="1135">
      <contour>
        <pt x="715" y="638" on="1"/>
        <pt x="715" y="627" on="0"/>
        <pt x="703" y="609" on="0"/>
        <pt x="690" y="609" on="1"/>
        <pt x="264" y="609" on="1"/>
        <pt x="264" y="528" on="1"/>
        <pt x="688" y="528" on="1"/>
        <pt x="701" y="528" on="0"/>
        <pt x="713" y="510" on="0"/>
        <pt x="713" y="499" on="1"/>
        <pt x="713" y="488" on="0"/>
        <pt x="701" y="470" on="0"/>
        <pt x="688" y="470" on="1"/>
        <pt x="266" y="470" on="1"/>
        <pt x="271" y="362" on="0"/>
        <pt x="311" y="202" on="0"/>
        <pt x="394" y="97" on="0"/>
        <pt x="527" y="45" on="0"/>
        <pt x="626" y="45" on="1"/>
        <pt x="704" y="45" on="0"/>
        <pt x="819" y="76" on="0"/>
        <pt x="901" y="140" on="0"/>
        <pt x="953" y="236" on="0"/>
        <pt x="967" y="301" on="1"/>
        <pt x="1043" y="301" on="1"/>
        <pt x="1028" y="226" on="0"/>
        <pt x="968" y="107" on="0"/>
        <pt x="868" y="23" on="0"/>
        <pt x="724" y="-21" on="0"/>
        <pt x="626" y="-21" on="1"/>
        <pt x="501" y="-21" on="0"/>
        <pt x="338" y="48" on="0"/>
        <pt x="239" y="176" on="0"/>
        <pt x="195" y="357" on="0"/>
        <pt x="190" y="470" on="1"/>
        <pt x="83" y="470" on="1"/>
        <pt x="70" y="470" on="0"/>
        <pt x="59" y="488" on="0"/>
        <pt x="59" y="499" on="1"/>
        <pt x="59" y="510" on="0"/>
        <pt x="70" y="528" on="0"/>
        <pt x="83" y="528" on="1"/>
        <pt x="188" y="528" on="1"/>
        <pt x="188" y="609" on="1"/>
        <pt x="85" y="609" on="1"/>
        <pt x="72" y="609" on="0"/>
        <pt x="61" y="627" on="0"/>
        <pt x="61" y="638" on="1"/>
        <pt x="61" y="649" on="0"/>
        <pt x="72" y="667" on="0"/>
        <pt x="85" y="667" on="1"/>
        <pt x="191" y="667" on="1"/>
        <pt x="197" y="774" on="0"/>
        <pt x="244" y="947" on="0"/>
        <pt x="343" y="1069" on="0"/>
        <pt x="505" y="1135" on="0"/>
        <pt x="626" y="1135" on="1"/>
        <pt x="731" y="1135" on="0"/>
        <pt x="879" y="1086" on="0"/>
        <pt x="979" y="993" on="0"/>
        <pt x="1036" y="860" on="0"/>
        <pt x="1049" y="777" on="1"/>
        <pt x="974" y="776" on="1"/>
        <pt x="962" y="851" on="0"/>
        <pt x="912" y="961" on="0"/>
        <pt x="829" y="1033" on="0"/>
        <pt x="708" y="1069" on="0"/>
        <pt x="626" y="1069" on="1"/>
        <pt x="530" y="1069" on="0"/>
        <pt x="398" y="1020" on="0"/>
        <pt x="315" y="920" on="0"/>
        <pt x="273" y="769" on="0"/>
        <pt x="267" y="667" on="1"/>
        <pt x="690" y="667" on="1"/>
        <pt x="703" y="667" on="0"/>
        <pt x="715" y="649" on="0"/>
      </contour>
    </TTGlyph>
    <TTGlyph name="F" xMin="161" yMin="0" xMax="1239" yMax="1114">
      <contour>
        <pt x="246" y="70" on="1"/>
        <pt x="246" y="41" on="0"/>
        <pt x="229" y="0" on="0"/>
        <pt x="205" y="0" on="1"/>
        <pt x="176" y="0" on="0"/>
        <pt x="161" y="41" on="0"/>
        <pt x="161" y="68" on="1"/>
        <pt x="161" y="1077" on="1"/>
        <pt x="161" y="1092" on="0"/>
        <pt x="162" y="1107" on="0"/>
        <pt x="168" y="1113" on="0"/>
        <pt x="183" y="1114" on="0"/>
        <pt x="198" y="1114" on="1"/>
        <pt x="1176" y="1114" on="1"/>
        <pt x="1189" y="1114" on="0"/>
        <pt x="1212" y="1113" on="0"/>
        <pt x="1229" y="1106" on="0"/>
        <pt x="1239" y="1092" on="0"/>
        <pt x="1239" y="1079" on="1"/>
        <pt x="1239" y="1056" on="0"/>
        <pt x="1205" y="1048" on="0"/>
        <pt x="1176" y="1048" on="1"/>
        <pt x="246" y="1048" on="1"/>
        <pt x="246" y="594" on="1"/>
        <pt x="1033" y="594" on="1"/>
        <pt x="1062" y="594" on="0"/>
        <pt x="1099" y="586" on="0"/>
        <pt x="1099" y="563" on="1"/>
        <pt x="1099" y="550" on="0"/>
        <pt x="1088" y="536" on="0"/>
        <pt x="1070" y="529" on="0"/>
        <pt x="1046" y="528" on="0"/>
        <pt x="1033" y="528" on="1"/>
        <pt x="246" y="528" on="1"/>
      </contour>
    </TTGlyph>
    <TTGlyph name="G" xMin="123" yMin="-21" xMax="1509" yMax="1135">
      <contour>
        <pt x="873" y="45" on="1"/>
        <pt x="1024" y="45" on="0"/>
        <pt x="1298" y="85" on="0"/>
        <pt x="1437" y="118" on="1"/>
        <pt x="1437" y="536" on="1"/>
        <pt x="927" y="536" on="1"/>
        <pt x="915" y="536" on="0"/>
        <pt x="890" y="537" on="0"/>
        <pt x="869" y="544" on="0"/>
        <pt x="856" y="558" on="0"/>
        <pt x="856" y="571" on="1"/>
        <pt x="856" y="584" on="0"/>
        <pt x="869" y="598" on="0"/>
        <pt x="889" y="605" on="0"/>
        <pt x="914" y="606" on="0"/>
        <pt x="927" y="606" on="1"/>
        <pt x="1437" y="606" on="1"/>
        <pt x="1479" y="606" on="0"/>
        <pt x="1509" y="574" on="0"/>
        <pt x="1509" y="536" on="1"/>
        <pt x="1509" y="118" on="1"/>
        <pt x="1509" y="87" on="0"/>
        <pt x="1463" y="54" on="0"/>
        <pt x="1437" y="49" on="1"/>
        <pt x="1289" y="20" on="0"/>
        <pt x="1011" y="-21" on="0"/>
        <pt x="873" y="-21" on="1"/>
        <pt x="687" y="-21" on="0"/>
        <pt x="406" y="43" on="0"/>
        <pt x="218" y="182" on="0"/>
        <pt x="123" y="401" on="0"/>
        <pt x="123" y="557" on="1"/>
        <pt x="123" y="713" on="0"/>
        <pt x="218" y="932" on="0"/>
        <pt x="406" y="1071" on="0"/>
        <pt x="687" y="1135" on="0"/>
        <pt x="873" y="1135" on="1"/>
        <pt x="1003" y="1135" on="0"/>
        <pt x="1247" y="1088" on="0"/>
        <pt x="1373" y="1036" on="1"/>
        <pt x="1389" y="1029" on="0"/>
        <pt x="1403" y="1008" on="0"/>
        <pt x="1403" y="998" on="1"/>
        <pt x="1403" y="986" on="0"/>
        <pt x="1385" y="968" on="0"/>
        <pt x="1371" y="968" on="1"/>
        <pt x="1367" y="968" on="0"/>
        <pt x="1352" y="973" on="1"/>
        <pt x="1237" y="1021" on="0"/>
        <pt x="991" y="1069" on="0"/>
        <pt x="873" y="1069" on="1"/>
        <pt x="695" y="1069" on="0"/>
        <pt x="443" y="1010" on="0"/>
        <pt x="282" y="885" on="0"/>
        <pt x="208" y="692" on="0"/>
        <pt x="208" y="557" on="1"/>
        <pt x="208" y="422" on="0"/>
        <pt x="282" y="229" on="0"/>
        <pt x="443" y="104" on="0"/>
        <pt x="695" y="45" on="0"/>
      </contour>
    </TTGlyph>
    <TTGlyph name="Gcedilla" xMin="69" yMin="-263" xMax="1455" yMax="1135">
      <component glyphName="G" x="-54" y="0" flags="0x4"/>
      <component glyphName="comma" x="679" y="-139" flags="0x4"/>
    </TTGlyph>
    <TTGlyph name="H" xMin="159" yMin="0" xMax="1214" yMax="1114">
      <contour>
        <pt x="159" y="1044" on="1"/>
        <pt x="159" y="1057" on="0"/>
        <pt x="162" y="1082" on="0"/>
        <pt x="173" y="1102" on="0"/>
        <pt x="192" y="1114" on="0"/>
        <pt x="207" y="1114" on="1"/>
        <pt x="218" y="1114" on="0"/>
        <pt x="232" y="1101" on="0"/>
        <pt x="241" y="1081" on="0"/>
        <pt x="244" y="1056" on="0"/>
        <pt x="244" y="1044" on="1"/>
        <pt x="244" y="606" on="1"/>
        <pt x="1129" y="606" on="1"/>
        <pt x="1129" y="1044" on="1"/>
        <pt x="1129" y="1057" on="0"/>
        <pt x="1131" y="1082" on="0"/>
        <pt x="1140" y="1102" on="0"/>
        <pt x="1156" y="1114" on="0"/>
        <pt x="1171" y="1114" on="1"/>
        <pt x="1186" y="1114" on="0"/>
        <pt x="1203" y="1102" on="0"/>
        <pt x="1212" y="1082" on="0"/>
        <pt x="1214" y="1057" on="0"/>
        <pt x="1214" y="1044" on="1"/>
        <pt x="1214" y="70" on="1"/>
        <pt x="1214" y="57" on="0"/>
        <pt x="1212" y="32" on="0"/>
        <pt x="1203" y="12" on="0"/>
        <pt x="1187" y="0" on="0"/>
        <pt x="1172" y="0" on="1"/>
        <pt x="1157" y="0" on="0"/>
        <pt x="1140" y="12" on="0"/>
        <pt x="1131" y="32" on="0"/>
        <pt x="1129" y="57" on="0"/>
        <pt x="1129" y="70" on="1"/>
        <pt x="1129" y="544" on="1"/>
        <pt x="244" y="544" on="1"/>
        <pt x="244" y="70" on="1"/>
        <pt x="244" y="58" on="0"/>
        <pt x="240" y="33" on="0"/>
        <pt x="231" y="13" on="0"/>
        <pt x="216" y="0" on="0"/>
        <pt x="205" y="0" on="1"/>
        <pt x="190" y="0" on="0"/>
        <pt x="171" y="12" on="0"/>
        <pt x="162" y="32" on="0"/>
        <pt x="159" y="57" on="0"/>
        <pt x="159" y="70" on="1"/>
      </contour>
    </TTGlyph>
    <TTGlyph name="I" xMin="43" yMin="0" xMax="987" yMax="1114">
      <contour>
        <pt x="473" y="1048" on="1"/>
        <pt x="116" y="1048" on="1"/>
        <pt x="103" y="1048" on="0"/>
        <pt x="77" y="1048" on="0"/>
        <pt x="56" y="1054" on="0"/>
        <pt x="43" y="1067" on="0"/>
        <pt x="43" y="1079" on="1"/>
        <pt x="43" y="1094" on="0"/>
        <pt x="57" y="1108" on="0"/>
        <pt x="78" y="1114" on="0"/>
        <pt x="104" y="1114" on="0"/>
        <pt x="116" y="1114" on="1"/>
        <pt x="915" y="1114" on="1"/>
        <pt x="930" y="1114" on="0"/>
        <pt x="956" y="1114" on="0"/>
        <pt x="975" y="1108" on="0"/>
        <pt x="987" y="1094" on="0"/>
        <pt x="987" y="1081" on="1"/>
        <pt x="987" y="1067" on="0"/>
        <pt x="975" y="1054" on="0"/>
        <pt x="956" y="1048" on="0"/>
        <pt x="930" y="1048" on="0"/>
        <pt x="915" y="1048" on="1"/>
        <pt x="558" y="1048" on="1"/>
        <pt x="558" y="66" on="1"/>
        <pt x="915" y="66" on="1"/>
        <pt x="930" y="66" on="0"/>
        <pt x="956" y="66" on="0"/>
        <pt x="975" y="60" on="0"/>
        <pt x="987" y="46" on="0"/>
        <pt x="987" y="33" on="1"/>
        <pt x="987" y="19" on="0"/>
        <pt x="975" y="6" on="0"/>
        <pt x="956" y="0" on="0"/>
        <pt x="930" y="0" on="0"/>
        <pt x="915" y="0" on="1"/>
        <pt x="116" y="0" on="1"/>
        <pt x="104" y="0" on="0"/>
        <pt x="78" y="0" on="0"/>
        <pt x="57" y="6" on="0"/>
        <pt x="43" y="20" on="0"/>
        <pt x="43" y="35" on="1"/>
        <pt x="43" y="47" on="0"/>
        <pt x="56" y="60" on="0"/>
        <pt x="77" y="66" on="0"/>
        <pt x="103" y="66" on="0"/>
        <pt x="116" y="66" on="1"/>
        <pt x="473" y="66" on="1"/>
      </contour>
    </TTGlyph>
    <TTGlyph name="IJ" xMin="43" yMin="-20" xMax="1929" yMax="1114">
      <component glyphName="I" x="0" y="0" flags="0x4"/>
      <component glyphName="J" x="1031" y="0" flags="0x4"/>
    </TTGlyph>
    <TTGlyph name="Iacute" xMin="43" yMin="0" xMax="987" yMax="1627">
      <component glyphName="I" x="0" y="0" flags="0x204"/>
      <component glyphName="acute" x="326" y="339" flags="0x4"/>
    </TTGlyph>
    <TTGlyph name="Icircumflex" xMin="43" yMin="0" xMax="987" yMax="1504">
      <component glyphName="I" x="0" y="0" flags="0x204"/>
      <component glyphName="circumflex" x="274" y="339" flags="0x4"/>
    </TTGlyph>
    <TTGlyph name="Idieresis" xMin="43" yMin="0" xMax="987" yMax="1403">
      <component glyphName="I" x="0" y="0" flags="0x204"/>
      <component glyphName="dieresis" x="140" y="348" flags="0x4"/>
    </TTGlyph>
    <TTGlyph name="Igrave" xMin="43" yMin="0" xMax="987" yMax="1639">
      <component glyphName="I" x="0" y="0" flags="0x204"/>
      <component glyphName="grave" x="329" y="339" flags="0x4"/>
    </TTGlyph>
    <TTGlyph name="Imacron" xMin="43" yMin="0" xMax="987" yMax="1319">
      <component glyphName="I" x="0" y="0" flags="0x204"/>
      <component glyphName="macron" x="178" y="338" flags="0x4"/>
    </TTGlyph>
    <TTGlyph name="Iogonek" xMin="43" yMin="-279" xMax="987" yMax="1114">
      <component glyphName="I" x="0" y="0" flags="0x204"/>
      <component glyphName="ogonek" x="359" y="0" flags="0x4"/>
    </TTGlyph>
    <TTGlyph name="Itilde" xMin="43" yMin="0" xMax="987" yMax="1396">
      <component glyphName="I" x="0" y="0" flags="0x204"/>
      <component glyphName="tilde" x="49" y="339" flags="0x4"/>
    </TTGlyph>
    <TTGlyph name="J" xMin="3" yMin="-20" xMax="898" yMax="1114">
      <contour>
        <pt x="898" y="594" on="1"/>
        <pt x="898" y="438" on="0"/>
        <pt x="857" y="207" on="0"/>
        <pt x="758" y="55" on="0"/>
        <pt x="592" y="-20" on="0"/>
        <pt x="467" y="-20" on="1"/>
        <pt x="382" y="-20" on="0"/>
        <pt x="231" y="0" on="0"/>
        <pt x="111" y="52" on="0"/>
        <pt x="26" y="143" on="0"/>
        <pt x="7" y="214" on="1"/>
        <pt x="3" y="222" on="0"/>
        <pt x="3" y="238" on="1"/>
        <pt x="3" y="258" on="0"/>
        <pt x="23" y="277" on="0"/>
        <pt x="37" y="277" on="1"/>
        <pt x="50" y="277" on="0"/>
        <pt x="75" y="258" on="0"/>
        <pt x="80" y="240" on="1"/>
        <pt x="96" y="171" on="0"/>
        <pt x="176" y="95" on="0"/>
        <pt x="284" y="57" on="0"/>
        <pt x="408" y="49" on="0"/>
        <pt x="467" y="49" on="1"/>
        <pt x="573" y="49" on="0"/>
        <pt x="708" y="120" on="0"/>
        <pt x="784" y="258" on="0"/>
        <pt x="813" y="461" on="0"/>
        <pt x="813" y="594" on="1"/>
        <pt x="813" y="1044" on="1"/>
        <pt x="813" y="1073" on="0"/>
        <pt x="829" y="1114" on="0"/>
        <pt x="858" y="1114" on="1"/>
        <pt x="871" y="1114" on="0"/>
        <pt x="887" y="1101" on="0"/>
        <pt x="895" y="1081" on="0"/>
        <pt x="898" y="1056" on="0"/>
        <pt x="898" y="1044" on="1"/>
      </contour>
    </TTGlyph>
    <TTGlyph name="Jcircumflex" xMin="3" yMin="-20" xMax="1061" yMax="1504">
      <component glyphName="J" x="0" y="0" flags="0x204"/>
      <component glyphName="circumflex" x="614" y="339" flags="0x4"/>
    </TTGlyph>
    <TTGlyph name="K" xMin="160" yMin="0" xMax="1120" yMax="1114">
      <contour>
        <pt x="516" y="621" on="1"/>
        <pt x="1099" y="77" on="1"/>
        <pt x="1119" y="59" on="0"/>
        <pt x="1119" y="37" on="1"/>
        <pt x="1119" y="22" on="0"/>
        <pt x="1099" y="0" on="0"/>
        <pt x="1084" y="0" on="1"/>
        <pt x="1067" y="0" on="0"/>
        <pt x="1051" y="15" on="1"/>
        <pt x="453" y="580" on="1"/>
        <pt x="246" y="444" on="1"/>
        <pt x="246" y="70" on="1"/>
        <pt x="246" y="41" on="0"/>
        <pt x="228" y="0" on="0"/>
        <pt x="204" y="0" on="1"/>
        <pt x="175" y="0" on="0"/>
        <pt x="160" y="41" on="0"/>
        <pt x="160" y="68" on="1"/>
        <pt x="160" y="1048" on="1"/>
        <pt x="160" y="1077" on="0"/>
        <pt x="177" y="1114" on="0"/>
        <pt x="206" y="1114" on="1"/>
        <pt x="230" y="1114" on="0"/>
        <pt x="246" y="1076" on="0"/>
        <pt x="246" y="1050" on="1"/>
        <pt x="246" y="524" on="1"/>
        <pt x="1047" y="1099" on="1"/>
        <pt x="1058" y="1107" on="0"/>
        <pt x="1079" y="1114" on="0"/>
        <pt x="1087" y="1114" on="1"/>
        <pt x="1103" y="1114" on="0"/>
        <pt x="1120" y="1096" on="0"/>
        <pt x="1120" y="1082" on="1"/>
        <pt x="1120" y="1060" on="0"/>
        <pt x="1098" y="1044" on="1"/>
      </contour>
    </TTGlyph>
    <TTGlyph name="L" xMin="160" yMin="0" xMax="1145" yMax="1114">
      <contour>
        <pt x="201" y="0" on="1"/>
        <pt x="186" y="0" on="0"/>
        <pt x="169" y="2" on="0"/>
        <pt x="161" y="9" on="0"/>
        <pt x="160" y="24" on="0"/>
        <pt x="160" y="37" on="1"/>
        <pt x="160" y="1049" on="1"/>
        <pt x="160" y="1075" on="0"/>
        <pt x="178" y="1114" on="0"/>
        <pt x="207" y="1114" on="1"/>
        <pt x="231" y="1114" on="0"/>
        <pt x="245" y="1073" on="0"/>
        <pt x="245" y="1049" on="1"/>
        <pt x="245" y="66" on="1"/>
        <pt x="1104" y="66" on="1"/>
        <pt x="1124" y="66" on="0"/>
        <pt x="1145" y="45" on="0"/>
        <pt x="1145" y="33" on="1"/>
        <pt x="1145" y="20" on="0"/>
        <pt x="1124" y="0" on="0"/>
        <pt x="1104" y="0" on="1"/>
      </contour>
    </TTGlyph>
    <TTGlyph name="Ldotaccent" xMin="130" yMin="0" xMax="1115" yMax="1114">
      <component glyphName="L" x="-30" y="0" flags="0x4"/>
      <component glyphName="periodcentered#1" x="559" y="228" flags="0x4"/>
    </TTGlyph>
    <TTGlyph name="Lslash" xMin="-27" yMin="0" xMax="1077" yMax="1114">
      <contour>
        <pt x="-27" y="563" on="1"/>
        <pt x="207" y="657" on="1"/>
        <pt x="207" y="1044" on="1"/>
        <pt x="207" y="1075" on="0"/>
        <pt x="217" y="1114" on="0"/>
        <pt x="246" y="1114" on="1"/>
        <pt x="270" y="1114" on="0"/>
        <pt x="278" y="1073" on="0"/>
        <pt x="278" y="1044" on="1"/>
        <pt x="278" y="688" on="1"/>
        <pt x="641" y="836" on="1"/>
        <pt x="661" y="772" on="1"/>
        <pt x="278" y="612" on="1"/>
        <pt x="278" y="70" on="1"/>
        <pt x="1006" y="70" on="1"/>
        <pt x="1021" y="70" on="0"/>
        <pt x="1046" y="69" on="0"/>
        <pt x="1066" y="62" on="0"/>
        <pt x="1077" y="48" on="0"/>
        <pt x="1077" y="35" on="1"/>
        <pt x="1077" y="22" on="0"/>
        <pt x="1066" y="8" on="0"/>
        <pt x="1046" y="1" on="0"/>
        <pt x="1021" y="0" on="0"/>
        <pt x="1006" y="0" on="1"/>
        <pt x="246" y="0" on="1"/>
        <pt x="231" y="0" on="0"/>
        <pt x="216" y="2" on="0"/>
        <pt x="208" y="14" on="0"/>
        <pt x="207" y="43" on="0"/>
        <pt x="207" y="70" on="1"/>
        <pt x="207" y="584" on="1"/>
        <pt x="-6" y="500" on="1"/>
      </contour>
    </TTGlyph>
    <TTGlyph name="M" xMin="159" yMin="0" xMax="1609" yMax="1114">
      <contour>
        <pt x="884" y="139" on="1"/>
        <pt x="1504" y="1071" on="1"/>
        <pt x="1519" y="1094" on="0"/>
        <pt x="1550" y="1114" on="0"/>
        <pt x="1565" y="1114" on="1"/>
        <pt x="1584" y="1114" on="0"/>
        <pt x="1609" y="1083" on="0"/>
        <pt x="1609" y="1060" on="1"/>
        <pt x="1609" y="70" on="1"/>
        <pt x="1609" y="41" on="0"/>
        <pt x="1595" y="0" on="0"/>
        <pt x="1566" y="0" on="1"/>
        <pt x="1541" y="0" on="0"/>
        <pt x="1524" y="41" on="0"/>
        <pt x="1524" y="70" on="1"/>
        <pt x="1524" y="958" on="1"/>
        <pt x="933" y="86" on="1"/>
        <pt x="909" y="52" on="0"/>
        <pt x="884" y="52" on="1"/>
        <pt x="857" y="52" on="0"/>
        <pt x="835" y="86" on="1"/>
        <pt x="244" y="958" on="1"/>
        <pt x="244" y="70" on="1"/>
        <pt x="244" y="41" on="0"/>
        <pt x="227" y="0" on="0"/>
        <pt x="202" y="0" on="1"/>
        <pt x="173" y="0" on="0"/>
        <pt x="159" y="41" on="0"/>
        <pt x="159" y="70" on="1"/>
        <pt x="159" y="1060" on="1"/>
        <pt x="159" y="1083" on="0"/>
        <pt x="184" y="1114" on="0"/>
        <pt x="203" y="1114" on="1"/>
        <pt x="217" y="1114" on="0"/>
        <pt x="248" y="1094" on="0"/>
        <pt x="264" y="1071" on="1"/>
      </contour>
    </TTGlyph>
    <TTGlyph name="N" xMin="160" yMin="0" xMax="1367" yMax="1114">
      <contour>
        <pt x="1282" y="128" on="1"/>
        <pt x="1282" y="1038" on="1"/>
        <pt x="1282" y="1053" on="0"/>
        <pt x="1284" y="1080" on="0"/>
        <pt x="1293" y="1101" on="0"/>
        <pt x="1310" y="1114" on="0"/>
        <pt x="1325" y="1114" on="1"/>
        <pt x="1351" y="1114" on="0"/>
        <pt x="1367" y="1069" on="0"/>
        <pt x="1367" y="1038" on="1"/>
        <pt x="1367" y="64" on="1"/>
        <pt x="1367" y="0" on="0"/>
        <pt x="1333" y="0" on="1"/>
        <pt x="1310" y="0" on="0"/>
        <pt x="1276" y="31" on="1"/>
        <pt x="245" y="986" on="1"/>
        <pt x="245" y="70" on="1"/>
        <pt x="245" y="41" on="0"/>
        <pt x="228" y="0" on="0"/>
        <pt x="204" y="0" on="1"/>
        <pt x="175" y="0" on="0"/>
        <pt x="160" y="41" on="0"/>
        <pt x="160" y="70" on="1"/>
        <pt x="160" y="1049" on="1"/>
        <pt x="160" y="1079" on="0"/>
        <pt x="182" y="1111" on="0"/>
        <pt x="201" y="1111" on="1"/>
        <pt x="226" y="1111" on="0"/>
        <pt x="259" y="1081" on="1"/>
      </contour>
    </TTGlyph>
    <TTGlyph name="Nacute" xMin="130" yMin="0" xMax="1337" yMax="1627">
      <component glyphName="N" x="-30" y="0" flags="0x4"/>
      <component glyphName="acute" x="546" y="339" flags="0x4"/>
    </TTGlyph>
    <TTGlyph name="Ntilde" xMin="160" yMin="0" xMax="1367" yMax="1396">
      <component glyphName="N" x="0" y="0" flags="0x4"/>
      <component glyphName="tilde" x="300" y="339" flags="0x4"/>
    </TTGlyph>
    <TTGlyph name="O" xMin="123" yMin="-21" xMax="1592" yMax="1135">
      <contour>
        <pt x="1592" y="557" on="1"/>
        <pt x="1592" y="411" on="0"/>
        <pt x="1505" y="194" on="0"/>
        <pt x="1324" y="50" on="0"/>
        <pt x="1047" y="-21" on="0"/>
        <pt x="857" y="-21" on="1"/>
        <pt x="667" y="-21" on="0"/>
        <pt x="390" y="50" on="0"/>
        <pt x="210" y="194" on="0"/>
        <pt x="123" y="411" on="0"/>
        <pt x="123" y="557" on="1"/>
        <pt x="123" y="703" on="0"/>
        <pt x="210" y="920" on="0"/>
        <pt x="390" y="1064" on="0"/>
        <pt x="667" y="1135" on="0"/>
        <pt x="857" y="1135" on="1"/>
        <pt x="1047" y="1135" on="0"/>
        <pt x="1324" y="1064" on="0"/>
        <pt x="1505" y="920" on="0"/>
        <pt x="1592" y="703" on="0"/>
      </contour>
      <contour>
        <pt x="208" y="557" on="1"/>
        <pt x="208" y="417" on="0"/>
        <pt x="288" y="223" on="0"/>
        <pt x="449" y="100" on="0"/>
        <pt x="693" y="45" on="0"/>
        <pt x="857" y="45" on="1"/>
        <pt x="1021" y="45" on="0"/>
        <pt x="1265" y="100" on="0"/>
        <pt x="1427" y="223" on="0"/>
        <pt x="1507" y="417" on="0"/>
        <pt x="1507" y="557" on="1"/>
        <pt x="1507" y="696" on="0"/>
        <pt x="1427" y="891" on="0"/>
        <pt x="1265" y="1014" on="0"/>
        <pt x="1021" y="1069" on="0"/>
        <pt x="857" y="1069" on="1"/>
        <pt x="693" y="1069" on="0"/>
        <pt x="449" y="1014" on="0"/>
        <pt x="288" y="891" on="0"/>
        <pt x="208" y="696" on="0"/>
      </contour>
    </TTGlyph>
    <TTGlyph name="OE" xMin="123" yMin="-21" xMax="2276" yMax="1135">
      <contour>
        <pt x="1264" y="113" on="1"/>
        <pt x="1186" y="78" on="0"/>
        <pt x="987" y="45" on="0"/>
        <pt x="857" y="45" on="1"/>
        <pt x="693" y="45" on="0"/>
        <pt x="449" y="100" on="0"/>
        <pt x="288" y="223" on="0"/>
        <pt x="208" y="417" on="0"/>
        <pt x="208" y="557" on="1"/>
        <pt x="208" y="696" on="0"/>
        <pt x="288" y="891" on="0"/>
        <pt x="449" y="1014" on="0"/>
        <pt x="693" y="1069" on="0"/>
        <pt x="857" y="1069" on="1"/>
        <pt x="991" y="1069" on="0"/>
        <pt x="1195" y="1035" on="0"/>
        <pt x="1273" y="997" on="1"/>
        <pt x="1270" y="1073" on="1"/>
        <pt x="1189" y="1105" on="0"/>
        <pt x="986" y="1135" on="0"/>
        <pt x="857" y="1135" on="1"/>
        <pt x="667" y="1135" on="0"/>
        <pt x="390" y="1064" on="0"/>
        <pt x="210" y="920" on="0"/>
        <pt x="123" y="703" on="0"/>
        <pt x="123" y="557" on="1"/>
        <pt x="123" y="411" on="0"/>
        <pt x="210" y="194" on="0"/>
        <pt x="390" y="50" on="0"/>
        <pt x="667" y="-21" on="0"/>
        <pt x="857" y="-21" on="1"/>
        <pt x="1100" y="-21" on="0"/>
        <pt x="1262" y="38" on="1"/>
      </contour>
      <contour>
        <pt x="2276" y="35" on="1"/>
        <pt x="2276" y="20" on="0"/>
        <pt x="2264" y="6" on="0"/>
        <pt x="2243" y="0" on="0"/>
        <pt x="2217" y="0" on="0"/>
        <pt x="2202" y="0" on="1"/>
        <pt x="1289" y="0" on="1"/>
        <pt x="1274" y="0" on="0"/>
        <pt x="1259" y="1" on="0"/>
        <pt x="1251" y="8" on="0"/>
        <pt x="1250" y="22" on="0"/>
        <pt x="1250" y="35" on="1"/>
        <pt x="1250" y="1077" on="1"/>
        <pt x="1250" y="1092" on="0"/>
        <pt x="1251" y="1107" on="0"/>
        <pt x="1257" y="1113" on="0"/>
        <pt x="1272" y="1114" on="0"/>
        <pt x="1287" y="1114" on="1"/>
        <pt x="2200" y="1114" on="1"/>
        <pt x="2215" y="1114" on="0"/>
        <pt x="2241" y="1114" on="0"/>
        <pt x="2262" y="1108" on="0"/>
        <pt x="2274" y="1094" on="0"/>
        <pt x="2274" y="1079" on="1"/>
        <pt x="2274" y="1067" on="0"/>
        <pt x="2262" y="1054" on="0"/>
        <pt x="2241" y="1048" on="0"/>
        <pt x="2215" y="1048" on="0"/>
        <pt x="2200" y="1048" on="1"/>
        <pt x="1335" y="1048" on="1"/>
        <pt x="1335" y="601" on="1"/>
        <pt x="2173" y="601" on="1"/>
        <pt x="2187" y="601" on="0"/>
        <pt x="2214" y="601" on="0"/>
        <pt x="2235" y="596" on="0"/>
        <pt x="2247" y="584" on="0"/>
        <pt x="2247" y="572" on="1"/>
        <pt x="2247" y="550" on="0"/>
        <pt x="2222" y="539" on="0"/>
        <pt x="2202" y="539" on="1"/>
        <pt x="2195" y="539" on="0"/>
        <pt x="2181" y="540" on="0"/>
        <pt x="2173" y="540" on="1"/>
        <pt x="1335" y="540" on="1"/>
        <pt x="1335" y="66" on="1"/>
        <pt x="2202" y="66" on="1"/>
        <pt x="2217" y="66" on="0"/>
        <pt x="2243" y="66" on="0"/>
        <pt x="2264" y="60" on="0"/>
        <pt x="2276" y="47" on="0"/>
      </contour>
    </TTGlyph>
    <TTGlyph name="Oacute" xMin="123" yMin="-21" xMax="1592" yMax="1627">
      <component glyphName="O" x="0" y="0" flags="0x204"/>
      <component glyphName="acute" x="668" y="339" flags="0x4"/>
    </TTGlyph>
    <TTGlyph name="Ocircumflex" xMin="123" yMin="-21" xMax="1592" yMax="1504">
      <component glyphName="O" x="0" y="0" flags="0x204"/>
      <component glyphName="circumflex" x="616" y="339" flags="0x4"/>
    </TTGlyph>
    <TTGlyph name="Odieresis" xMin="123" yMin="-21" xMax="1592" yMax="1403">
      <component glyphName="O" x="0" y="0" flags="0x204"/>
      <component glyphName="dieresis" x="482" y="348" flags="0x4"/>
    </TTGlyph>
    <TTGlyph name="Ograve" xMin="123" yMin="-21" xMax="1592" yMax="1639">
      <component glyphName="O" x="0" y="0" flags="0x204"/>
      <component glyphName="grave" x="671" y="339" flags="0x4"/>
    </TTGlyph>
    <TTGlyph name="Oslash" xMin="123" yMin="-159" xMax="1592" yMax="1280">
      <contour>
        <pt x="650" y="-102" on="1"/>
        <pt x="641" y="-126" on="0"/>
        <pt x="623" y="-159" on="0"/>
        <pt x="605" y="-159" on="1"/>
        <pt x="593" y="-159" on="0"/>
        <pt x="578" y="-151" on="0"/>
        <pt x="570" y="-139" on="0"/>
        <pt x="568" y="-126" on="0"/>
        <pt x="568" y="-120" on="1"/>
        <pt x="568" y="-111" on="0"/>
        <pt x="575" y="-92" on="0"/>
        <pt x="580" y="-81" on="1"/>
        <pt x="1070" y="1222" on="1"/>
        <pt x="1074" y="1234" on="0"/>
        <pt x="1081" y="1255" on="0"/>
        <pt x="1091" y="1271" on="0"/>
        <pt x="1107" y="1280" on="0"/>
        <pt x="1119" y="1280" on="1"/>
        <pt x="1140" y="1280" on="0"/>
        <pt x="1152" y="1258" on="0"/>
        <pt x="1152" y="1245" on="1"/>
        <pt x="1152" y="1234" on="0"/>
        <pt x="1145" y="1213" on="0"/>
        <pt x="1142" y="1202" on="1"/>
      </contour>
      <contour>
        <pt x="1592" y="557" on="1"/>
        <pt x="1592" y="411" on="0"/>
        <pt x="1505" y="194" on="0"/>
        <pt x="1324" y="50" on="0"/>
        <pt x="1047" y="-21" on="0"/>
        <pt x="857" y="-21" on="1"/>
        <pt x="667" y="-21" on="0"/>
        <pt x="390" y="50" on="0"/>
        <pt x="210" y="194" on="0"/>
        <pt x="123" y="411" on="0"/>
        <pt x="123" y="557" on="1"/>
        <pt x="123" y="703" on="0"/>
        <pt x="210" y="920" on="0"/>
        <pt x="390" y="1064" on="0"/>
        <pt x="667" y="1135" on="0"/>
        <pt x="857" y="1135" on="1"/>
        <pt x="1047" y="1135" on="0"/>
        <pt x="1324" y="1064" on="0"/>
        <pt x="1505" y="920" on="0"/>
        <pt x="1592" y="703" on="0"/>
      </contour>
      <contour>
        <pt x="208" y="557" on="1"/>
        <pt x="208" y="417" on="0"/>
        <pt x="288" y="223" on="0"/>
        <pt x="449" y="100" on="0"/>
        <pt x="693" y="45" on="0"/>
        <pt x="857" y="45" on="1"/>
        <pt x="1021" y="45" on="0"/>
        <pt x="1265" y="100" on="0"/>
        <pt x="1427" y="223" on="0"/>
        <pt x="1507" y="417" on="0"/>
        <pt x="1507" y="557" on="1"/>
        <pt x="1507" y="696" on="0"/>
        <pt x="1427" y="891" on="0"/>
        <pt x="1265" y="1014" on="0"/>
        <pt x="1021" y="1069" on="0"/>
        <pt x="857" y="1069" on="1"/>
        <pt x="693" y="1069" on="0"/>
        <pt x="449" y="1014" on="0"/>
        <pt x="288" y="891" on="0"/>
        <pt x="208" y="696" on="0"/>
      </contour>
    </TTGlyph>
    <TTGlyph name="Otilde" xMin="123" yMin="-21" xMax="1592" yMax="1396">
      <component glyphName="O" x="0" y="0" flags="0x204"/>
      <component glyphName="tilde" x="391" y="339" flags="0x4"/>
    </TTGlyph>
    <TTGlyph name="P" xMin="160" yMin="0" xMax="1154" yMax="1114">
      <contour>
        <pt x="1154" y="717" on="1"/>
        <pt x="1154" y="626" on="0"/>
        <pt x="1109" y="501" on="0"/>
        <pt x="1029" y="419" on="0"/>
        <pt x="916" y="374" on="0"/>
        <pt x="780" y="352" on="0"/>
        <pt x="625" y="348" on="0"/>
        <pt x="543" y="348" on="1"/>
        <pt x="245" y="348" on="1"/>
        <pt x="245" y="76" on="1"/>
        <pt x="245" y="47" on="0"/>
        <pt x="230" y="0" on="0"/>
        <pt x="206" y="0" on="1"/>
        <pt x="177" y="0" on="0"/>
        <pt x="160" y="45" on="0"/>
        <pt x="160" y="76" on="1"/>
        <pt x="160" y="1077" on="1"/>
        <pt x="160" y="1092" on="0"/>
        <pt x="165" y="1107" on="0"/>
        <pt x="177" y="1113" on="0"/>
        <pt x="196" y="1114" on="0"/>
        <pt x="211" y="1114" on="1"/>
        <pt x="543" y="1114" on="1"/>
        <pt x="634" y="1114" on="0"/>
        <pt x="795" y="1104" on="0"/>
        <pt x="931" y="1073" on="0"/>
        <pt x="1039" y="1019" on="0"/>
        <pt x="1114" y="930" on="0"/>
        <pt x="1154" y="804" on="0"/>
      </contour>
      <contour>
        <pt x="1069" y="717" on="1"/>
        <pt x="1069" y="821" on="0"/>
        <pt x="1006" y="951" on="0"/>
        <pt x="877" y="1023" on="0"/>
        <pt x="679" y="1048" on="0"/>
        <pt x="543" y="1048" on="1"/>
        <pt x="245" y="1048" on="1"/>
        <pt x="245" y="410" on="1"/>
        <pt x="543" y="410" on="1"/>
        <pt x="679" y="410" on="0"/>
        <pt x="878" y="427" on="0"/>
        <pt x="1007" y="490" on="0"/>
        <pt x="1069" y="612" on="0"/>
      </contour>
    </TTGlyph>
    <TTGlyph name="Q" xMin="123" yMin="-209" xMax="1592" yMax="1135">
      <contour>
        <pt x="1592" y="557" on="1"/>
        <pt x="1592" y="305" on="0"/>
        <pt x="1329" y="23" on="0"/>
        <pt x="1049" y="-10" on="1"/>
        <pt x="1074" y="-133" on="1"/>
        <pt x="1076" y="-145" on="0"/>
        <pt x="1080" y="-167" on="0"/>
        <pt x="1080" y="-176" on="1"/>
        <pt x="1080" y="-190" on="0"/>
        <pt x="1065" y="-209" on="0"/>
        <pt x="1045" y="-209" on="1"/>
        <pt x="1023" y="-209" on="0"/>
        <pt x="1008" y="-173" on="0"/>
        <pt x="1004" y="-150" on="1"/>
        <pt x="977" y="-17" on="1"/>
        <pt x="948" y="-19" on="0"/>
        <pt x="889" y="-21" on="0"/>
        <pt x="857" y="-21" on="1"/>
        <pt x="667" y="-21" on="0"/>
        <pt x="390" y="50" on="0"/>
        <pt x="210" y="194" on="0"/>
        <pt x="123" y="411" on="0"/>
        <pt x="123" y="557" on="1"/>
        <pt x="123" y="703" on="0"/>
        <pt x="210" y="920" on="0"/>
        <pt x="390" y="1064" on="0"/>
        <pt x="667" y="1135" on="0"/>
        <pt x="857" y="1135" on="1"/>
        <pt x="1047" y="1135" on="0"/>
        <pt x="1324" y="1064" on="0"/>
        <pt x="1505" y="920" on="0"/>
        <pt x="1592" y="703" on="0"/>
      </contour>
      <contour>
        <pt x="208" y="557" on="1"/>
        <pt x="208" y="417" on="0"/>
        <pt x="288" y="223" on="0"/>
        <pt x="449" y="100" on="0"/>
        <pt x="693" y="45" on="0"/>
        <pt x="857" y="45" on="1"/>
        <pt x="912" y="45" on="0"/>
        <pt x="963" y="48" on="1"/>
        <pt x="951" y="109" on="1"/>
        <pt x="949" y="120" on="0"/>
        <pt x="945" y="141" on="0"/>
        <pt x="945" y="150" on="1"/>
        <pt x="945" y="164" on="0"/>
        <pt x="960" y="187" on="0"/>
        <pt x="981" y="187" on="1"/>
        <pt x="1001" y="187" on="0"/>
        <pt x="1016" y="150" on="0"/>
        <pt x="1021" y="126" on="1"/>
        <pt x="1035" y="54" on="1"/>
        <pt x="1154" y="68" on="0"/>
        <pt x="1331" y="139" on="0"/>
        <pt x="1449" y="262" on="0"/>
        <pt x="1507" y="438" on="0"/>
        <pt x="1507" y="557" on="1"/>
        <pt x="1507" y="696" on="0"/>
        <pt x="1427" y="891" on="0"/>
        <pt x="1265" y="1014" on="0"/>
        <pt x="1021" y="1069" on="0"/>
        <pt x="857" y="1069" on="1"/>
        <pt x="693" y="1069" on="0"/>
        <pt x="449" y="1014" on="0"/>
        <pt x="288" y="891" on="0"/>
        <pt x="208" y="696" on="0"/>
      </contour>
    </TTGlyph>
    <TTGlyph name="R" xMin="161" yMin="0" xMax="1141" yMax="1114">
      <contour>
        <pt x="1141" y="768" on="1"/>
        <pt x="1141" y="707" on="0"/>
        <pt x="1105" y="615" on="0"/>
        <pt x="1044" y="547" on="0"/>
        <pt x="961" y="501" on="0"/>
        <pt x="867" y="472" on="0"/>
        <pt x="766" y="458" on="0"/>
        <pt x="718" y="456" on="1"/>
        <pt x="1086" y="69" on="1"/>
        <pt x="1095" y="60" on="0"/>
        <pt x="1102" y="41" on="0"/>
        <pt x="1103" y="33" on="1"/>
        <pt x="1103" y="19" on="0"/>
        <pt x="1084" y="0" on="0"/>
        <pt x="1069" y="0" on="1"/>
        <pt x="1058" y="0" on="0"/>
        <pt x="1033" y="10" on="0"/>
        <pt x="1021" y="24" on="1"/>
        <pt x="620" y="452" on="1"/>
        <pt x="246" y="452" on="1"/>
        <pt x="246" y="76" on="1"/>
        <pt x="246" y="61" on="0"/>
        <pt x="243" y="34" on="0"/>
        <pt x="235" y="13" on="0"/>
        <pt x="220" y="0" on="0"/>
        <pt x="208" y="0" on="1"/>
        <pt x="179" y="0" on="0"/>
        <pt x="161" y="45" on="0"/>
        <pt x="161" y="76" on="1"/>
        <pt x="161" y="1077" on="1"/>
        <pt x="161" y="1092" on="0"/>
        <pt x="162" y="1107" on="0"/>
        <pt x="168" y="1113" on="0"/>
        <pt x="183" y="1114" on="0"/>
        <pt x="198" y="1114" on="1"/>
        <pt x="488" y="1114" on="1"/>
        <pt x="581" y="1114" on="0"/>
        <pt x="750" y="1110" on="0"/>
        <pt x="895" y="1089" on="0"/>
        <pt x="1013" y="1046" on="0"/>
        <pt x="1096" y="969" on="0"/>
        <pt x="1141" y="853" on="0"/>
      </contour>
      <contour>
        <pt x="1056" y="768" on="1"/>
        <pt x="1056" y="867" on="0"/>
        <pt x="983" y="980" on="0"/>
        <pt x="839" y="1035" on="0"/>
        <pt x="627" y="1048" on="0"/>
        <pt x="488" y="1048" on="1"/>
        <pt x="246" y="1048" on="1"/>
        <pt x="246" y="518" on="1"/>
        <pt x="621" y="518" on="1"/>
        <pt x="708" y="518" on="0"/>
        <pt x="866" y="534" on="0"/>
        <pt x="985" y="587" on="0"/>
        <pt x="1056" y="685" on="0"/>
      </contour>
    </TTGlyph>
    <TTGlyph name="Racute" xMin="161" yMin="0" xMax="1141" yMax="1627">
      <component glyphName="R" x="0" y="0" flags="0x204"/>
      <component glyphName="acute" x="461" y="339" flags="0x4"/>
    </TTGlyph>
    <TTGlyph name="Rcaron" xMin="161" yMin="0" xMax="1141" yMax="1587">
      <component glyphName="R" x="0" y="0" flags="0x204"/>
      <component glyphName="caron" x="371" y="339" flags="0x4"/>
    </TTGlyph>
    <TTGlyph name="Rcommaaccent" xMin="161" yMin="-323" xMax="1141" yMax="1114">
      <component glyphName="R" x="0" y="0" flags="0x204"/>
      <component glyphName="comma" x="494" y="-199" flags="0x4"/>
    </TTGlyph>
    <TTGlyph name="S" xMin="110" yMin="-20" xMax="1427" yMax="1135">
      <contour>
        <pt x="1427" y="311" on="1"/>
        <pt x="1427" y="247" on="0"/>
        <pt x="1381" y="148" on="0"/>
        <pt x="1299" y="75" on="0"/>
        <pt x="1186" y="24" on="0"/>
        <pt x="1054" y="-7" on="0"/>
        <pt x="905" y="-20" on="0"/>
        <pt x="829" y="-20" on="1"/>
        <pt x="722" y="-20" on="0"/>
        <pt x="510" y="2" on="0"/>
        <pt x="326" y="35" on="0"/>
        <pt x="185" y="73" on="0"/>
        <pt x="149" y="90" on="1"/>
        <pt x="135" y="97" on="0"/>
        <pt x="122" y="118" on="0"/>
        <pt x="122" y="129" on="1"/>
        <pt x="122" y="141" on="0"/>
        <pt x="135" y="158" on="0"/>
        <pt x="148" y="158" on="1"/>
        <pt x="154" y="158" on="0"/>
        <pt x="162" y="155" on="1"/>
        <pt x="201" y="139" on="0"/>
        <pt x="347" y="101" on="0"/>
        <pt x="532" y="68" on="0"/>
        <pt x="741" y="46" on="0"/>
        <pt x="844" y="46" on="1"/>
        <pt x="944" y="46" on="0"/>
        <pt x="1124" y="72" on="0"/>
        <pt x="1261" y="134" on="0"/>
        <pt x="1342" y="236" on="0"/>
        <pt x="1342" y="311" on="1"/>
        <pt x="1342" y="374" on="0"/>
        <pt x="1273" y="455" on="0"/>
        <pt x="1155" y="504" on="0"/>
        <pt x="997" y="529" on="0"/>
        <pt x="820" y="542" on="0"/>
        <pt x="632" y="549" on="0"/>
        <pt x="455" y="565" on="0"/>
        <pt x="297" y="595" on="0"/>
        <pt x="179" y="653" on="0"/>
        <pt x="110" y="745" on="0"/>
        <pt x="110" y="815" on="1"/>
        <pt x="110" y="879" on="0"/>
        <pt x="158" y="977" on="0"/>
        <pt x="242" y="1048" on="0"/>
        <pt x="357" y="1095" on="0"/>
        <pt x="492" y="1123" on="0"/>
        <pt x="641" y="1135" on="0"/>
        <pt x="716" y="1135" on="1"/>
        <pt x="809" y="1135" on="0"/>
        <pt x="989" y="1118" on="0"/>
        <pt x="1147" y="1089" on="0"/>
        <pt x="1273" y="1054" on="0"/>
        <pt x="1311" y="1036" on="1"/>
        <pt x="1319" y="1032" on="0"/>
        <pt x="1327" y="1017" on="0"/>
        <pt x="1327" y="1009" on="1"/>
        <pt x="1327" y="995" on="0"/>
        <pt x="1308" y="971" on="0"/>
        <pt x="1291" y="971" on="1"/>
        <pt x="1281" y="971" on="0"/>
        <pt x="1274" y="975" on="1"/>
        <pt x="1221" y="997" on="0"/>
        <pt x="1092" y="1032" on="0"/>
        <pt x="948" y="1056" on="0"/>
        <pt x="795" y="1069" on="0"/>
        <pt x="720" y="1069" on="1"/>
        <pt x="616" y="1069" on="0"/>
        <pt x="426" y="1045" on="0"/>
        <pt x="281" y="988" on="0"/>
        <pt x="195" y="893" on="0"/>
        <pt x="195" y="821" on="1"/>
        <pt x="195" y="766" on="0"/>
        <pt x="264" y="697" on="0"/>
        <pt x="382" y="655" on="0"/>
        <pt x="540" y="634" on="0"/>
        <pt x="717" y="622" on="0"/>
        <pt x="905" y="613" on="0"/>
        <pt x="1082" y="592" on="0"/>
        <pt x="1240" y="555" on="0"/>
        <pt x="1358" y="489" on="0"/>
        <pt x="1427" y="386" on="0"/>
      </contour>
    </TTGlyph>
    <TTGlyph name="Sacute" xMin="110" yMin="-20" xMax="1427" yMax="1627">
      <component glyphName="S" x="0" y="0" flags="0x204"/>
      <component glyphName="acute" x="579" y="339" flags="0x4"/>
    </TTGlyph>
    <TTGlyph name="Scaron" xMin="110" yMin="-20" xMax="1427" yMax="1587">
      <component glyphName="S" x="0" y="0" flags="0x204"/>
      <component glyphName="caron" x="489" y="339" flags="0x4"/>
    </TTGlyph>
    <TTGlyph name="Scommaaccent" xMin="110" yMin="-323" xMax="1427" yMax="1135">
      <component glyphName="S" x="0" y="0" flags="0x204"/>
      <component glyphName="comma" x="612" y="-199" flags="0x4"/>
    </TTGlyph>
    <TTGlyph name="T" xMin="18" yMin="0" xMax="1325" yMax="1114">
      <contour>
        <pt x="1325" y="1077" on="1"/>
        <pt x="1325" y="1057" on="0"/>
        <pt x="1297" y="1048" on="0"/>
        <pt x="1275" y="1048" on="1"/>
        <pt x="716" y="1048" on="1"/>
        <pt x="716" y="74" on="1"/>
        <pt x="716" y="59" on="0"/>
        <pt x="714" y="33" on="0"/>
        <pt x="705" y="12" on="0"/>
        <pt x="689" y="0" on="0"/>
        <pt x="674" y="0" on="1"/>
        <pt x="648" y="0" on="0"/>
        <pt x="631" y="45" on="0"/>
        <pt x="631" y="74" on="1"/>
        <pt x="631" y="1048" on="1"/>
        <pt x="71" y="1048" on="1"/>
        <pt x="49" y="1048" on="0"/>
        <pt x="18" y="1057" on="0"/>
        <pt x="18" y="1077" on="1"/>
        <pt x="18" y="1092" on="0"/>
        <pt x="32" y="1107" on="0"/>
        <pt x="53" y="1113" on="0"/>
        <pt x="80" y="1114" on="0"/>
        <pt x="92" y="1114" on="1"/>
        <pt x="1253" y="1114" on="1"/>
        <pt x="1268" y="1114" on="0"/>
        <pt x="1294" y="1113" on="0"/>
        <pt x="1313" y="1107" on="0"/>
        <pt x="1325" y="1092" on="0"/>
      </contour>
    </TTGlyph>
    <TTGlyph name="Tcommaaccent" xMin="18" yMin="-323" xMax="1325" yMax="1114">
      <component glyphName="T" x="0" y="0" flags="0x204"/>
      <component glyphName="comma" x="515" y="-199" flags="0x4"/>
    </TTGlyph>
    <TTGlyph name="Thorn" xMin="160" yMin="0" xMax="989" yMax="1110">
      <contour>
        <pt x="245" y="264" on="1"/>
        <pt x="245" y="76" on="1"/>
        <pt x="245" y="47" on="0"/>
        <pt x="230" y="0" on="0"/>
        <pt x="206" y="0" on="1"/>
        <pt x="177" y="0" on="0"/>
        <pt x="160" y="45" on="0"/>
        <pt x="160" y="76" on="1"/>
        <pt x="160" y="1034" on="1"/>
        <pt x="160" y="1065" on="0"/>
        <pt x="177" y="1110" on="0"/>
        <pt x="206" y="1110" on="1"/>
        <pt x="230" y="1110" on="0"/>
        <pt x="245" y="1063" on="0"/>
        <pt x="245" y="1034" on="1"/>
        <pt x="245" y="894" on="1"/>
        <pt x="493" y="894" on="1"/>
        <pt x="646" y="894" on="0"/>
        <pt x="839" y="839" on="0"/>
        <pt x="949" y="749" on="0"/>
        <pt x="989" y="635" on="0"/>
        <pt x="989" y="575" on="1"/>
        <pt x="989" y="516" on="0"/>
        <pt x="950" y="405" on="0"/>
        <pt x="842" y="317" on="0"/>
        <pt x="648" y="264" on="0"/>
        <pt x="493" y="264" on="1"/>
      </contour>
      <contour>
        <pt x="245" y="330" on="1"/>
        <pt x="493" y="330" on="1"/>
        <pt x="628" y="330" on="0"/>
        <pt x="792" y="372" on="0"/>
        <pt x="880" y="441" on="0"/>
        <pt x="909" y="529" on="0"/>
        <pt x="909" y="576" on="1"/>
        <pt x="909" y="623" on="0"/>
        <pt x="879" y="714" on="0"/>
        <pt x="789" y="785" on="0"/>
        <pt x="626" y="828" on="0"/>
        <pt x="493" y="828" on="1"/>
        <pt x="245" y="828" on="1"/>
      </contour>
    </TTGlyph>
    <TTGlyph name="U" xMin="141" yMin="-21" xMax="1445" yMax="1114">
      <contour>
        <pt x="794" y="45" on="1"/>
        <pt x="957" y="45" on="0"/>
        <pt x="1175" y="108" on="0"/>
        <pt x="1306" y="236" on="0"/>
        <pt x="1360" y="429" on="0"/>
        <pt x="1360" y="560" on="1"/>
        <pt x="1360" y="1044" on="1"/>
        <pt x="1360" y="1070" on="0"/>
        <pt x="1376" y="1114" on="0"/>
        <pt x="1401" y="1114" on="1"/>
        <pt x="1416" y="1114" on="0"/>
        <pt x="1433" y="1102" on="0"/>
        <pt x="1442" y="1082" on="0"/>
        <pt x="1445" y="1057" on="0"/>
        <pt x="1445" y="1044" on="1"/>
        <pt x="1445" y="560" on="1"/>
        <pt x="1445" y="404" on="0"/>
        <pt x="1364" y="183" on="0"/>
        <pt x="1202" y="43" on="0"/>
        <pt x="957" y="-21" on="0"/>
        <pt x="794" y="-21" on="1"/>
        <pt x="630" y="-21" on="0"/>
        <pt x="386" y="43" on="0"/>
        <pt x="222" y="183" on="0"/>
        <pt x="141" y="404" on="0"/>
        <pt x="141" y="560" on="1"/>
        <pt x="141" y="1044" on="1"/>
        <pt x="141" y="1057" on="0"/>
        <pt x="144" y="1082" on="0"/>
        <pt x="154" y="1102" on="0"/>
        <pt x="171" y="1114" on="0"/>
        <pt x="186" y="1114" on="1"/>
        <pt x="211" y="1114" on="0"/>
        <pt x="226" y="1070" on="0"/>
        <pt x="226" y="1044" on="1"/>
        <pt x="226" y="560" on="1"/>
        <pt x="226" y="429" on="0"/>
        <pt x="281" y="236" on="0"/>
        <pt x="412" y="108" on="0"/>
        <pt x="630" y="45" on="0"/>
      </contour>
    </TTGlyph>
    <TTGlyph name="Uacute" xMin="141" yMin="-21" xMax="1445" yMax="1627">
      <component glyphName="U" x="0" y="0" flags="0x4"/>
      <component glyphName="acute" x="605" y="339" flags="0x4"/>
    </TTGlyph>
    <TTGlyph name="Ucircumflex" xMin="141" yMin="-21" xMax="1445" yMax="1504">
      <component glyphName="U" x="0" y="0" flags="0x4"/>
      <component glyphName="circumflex" x="553" y="339" flags="0x4"/>
    </TTGlyph>
    <TTGlyph name="Udieresis" xMin="141" yMin="-21" xMax="1445" yMax="1403">
      <component glyphName="U" x="0" y="0" flags="0x204"/>
      <component glyphName="dieresis" x="419" y="348" flags="0x4"/>
    </TTGlyph>
    <TTGlyph name="Ugrave" xMin="141" yMin="-21" xMax="1445" yMax="1639">
      <component glyphName="U" x="0" y="0" flags="0x4"/>
      <component glyphName="grave" x="608" y="339" flags="0x4"/>
    </TTGlyph>
    <TTGlyph name="V" xMin="58" yMin="0" xMax="1369" yMax="1113">
      <contour>
        <pt x="714" y="90" on="1"/>
        <pt x="1285" y="1064" on="1"/>
        <pt x="1296" y="1083" on="0"/>
        <pt x="1320" y="1111" on="0"/>
        <pt x="1334" y="1113" on="1"/>
        <pt x="1353" y="1113" on="0"/>
        <pt x="1369" y="1089" on="0"/>
        <pt x="1369" y="1078" on="1"/>
        <pt x="1369" y="1067" on="0"/>
        <pt x="1356" y="1042" on="0"/>
        <pt x="1348" y="1029" on="1"/>
        <pt x="765" y="35" on="1"/>
        <pt x="754" y="17" on="0"/>
        <pt x="727" y="0" on="0"/>
        <pt x="713" y="0" on="1"/>
        <pt x="683" y="0" on="0"/>
        <pt x="662" y="35" on="1"/>
        <pt x="77" y="1029" on="1"/>
        <pt x="69" y="1043" on="0"/>
        <pt x="58" y="1068" on="0"/>
        <pt x="58" y="1080" on="1"/>
        <pt x="58" y="1088" on="0"/>
        <pt x="74" y="1113" on="0"/>
        <pt x="91" y="1113" on="1"/>
        <pt x="108" y="1111" on="0"/>
        <pt x="131" y="1083" on="0"/>
        <pt x="142" y="1064" on="1"/>
      </contour>
    </TTGlyph>
    <TTGlyph name="W" xMin="101" yMin="0" xMax="1690" yMax="1114">
      <contour>
        <pt x="1276" y="125" on="1"/>
        <pt x="1610" y="1059" on="1"/>
        <pt x="1618" y="1079" on="0"/>
        <pt x="1638" y="1114" on="0"/>
        <pt x="1655" y="1114" on="1"/>
        <pt x="1675" y="1114" on="0"/>
        <pt x="1690" y="1092" on="0"/>
        <pt x="1690" y="1081" on="1"/>
        <pt x="1690" y="1070" on="0"/>
        <pt x="1683" y="1046" on="0"/>
        <pt x="1678" y="1032" on="1"/>
        <pt x="1325" y="53" on="1"/>
        <pt x="1314" y="30" on="0"/>
        <pt x="1296" y="0" on="0"/>
        <pt x="1276" y="0" on="1"/>
        <pt x="1256" y="0" on="0"/>
        <pt x="1237" y="30" on="0"/>
        <pt x="1229" y="53" on="1"/>
        <pt x="895" y="981" on="1"/>
        <pt x="563" y="53" on="1"/>
        <pt x="555" y="30" on="0"/>
        <pt x="533" y="0" on="0"/>
        <pt x="514" y="0" on="1"/>
        <pt x="494" y="0" on="0"/>
        <pt x="475" y="30" on="0"/>
        <pt x="467" y="53" on="1"/>
        <pt x="115" y="1032" on="1"/>
        <pt x="110" y="1046" on="0"/>
        <pt x="101" y="1070" on="0"/>
        <pt x="101" y="1081" on="1"/>
        <pt x="101" y="1092" on="0"/>
        <pt x="117" y="1114" on="0"/>
        <pt x="137" y="1114" on="1"/>
        <pt x="156" y="1114" on="0"/>
        <pt x="175" y="1079" on="0"/>
        <pt x="183" y="1059" on="1"/>
        <pt x="514" y="125" on="1"/>
        <pt x="848" y="1059" on="1"/>
        <pt x="856" y="1079" on="0"/>
        <pt x="875" y="1114" on="0"/>
        <pt x="893" y="1114" on="1"/>
        <pt x="916" y="1114" on="0"/>
        <pt x="935" y="1084" on="0"/>
        <pt x="944" y="1059" on="1"/>
      </contour>
    </TTGlyph>
    <TTGlyph name="X" xMin="133" yMin="0" xMax="1300" yMax="1113">
      <contour>
        <pt x="717" y="596" on="1"/>
        <pt x="1213" y="1093" on="1"/>
        <pt x="1233" y="1113" on="0"/>
        <pt x="1253" y="1113" on="1"/>
        <pt x="1267" y="1113" on="0"/>
        <pt x="1284" y="1093" on="0"/>
        <pt x="1284" y="1079" on="1"/>
        <pt x="1284" y="1071" on="0"/>
        <pt x="1276" y="1051" on="0"/>
        <pt x="1267" y="1042" on="1"/>
        <pt x="769" y="547" on="1"/>
        <pt x="1276" y="75" on="1"/>
        <pt x="1289" y="63" on="0"/>
        <pt x="1300" y="38" on="0"/>
        <pt x="1300" y="28" on="1"/>
        <pt x="1300" y="16" on="0"/>
        <pt x="1285" y="0" on="0"/>
        <pt x="1273" y="0" on="1"/>
        <pt x="1251" y="0" on="0"/>
        <pt x="1226" y="24" on="1"/>
        <pt x="717" y="498" on="1"/>
        <pt x="208" y="23" on="1"/>
        <pt x="193" y="9" on="0"/>
        <pt x="171" y="0" on="0"/>
        <pt x="161" y="0" on="1"/>
        <pt x="148" y="0" on="0"/>
        <pt x="133" y="15" on="0"/>
        <pt x="133" y="27" on="1"/>
        <pt x="133" y="50" on="0"/>
        <pt x="158" y="74" on="1"/>
        <pt x="665" y="547" on="1"/>
        <pt x="167" y="1042" on="1"/>
        <pt x="149" y="1060" on="0"/>
        <pt x="149" y="1079" on="1"/>
        <pt x="149" y="1093" on="0"/>
        <pt x="167" y="1113" on="0"/>
        <pt x="181" y="1113" on="1"/>
        <pt x="201" y="1113" on="0"/>
        <pt x="221" y="1093" on="1"/>
      </contour>
    </TTGlyph>
    <TTGlyph name="Y" xMin="50" yMin="0" xMax="1115" yMax="1114">
      <contour>
        <pt x="583" y="535" on="1"/>
        <pt x="1040" y="1089" on="1"/>
        <pt x="1059" y="1113" on="0"/>
        <pt x="1082" y="1113" on="1"/>
        <pt x="1115" y="1113" on="0"/>
        <pt x="1115" y="1077" on="1"/>
        <pt x="1115" y="1060" on="0"/>
        <pt x="1098" y="1040" on="1"/>
        <pt x="626" y="471" on="1"/>
        <pt x="626" y="69" on="1"/>
        <pt x="626" y="40" on="0"/>
        <pt x="611" y="0" on="0"/>
        <pt x="586" y="0" on="1"/>
        <pt x="571" y="0" on="0"/>
        <pt x="554" y="11" on="0"/>
        <pt x="544" y="30" on="0"/>
        <pt x="541" y="54" on="0"/>
        <pt x="541" y="67" on="1"/>
        <pt x="541" y="473" on="1"/>
        <pt x="67" y="1040" on="1"/>
        <pt x="57" y="1051" on="0"/>
        <pt x="50" y="1067" on="0"/>
        <pt x="50" y="1080" on="1"/>
        <pt x="50" y="1095" on="0"/>
        <pt x="69" y="1114" on="0"/>
        <pt x="83" y="1114" on="1"/>
        <pt x="105" y="1114" on="0"/>
        <pt x="126" y="1089" on="1"/>
      </contour>
    </TTGlyph>
    <TTGlyph name="Yacute" xMin="50" yMin="0" xMax="1115" yMax="1627">
      <component glyphName="Y" x="0" y="0" flags="0x204"/>
      <component glyphName="acute" x="393" y="339" flags="0x4"/>
    </TTGlyph>
    <TTGlyph name="Z" xMin="47" yMin="0" xMax="1290" yMax="1114">
      <contour>
        <pt x="172" y="66" on="1"/>
        <pt x="1212" y="66" on="1"/>
        <pt x="1235" y="66" on="0"/>
        <pt x="1259" y="45" on="0"/>
        <pt x="1259" y="33" on="1"/>
        <pt x="1259" y="20" on="0"/>
        <pt x="1235" y="0" on="0"/>
        <pt x="1212" y="0" on="1"/>
        <pt x="120" y="0" on="1"/>
        <pt x="83" y="0" on="0"/>
        <pt x="47" y="9" on="0"/>
        <pt x="47" y="36" on="1"/>
        <pt x="47" y="52" on="0"/>
        <pt x="63" y="74" on="0"/>
        <pt x="79" y="88" on="1"/>
        <pt x="1163" y="1048" on="1"/>
        <pt x="120" y="1048" on="1"/>
        <pt x="97" y="1048" on="0"/>
        <pt x="75" y="1068" on="0"/>
        <pt x="75" y="1081" on="1"/>
        <pt x="75" y="1093" on="0"/>
        <pt x="97" y="1114" on="0"/>
        <pt x="120" y="1114" on="1"/>
        <pt x="1208" y="1114" on="1"/>
        <pt x="1243" y="1114" on="0"/>
        <pt x="1290" y="1104" on="0"/>
        <pt x="1290" y="1079" on="1"/>
        <pt x="1290" y="1065" on="0"/>
        <pt x="1268" y="1038" on="0"/>
        <pt x="1257" y="1026" on="1"/>
      </contour>
    </TTGlyph>
    <TTGlyph name="Zacute" xMin="47" yMin="0" xMax="1290" yMax="1627">
      <component glyphName="Z" x="0" y="0" flags="0x204"/>
      <component glyphName="acute" x="479" y="339" flags="0x4"/>
    </TTGlyph>
    <TTGlyph name="Zcaron" xMin="47" yMin="0" xMax="1290" yMax="1587">
      <component glyphName="Z" x="0" y="0" flags="0x204"/>
      <component glyphName="caron" x="389" y="339" flags="0x4"/>
    </TTGlyph>
    <TTGlyph name="Zdotaccent" xMin="47" yMin="0" xMax="1290" yMax="1453">
      <component glyphName="Z" x="0" y="0" flags="0x204"/>
      <component glyphName="dotaccent" x="505" y="339" flags="0x4"/>
    </TTGlyph>
    <TTGlyph name="a" xMin="134" yMin="-10" xMax="1044" yMax="786">
      <contour>
        <pt x="214" y="224" on="1"/>
        <pt x="214" y="176" on="0"/>
        <pt x="263" y="110" on="0"/>
        <pt x="351" y="68" on="0"/>
        <pt x="472" y="49" on="0"/>
        <pt x="544" y="49" on="1"/>
        <pt x="632" y="49" on="0"/>
        <pt x="768" y="74" on="0"/>
        <pt x="870" y="112" on="0"/>
        <pt x="940" y="157" on="0"/>
        <pt x="963" y="178" on="1"/>
        <pt x="963" y="379" on="1"/>
        <pt x="863" y="393" on="0"/>
        <pt x="649" y="418" on="0"/>
        <pt x="540" y="418" on="1"/>
        <pt x="463" y="418" on="0"/>
        <pt x="342" y="400" on="0"/>
        <pt x="258" y="356" on="0"/>
        <pt x="214" y="281" on="0"/>
      </contour>
      <contour>
        <pt x="639" y="727" on="1"/>
        <pt x="543" y="727" on="0"/>
        <pt x="407" y="717" on="0"/>
        <pt x="310" y="701" on="0"/>
        <pt x="244" y="683" on="0"/>
        <pt x="219" y="674" on="1"/>
        <pt x="207" y="674" on="0"/>
        <pt x="187" y="698" on="0"/>
        <pt x="187" y="712" on="1"/>
        <pt x="187" y="725" on="0"/>
        <pt x="199" y="731" on="1"/>
        <pt x="207" y="735" on="0"/>
        <pt x="266" y="753" on="0"/>
        <pt x="373" y="772" on="0"/>
        <pt x="532" y="786" on="0"/>
        <pt x="640" y="786" on="1"/>
        <pt x="691" y="786" on="0"/>
        <pt x="791" y="773" on="0"/>
        <pt x="880" y="739" on="0"/>
        <pt x="957" y="679" on="0"/>
        <pt x="1012" y="584" on="0"/>
        <pt x="1044" y="449" on="0"/>
        <pt x="1044" y="358" on="1"/>
        <pt x="1044" y="70" on="1"/>
        <pt x="1044" y="58" on="0"/>
        <pt x="1042" y="34" on="0"/>
        <pt x="1033" y="13" on="0"/>
        <pt x="1017" y="0" on="0"/>
        <pt x="1003" y="0" on="1"/>
        <pt x="980" y="0" on="0"/>
        <pt x="963" y="42" on="0"/>
        <pt x="963" y="74" on="1"/>
        <pt x="963" y="143" on="1"/>
        <pt x="943" y="118" on="0"/>
        <pt x="879" y="64" on="0"/>
        <pt x="781" y="19" on="0"/>
        <pt x="645" y="-10" on="0"/>
        <pt x="552" y="-10" on="1"/>
        <pt x="465" y="-10" on="0"/>
        <pt x="312" y="16" on="0"/>
        <pt x="199" y="72" on="0"/>
        <pt x="134" y="161" on="0"/>
        <pt x="134" y="224" on="1"/>
        <pt x="134" y="297" on="0"/>
        <pt x="195" y="394" on="0"/>
        <pt x="303" y="453" on="0"/>
        <pt x="448" y="477" on="0"/>
        <pt x="532" y="477" on="1"/>
        <pt x="595" y="477" on="0"/>
        <pt x="722" y="468" on="0"/>
        <pt x="836" y="451" on="0"/>
        <pt x="931" y="426" on="0"/>
        <pt x="963" y="409" on="1"/>
        <pt x="963" y="511" on="0"/>
        <pt x="909" y="635" on="0"/>
        <pt x="819" y="704" on="0"/>
        <pt x="702" y="727" on="0"/>
      </contour>
    </TTGlyph>
    <TTGlyph name="aacute" xMin="134" yMin="-10" xMax="1044" yMax="1288">
      <component glyphName="a" x="0" y="0" flags="0x204"/>
      <component glyphName="acute" x="400" y="0" flags="0x4"/>
    </TTGlyph>
    <TTGlyph name="abreve" xMin="134" yMin="-10" xMax="1044" yMax="1175">
      <component glyphName="a" x="0" y="0" flags="0x204"/>
      <component glyphName="breve" x="230" y="0" flags="0x4"/>
    </TTGlyph>
    <TTGlyph name="acircumflex" xMin="134" yMin="-10" xMax="1044" yMax="1165">
      <component glyphName="a" x="0" y="0" flags="0x204"/>
      <component glyphName="circumflex" x="348" y="0" flags="0x4"/>
    </TTGlyph>
    <TTGlyph name="acute" xMin="15" yMin="957" xMax="364" yMax="1288">
      <contour>
        <pt x="275" y="1277" on="1"/>
        <pt x="286" y="1288" on="0"/>
        <pt x="300" y="1288" on="1"/>
        <pt x="311" y="1288" on="0"/>
        <pt x="334" y="1277" on="0"/>
        <pt x="352" y="1260" on="0"/>
        <pt x="364" y="1238" on="0"/>
        <pt x="364" y="1227" on="1"/>
        <pt x="364" y="1211" on="0"/>
        <pt x="349" y="1199" on="1"/>
        <pt x="57" y="962" on="1"/>
        <pt x="49" y="957" on="0"/>
        <pt x="42" y="957" on="1"/>
        <pt x="31" y="957" on="0"/>
        <pt x="15" y="972" on="0"/>
        <pt x="15" y="983" on="1"/>
        <pt x="15" y="993" on="0"/>
        <pt x="23" y="1001" on="1"/>
      </contour>
    </TTGlyph>
    <TTGlyph name="adieresis" xMin="134" yMin="-10" xMax="1044" yMax="1064">
      <component glyphName="a" x="0" y="0" flags="0x204"/>
      <component glyphName="dieresis" x="214" y="9" flags="0x4"/>
    </TTGlyph>
    <TTGlyph name="ae" xMin="50" yMin="-10" xMax="1716" yMax="786">
      <contour>
        <pt x="130" y="219" on="1"/>
        <pt x="130" y="171" on="0"/>
        <pt x="180" y="106" on="0"/>
        <pt x="269" y="66" on="0"/>
        <pt x="391" y="49" on="0"/>
        <pt x="463" y="49" on="1"/>
        <pt x="550" y="49" on="0"/>
        <pt x="685" y="65" on="0"/>
        <pt x="789" y="90" on="0"/>
        <pt x="864" y="122" on="0"/>
        <pt x="890" y="137" on="1"/>
        <pt x="890" y="338" on="1"/>
        <pt x="863" y="352" on="0"/>
        <pt x="772" y="380" on="0"/>
        <pt x="659" y="403" on="0"/>
        <pt x="531" y="418" on="0"/>
        <pt x="468" y="418" on="1"/>
        <pt x="391" y="418" on="0"/>
        <pt x="266" y="399" on="0"/>
        <pt x="178" y="352" on="0"/>
        <pt x="130" y="276" on="0"/>
      </contour>
      <contour>
        <pt x="921" y="681" on="1"/>
        <pt x="984" y="739" on="0"/>
        <pt x="1180" y="786" on="0"/>
        <pt x="1301" y="786" on="1"/>
        <pt x="1509" y="786" on="0"/>
        <pt x="1716" y="627" on="0"/>
        <pt x="1716" y="479" on="1"/>
        <pt x="1716" y="465" on="0"/>
        <pt x="1708" y="431" on="0"/>
        <pt x="1695" y="400" on="0"/>
        <pt x="1679" y="379" on="0"/>
        <pt x="1672" y="379" on="1"/>
        <pt x="951" y="379" on="1"/>
        <pt x="951" y="137" on="1"/>
        <pt x="972" y="123" on="0"/>
        <pt x="1038" y="92" on="0"/>
        <pt x="1127" y="66" on="0"/>
        <pt x="1238" y="49" on="0"/>
        <pt x="1303" y="49" on="1"/>
        <pt x="1351" y="49" on="0"/>
        <pt x="1450" y="63" on="0"/>
        <pt x="1540" y="84" on="0"/>
        <pt x="1616" y="110" on="0"/>
        <pt x="1640" y="122" on="1"/>
        <pt x="1655" y="127" on="0"/>
        <pt x="1661" y="127" on="1"/>
        <pt x="1674" y="127" on="0"/>
        <pt x="1689" y="112" on="0"/>
        <pt x="1689" y="101" on="1"/>
        <pt x="1689" y="93" on="0"/>
        <pt x="1679" y="76" on="0"/>
        <pt x="1668" y="70" on="1"/>
        <pt x="1580" y="25" on="0"/>
        <pt x="1392" y="-10" on="0"/>
        <pt x="1304" y="-10" on="1"/>
        <pt x="1167" y="-10" on="0"/>
        <pt x="977" y="48" on="0"/>
        <pt x="920" y="100" on="1"/>
        <pt x="890" y="72" on="0"/>
        <pt x="796" y="31" on="0"/>
        <pt x="677" y="4" on="0"/>
        <pt x="541" y="-10" on="0"/>
        <pt x="471" y="-10" on="1"/>
        <pt x="384" y="-10" on="0"/>
        <pt x="230" y="14" on="0"/>
        <pt x="116" y="69" on="0"/>
        <pt x="50" y="156" on="0"/>
        <pt x="50" y="219" on="1"/>
        <pt x="50" y="292" on="0"/>
        <pt x="115" y="391" on="0"/>
        <pt x="227" y="451" on="0"/>
        <pt x="376" y="477" on="0"/>
        <pt x="460" y="477" on="1"/>
        <pt x="524" y="477" on="0"/>
        <pt x="651" y="462" on="0"/>
        <pt x="764" y="438" on="0"/>
        <pt x="858" y="406" on="0"/>
        <pt x="890" y="389" on="1"/>
        <pt x="889" y="647" on="1"/>
        <pt x="871" y="660" on="0"/>
        <pt x="799" y="688" on="0"/>
        <pt x="694" y="712" on="0"/>
        <pt x="555" y="727" on="0"/>
        <pt x="470" y="727" on="1"/>
        <pt x="422" y="727" on="0"/>
        <pt x="325" y="716" on="0"/>
        <pt x="241" y="691" on="0"/>
        <pt x="175" y="651" on="0"/>
        <pt x="157" y="621" on="1"/>
        <pt x="142" y="596" on="0"/>
        <pt x="122" y="596" on="1"/>
        <pt x="113" y="596" on="0"/>
        <pt x="98" y="610" on="0"/>
        <pt x="98" y="623" on="1"/>
        <pt x="98" y="629" on="0"/>
        <pt x="103" y="641" on="0"/>
        <pt x="106" y="649" on="1"/>
        <pt x="124" y="684" on="0"/>
        <pt x="200" y="736" on="0"/>
        <pt x="301" y="770" on="0"/>
        <pt x="421" y="786" on="0"/>
        <pt x="483" y="786" on="1"/>
        <pt x="536" y="786" on="0"/>
        <pt x="659" y="780" on="0"/>
        <pt x="779" y="759" on="0"/>
        <pt x="885" y="717" on="0"/>
      </contour>
      <contour>
        <pt x="1650" y="431" on="1"/>
        <pt x="1653" y="452" on="1"/>
        <pt x="1655" y="460" on="0"/>
        <pt x="1657" y="479" on="0"/>
        <pt x="1657" y="485" on="1"/>
        <pt x="1657" y="535" on="0"/>
        <pt x="1620" y="623" on="0"/>
        <pt x="1536" y="689" on="0"/>
        <pt x="1400" y="727" on="0"/>
        <pt x="1301" y="727" on="1"/>
        <pt x="1231" y="727" on="0"/>
        <pt x="1119" y="711" on="0"/>
        <pt x="1033" y="688" on="0"/>
        <pt x="971" y="660" on="0"/>
        <pt x="951" y="648" on="1"/>
        <pt x="951" y="431" on="1"/>
      </contour>
    </TTGlyph>
    <TTGlyph name="agrave" xMin="134" yMin="-10" xMax="1044" yMax="1300">
      <component glyphName="a" x="0" y="0" flags="0x204"/>
      <component glyphName="grave" x="403" y="0" flags="0x4"/>
    </TTGlyph>
    <TTGlyph name="amacron" xMin="134" yMin="-10" xMax="1044" yMax="786">
      <component glyphName="a" x="0" y="0" flags="0x204"/>
    </TTGlyph>
    <TTGlyph name="ampersand" xMin="58" yMin="-18" xMax="1145" yMax="1144">
      <contour>
        <pt x="134" y="331" on="1"/>
        <pt x="134" y="254" on="0"/>
        <pt x="184" y="147" on="0"/>
        <pt x="268" y="79" on="0"/>
        <pt x="377" y="48" on="0"/>
        <pt x="436" y="48" on="1"/>
        <pt x="508" y="48" on="0"/>
        <pt x="645" y="88" on="0"/>
        <pt x="702" y="123" on="1"/>
        <pt x="689" y="153" on="0"/>
        <pt x="675" y="231" on="0"/>
        <pt x="675" y="279" on="1"/>
        <pt x="675" y="636" on="1"/>
        <pt x="364" y="636" on="1"/>
        <pt x="311" y="619" on="0"/>
        <pt x="226" y="569" on="0"/>
        <pt x="166" y="496" on="0"/>
        <pt x="134" y="397" on="0"/>
      </contour>
      <contour>
        <pt x="471" y="1085" on="1"/>
        <pt x="423" y="1085" on="0"/>
        <pt x="342" y="1059" on="0"/>
        <pt x="284" y="1011" on="0"/>
        <pt x="251" y="945" on="0"/>
        <pt x="251" y="905" on="1"/>
        <pt x="251" y="873" on="0"/>
        <pt x="270" y="815" on="0"/>
        <pt x="300" y="762" on="0"/>
        <pt x="338" y="716" on="0"/>
        <pt x="358" y="695" on="1"/>
        <pt x="675" y="695" on="1"/>
        <pt x="675" y="855" on="1"/>
        <pt x="675" y="871" on="0"/>
        <pt x="700" y="886" on="0"/>
        <pt x="715" y="886" on="1"/>
        <pt x="730" y="886" on="0"/>
        <pt x="755" y="871" on="0"/>
        <pt x="755" y="855" on="1"/>
        <pt x="755" y="695" on="1"/>
        <pt x="916" y="695" on="1"/>
        <pt x="943" y="695" on="0"/>
        <pt x="957" y="680" on="0"/>
        <pt x="957" y="666" on="1"/>
        <pt x="957" y="655" on="0"/>
        <pt x="943" y="636" on="0"/>
        <pt x="916" y="636" on="1"/>
        <pt x="755" y="636" on="1"/>
        <pt x="755" y="279" on="1"/>
        <pt x="755" y="206" on="0"/>
        <pt x="785" y="116" on="0"/>
        <pt x="836" y="66" on="0"/>
        <pt x="905" y="49" on="0"/>
        <pt x="944" y="49" on="1"/>
        <pt x="977" y="49" on="0"/>
        <pt x="1035" y="72" on="0"/>
        <pt x="1082" y="101" on="0"/>
        <pt x="1115" y="124" on="0"/>
        <pt x="1123" y="124" on="1"/>
        <pt x="1133" y="124" on="0"/>
        <pt x="1145" y="110" on="0"/>
        <pt x="1145" y="100" on="1"/>
        <pt x="1145" y="87" on="0"/>
        <pt x="1108" y="50" on="0"/>
        <pt x="1048" y="15" on="0"/>
        <pt x="970" y="-10" on="0"/>
        <pt x="930" y="-10" on="1"/>
        <pt x="870" y="-10" on="0"/>
        <pt x="771" y="25" on="0"/>
        <pt x="736" y="67" on="1"/>
        <pt x="667" y="25" on="0"/>
        <pt x="512" y="-18" on="0"/>
        <pt x="434" y="-18" on="1"/>
        <pt x="360" y="-18" on="0"/>
        <pt x="224" y="23" on="0"/>
        <pt x="120" y="108" on="0"/>
        <pt x="58" y="238" on="0"/>
        <pt x="58" y="327" on="1"/>
        <pt x="58" y="413" on="0"/>
        <pt x="110" y="533" on="0"/>
        <pt x="189" y="613" on="0"/>
        <pt x="281" y="659" on="0"/>
        <pt x="322" y="671" on="1"/>
        <pt x="300" y="681" on="0"/>
        <pt x="251" y="718" on="0"/>
        <pt x="209" y="776" on="0"/>
        <pt x="181" y="856" on="0"/>
        <pt x="181" y="909" on="1"/>
        <pt x="181" y="964" on="0"/>
        <pt x="228" y="1052" on="0"/>
        <pt x="305" y="1112" on="0"/>
        <pt x="404" y="1144" on="0"/>
        <pt x="457" y="1144" on="1"/>
        <pt x="532" y="1144" on="0"/>
        <pt x="629" y="1121" on="0"/>
        <pt x="686" y="1092" on="0"/>
        <pt x="708" y="1064" on="0"/>
        <pt x="708" y="1058" on="1"/>
        <pt x="708" y="1047" on="0"/>
        <pt x="694" y="1027" on="0"/>
        <pt x="682" y="1027" on="1"/>
        <pt x="674" y="1027" on="0"/>
        <pt x="643" y="1045" on="0"/>
        <pt x="593" y="1067" on="0"/>
        <pt x="520" y="1085" on="0"/>
      </contour>
    </TTGlyph>
    <TTGlyph name="aogonek" xMin="134" yMin="-279" xMax="1114" yMax="786">
      <component glyphName="a" x="0" y="0" flags="0x204"/>
      <component glyphName="ogonek" x="847" y="0" flags="0x4"/>
    </TTGlyph>
    <TTGlyph name="aring" xMin="134" yMin="-10" xMax="1044" yMax="1110">
      <component glyphName="a" x="0" y="0" flags="0x204"/>
      <component glyphName="ring" x="406" y="0" flags="0x4"/>
    </TTGlyph>
    <TTGlyph name="asciicircum" xMin="39" yMin="954" xMax="580" yMax="1288">
      <contour>
        <pt x="312" y="1204" on="1"/>
        <pt x="172" y="1049" on="1"/>
        <pt x="163" y="1038" on="0"/>
        <pt x="137" y="1006" on="0"/>
        <pt x="109" y="976" on="0"/>
        <pt x="82" y="954" on="0"/>
        <pt x="72" y="954" on="1"/>
        <pt x="58" y="954" on="0"/>
        <pt x="39" y="979" on="0"/>
        <pt x="39" y="987" on="1"/>
        <pt x="39" y="1002" on="0"/>
        <pt x="58" y="1021" on="0"/>
        <pt x="70" y="1038" on="1"/>
        <pt x="78" y="1049" on="0"/>
        <pt x="113" y="1095" on="0"/>
        <pt x="158" y="1151" on="0"/>
        <pt x="210" y="1209" on="0"/>
        <pt x="258" y="1257" on="0"/>
        <pt x="298" y="1288" on="0"/>
        <pt x="310" y="1288" on="1"/>
        <pt x="321" y="1288" on="0"/>
        <pt x="340" y="1278" on="0"/>
        <pt x="348" y="1272" on="1"/>
        <pt x="365" y="1255" on="1"/>
        <pt x="551" y="1038" on="1"/>
        <pt x="564" y="1026" on="0"/>
        <pt x="580" y="1002" on="0"/>
        <pt x="580" y="989" on="1"/>
        <pt x="580" y="981" on="0"/>
        <pt x="564" y="954" on="0"/>
        <pt x="547" y="954" on="1"/>
        <pt x="535" y="954" on="0"/>
        <pt x="511" y="980" on="0"/>
        <pt x="494" y="997" on="1"/>
      </contour>
    </TTGlyph>
    <TTGlyph name="asciitilde" xMin="89" yMin="403" xMax="887" yMax="684">
      <contour>
        <pt x="668" y="475" on="1"/>
        <pt x="696" y="475" on="0"/>
        <pt x="749" y="490" on="0"/>
        <pt x="790" y="528" on="0"/>
        <pt x="814" y="595" on="0"/>
        <pt x="814" y="647" on="1"/>
        <pt x="887" y="647" on="1"/>
        <pt x="887" y="569" on="0"/>
        <pt x="839" y="473" on="0"/>
        <pt x="771" y="420" on="0"/>
        <pt x="696" y="403" on="0"/>
        <pt x="668" y="403" on="1"/>
        <pt x="623" y="403" on="0"/>
        <pt x="554" y="434" on="0"/>
        <pt x="497" y="480" on="0"/>
        <pt x="448" y="535" on="0"/>
        <pt x="397" y="581" on="0"/>
        <pt x="341" y="612" on="0"/>
        <pt x="306" y="612" on="1"/>
        <pt x="278" y="612" on="0"/>
        <pt x="226" y="598" on="0"/>
        <pt x="185" y="559" on="0"/>
        <pt x="160" y="492" on="0"/>
        <pt x="160" y="440" on="1"/>
        <pt x="89" y="440" on="1"/>
        <pt x="89" y="518" on="0"/>
        <pt x="136" y="613" on="0"/>
        <pt x="203" y="666" on="0"/>
        <pt x="278" y="684" on="0"/>
        <pt x="306" y="684" on="1"/>
        <pt x="351" y="684" on="0"/>
        <pt x="420" y="653" on="0"/>
        <pt x="477" y="607" on="0"/>
        <pt x="526" y="552" on="0"/>
        <pt x="577" y="506" on="0"/>
        <pt x="633" y="475" on="0"/>
      </contour>
    </TTGlyph>
    <TTGlyph name="asterisk" xMin="65" yMin="322" xMax="802" yMax="1018">
      <contour>
        <pt x="542" y="979" on="1"/>
        <pt x="550" y="996" on="0"/>
        <pt x="566" y="1018" on="0"/>
        <pt x="578" y="1018" on="1"/>
        <pt x="596" y="1018" on="0"/>
        <pt x="619" y="996" on="0"/>
        <pt x="619" y="987" on="1"/>
        <pt x="619" y="979" on="0"/>
        <pt x="610" y="960" on="0"/>
        <pt x="605" y="949" on="1"/>
        <pt x="480" y="699" on="1"/>
        <pt x="757" y="705" on="1"/>
        <pt x="778" y="705" on="0"/>
        <pt x="802" y="692" on="0"/>
        <pt x="802" y="669" on="1"/>
        <pt x="802" y="646" on="0"/>
        <pt x="779" y="633" on="0"/>
        <pt x="759" y="634" on="1"/>
        <pt x="485" y="641" on="1"/>
        <pt x="627" y="406" on="1"/>
        <pt x="633" y="396" on="0"/>
        <pt x="643" y="375" on="0"/>
        <pt x="643" y="366" on="1"/>
        <pt x="643" y="356" on="0"/>
        <pt x="618" y="334" on="0"/>
        <pt x="603" y="334" on="1"/>
        <pt x="589" y="334" on="0"/>
        <pt x="574" y="354" on="0"/>
        <pt x="565" y="371" on="1"/>
        <pt x="436" y="606" on="1"/>
        <pt x="325" y="362" on="1"/>
        <pt x="317" y="344" on="0"/>
        <pt x="302" y="322" on="0"/>
        <pt x="290" y="322" on="1"/>
        <pt x="270" y="322" on="0"/>
        <pt x="248" y="346" on="0"/>
        <pt x="248" y="354" on="1"/>
        <pt x="248" y="362" on="0"/>
        <pt x="256" y="380" on="0"/>
        <pt x="262" y="391" on="1"/>
        <pt x="387" y="641" on="1"/>
        <pt x="108" y="635" on="1"/>
        <pt x="87" y="634" on="0"/>
        <pt x="65" y="647" on="0"/>
        <pt x="65" y="671" on="1"/>
        <pt x="65" y="697" on="0"/>
        <pt x="95" y="707" on="0"/>
        <pt x="119" y="707" on="1"/>
        <pt x="381" y="699" on="1"/>
        <pt x="240" y="934" on="1"/>
        <pt x="233" y="945" on="0"/>
        <pt x="224" y="965" on="0"/>
        <pt x="224" y="973" on="1"/>
        <pt x="224" y="981" on="0"/>
        <pt x="246" y="1006" on="0"/>
        <pt x="264" y="1006" on="1"/>
        <pt x="276" y="1006" on="0"/>
        <pt x="292" y="986" on="0"/>
        <pt x="302" y="969" on="1"/>
        <pt x="431" y="733" on="1"/>
      </contour>
    </TTGlyph>
    <TTGlyph name="at" xMin="73" yMin="-119" xMax="1268" yMax="1031">
      <contour>
        <pt x="1055" y="-48" on="1"/>
        <pt x="999" y="-74" on="0"/>
        <pt x="836" y="-119" on="0"/>
        <pt x="721" y="-119" on="1"/>
        <pt x="551" y="-119" on="0"/>
        <pt x="306" y="-41" on="0"/>
        <pt x="148" y="107" on="0"/>
        <pt x="73" y="321" on="0"/>
        <pt x="73" y="457" on="1"/>
        <pt x="73" y="584" on="0"/>
        <pt x="161" y="795" on="0"/>
        <pt x="328" y="947" on="0"/>
        <pt x="569" y="1031" on="0"/>
        <pt x="723" y="1031" on="1"/>
        <pt x="995" y="1031" on="0"/>
        <pt x="1268" y="800" on="0"/>
        <pt x="1268" y="573" on="1"/>
        <pt x="1268" y="469" on="0"/>
        <pt x="1239" y="300" on="0"/>
        <pt x="1181" y="181" on="0"/>
        <pt x="1095" y="116" on="0"/>
        <pt x="1038" y="116" on="1"/>
        <pt x="983" y="116" on="0"/>
        <pt x="921" y="183" on="0"/>
        <pt x="921" y="253" on="1"/>
        <pt x="904" y="233" on="0"/>
        <pt x="854" y="190" on="0"/>
        <pt x="784" y="155" on="0"/>
        <pt x="692" y="132" on="0"/>
        <pt x="634" y="132" on="1"/>
        <pt x="549" y="132" on="0"/>
        <pt x="431" y="180" on="0"/>
        <pt x="358" y="261" on="0"/>
        <pt x="325" y="367" on="0"/>
        <pt x="325" y="424" on="1"/>
        <pt x="325" y="527" on="0"/>
        <pt x="398" y="671" on="0"/>
        <pt x="513" y="761" on="0"/>
        <pt x="655" y="801" on="0"/>
        <pt x="724" y="801" on="1"/>
        <pt x="772" y="801" on="0"/>
        <pt x="847" y="787" on="0"/>
        <pt x="902" y="766" on="0"/>
        <pt x="939" y="741" on="0"/>
        <pt x="950" y="730" on="1"/>
        <pt x="955" y="755" on="0"/>
        <pt x="969" y="781" on="0"/>
        <pt x="985" y="781" on="1"/>
        <pt x="1002" y="781" on="0"/>
        <pt x="1023" y="754" on="0"/>
        <pt x="1023" y="718" on="1"/>
        <pt x="1023" y="712" on="0"/>
        <pt x="1022" y="679" on="0"/>
        <pt x="1017" y="596" on="0"/>
        <pt x="1007" y="450" on="0"/>
        <pt x="998" y="331" on="1"/>
        <pt x="997" y="318" on="0"/>
        <pt x="994" y="282" on="0"/>
        <pt x="994" y="262" on="1"/>
        <pt x="994" y="246" on="0"/>
        <pt x="998" y="215" on="0"/>
        <pt x="1008" y="191" on="0"/>
        <pt x="1028" y="176" on="0"/>
        <pt x="1043" y="176" on="1"/>
        <pt x="1077" y="176" on="0"/>
        <pt x="1132" y="230" on="0"/>
        <pt x="1171" y="332" on="0"/>
        <pt x="1192" y="480" on="0"/>
        <pt x="1192" y="575" on="1"/>
        <pt x="1192" y="972" on="0"/>
        <pt x="723" y="972" on="1"/>
        <pt x="588" y="972" on="0"/>
        <pt x="375" y="897" on="0"/>
        <pt x="228" y="762" on="0"/>
        <pt x="150" y="572" on="0"/>
        <pt x="150" y="457" on="1"/>
        <pt x="150" y="336" on="0"/>
        <pt x="211" y="144" on="0"/>
        <pt x="347" y="11" on="0"/>
        <pt x="565" y="-60" on="0"/>
        <pt x="723" y="-60" on="1"/>
        <pt x="828" y="-60" on="0"/>
        <pt x="983" y="-19" on="0"/>
        <pt x="1037" y="5" on="1"/>
        <pt x="1044" y="9" on="0"/>
        <pt x="1054" y="9" on="1"/>
        <pt x="1066" y="9" on="0"/>
        <pt x="1078" y="-5" on="0"/>
        <pt x="1078" y="-15" on="1"/>
        <pt x="1078" y="-24" on="0"/>
        <pt x="1067" y="-43" on="0"/>
      </contour>
      <contour>
        <pt x="945" y="686" on="1"/>
        <pt x="906" y="703" on="0"/>
        <pt x="796" y="735" on="0"/>
        <pt x="730" y="735" on="1"/>
        <pt x="670" y="735" on="0"/>
        <pt x="554" y="699" on="0"/>
        <pt x="461" y="625" on="0"/>
        <pt x="404" y="511" on="0"/>
        <pt x="404" y="433" on="1"/>
        <pt x="404" y="315" on="0"/>
        <pt x="516" y="198" on="0"/>
        <pt x="639" y="198" on="1"/>
        <pt x="689" y="198" on="0"/>
        <pt x="774" y="220" on="0"/>
        <pt x="842" y="253" on="0"/>
        <pt x="890" y="288" on="0"/>
        <pt x="904" y="302" on="1"/>
        <pt x="923" y="321" on="1"/>
      </contour>
    </TTGlyph>
    <TTGlyph name="atilde" xMin="134" yMin="-10" xMax="1044" yMax="1057">
      <component glyphName="a" x="0" y="0" flags="0x204"/>
      <component glyphName="tilde" x="123" y="0" flags="0x4"/>
    </TTGlyph>
    <TTGlyph name="b" xMin="159" yMin="-10" xMax="1132" yMax="1114">
      <contour>
        <pt x="689" y="786" on="1"/>
        <pt x="779" y="786" on="0"/>
        <pt x="940" y="749" on="0"/>
        <pt x="1061" y="659" on="0"/>
        <pt x="1132" y="509" on="0"/>
        <pt x="1132" y="396" on="1"/>
        <pt x="1132" y="284" on="0"/>
        <pt x="1073" y="129" on="0"/>
        <pt x="960" y="33" on="0"/>
        <pt x="795" y="-10" on="0"/>
        <pt x="689" y="-10" on="1"/>
        <pt x="608" y="-10" on="0"/>
        <pt x="472" y="10" on="0"/>
        <pt x="361" y="41" on="0"/>
        <pt x="273" y="79" on="0"/>
        <pt x="239" y="97" on="1"/>
        <pt x="239" y="73" on="1"/>
        <pt x="239" y="58" on="0"/>
        <pt x="237" y="32" on="0"/>
        <pt x="229" y="12" on="0"/>
        <pt x="213" y="0" on="0"/>
        <pt x="198" y="0" on="1"/>
        <pt x="183" y="0" on="0"/>
        <pt x="168" y="12" on="0"/>
        <pt x="160" y="32" on="0"/>
        <pt x="159" y="58" on="0"/>
        <pt x="159" y="73" on="1"/>
        <pt x="159" y="1065" on="1"/>
        <pt x="159" y="1097" on="0"/>
        <pt x="186" y="1114" on="0"/>
        <pt x="201" y="1114" on="1"/>
        <pt x="216" y="1114" on="0"/>
        <pt x="239" y="1097" on="0"/>
        <pt x="239" y="1065" on="1"/>
        <pt x="239" y="587" on="1"/>
        <pt x="250" y="629" on="0"/>
        <pt x="306" y="692" on="0"/>
        <pt x="383" y="736" on="0"/>
        <pt x="475" y="764" on="0"/>
        <pt x="568" y="780" on="0"/>
        <pt x="655" y="786" on="0"/>
      </contour>
      <contour>
        <pt x="689" y="727" on="1"/>
        <pt x="629" y="726" on="0"/>
        <pt x="487" y="709" on="0"/>
        <pt x="357" y="665" on="0"/>
        <pt x="257" y="587" on="0"/>
        <pt x="239" y="524" on="1"/>
        <pt x="239" y="140" on="1"/>
        <pt x="282" y="124" on="0"/>
        <pt x="381" y="91" on="0"/>
        <pt x="493" y="65" on="0"/>
        <pt x="619" y="49" on="0"/>
        <pt x="689" y="49" on="1"/>
        <pt x="785" y="49" on="0"/>
        <pt x="922" y="89" on="0"/>
        <pt x="1011" y="174" on="0"/>
        <pt x="1052" y="305" on="0"/>
        <pt x="1052" y="396" on="1"/>
        <pt x="1052" y="490" on="0"/>
        <pt x="995" y="618" on="0"/>
        <pt x="897" y="694" on="0"/>
        <pt x="764" y="727" on="0"/>
      </contour>
    </TTGlyph>
    <TTGlyph name="backslash" xMin="47" yMin="-63" xMax="596" yMax="1174">
      <contour>
        <pt x="582" y="16" on="1"/>
        <pt x="590" y="-1" on="0"/>
        <pt x="596" y="-25" on="0"/>
        <pt x="596" y="-33" on="1"/>
        <pt x="596" y="-44" on="0"/>
        <pt x="580" y="-63" on="0"/>
        <pt x="561" y="-63" on="1"/>
        <pt x="543" y="-63" on="0"/>
        <pt x="522" y="-30" on="0"/>
        <pt x="514" y="-10" on="1"/>
        <pt x="62" y="1092" on="1"/>
        <pt x="54" y="1109" on="0"/>
        <pt x="47" y="1133" on="0"/>
        <pt x="47" y="1141" on="1"/>
        <pt x="47" y="1152" on="0"/>
        <pt x="64" y="1174" on="0"/>
        <pt x="84" y="1174" on="1"/>
        <pt x="93" y="1174" on="0"/>
        <pt x="106" y="1164" on="0"/>
        <pt x="116" y="1148" on="0"/>
        <pt x="124" y="1128" on="0"/>
        <pt x="129" y="1118" on="1"/>
      </contour>
    </TTGlyph>
    <TTGlyph name="bar" xMin="116" yMin="-133" xMax="188" yMax="1296">
      <contour>
        <pt x="188" y="-63" on="1"/>
        <pt x="188" y="-78" on="0"/>
        <pt x="187" y="-103" on="0"/>
        <pt x="180" y="-122" on="0"/>
        <pt x="166" y="-133" on="0"/>
        <pt x="153" y="-133" on="1"/>
        <pt x="138" y="-133" on="0"/>
        <pt x="123" y="-122" on="0"/>
        <pt x="117" y="-103" on="0"/>
        <pt x="116" y="-79" on="0"/>
        <pt x="116" y="-66" on="1"/>
        <pt x="116" y="1225" on="1"/>
        <pt x="116" y="1240" on="0"/>
        <pt x="117" y="1265" on="0"/>
        <pt x="123" y="1285" on="0"/>
        <pt x="138" y="1296" on="0"/>
        <pt x="153" y="1296" on="1"/>
        <pt x="166" y="1296" on="0"/>
        <pt x="180" y="1284" on="0"/>
        <pt x="187" y="1265" on="0"/>
        <pt x="188" y="1240" on="0"/>
        <pt x="188" y="1227" on="1"/>
      </contour>
    </TTGlyph>
    <TTGlyph name="braceleft" xMin="9" yMin="23" xMax="599" yMax="1477">
      <contour>
        <pt x="42" y="782" on="1"/>
        <pt x="108" y="782" on="0"/>
        <pt x="190" y="821" on="0"/>
        <pt x="239" y="888" on="0"/>
        <pt x="260" y="977" on="0"/>
        <pt x="270" y="1077" on="0"/>
        <pt x="274" y="1182" on="0"/>
        <pt x="288" y="1282" on="0"/>
        <pt x="320" y="1371" on="0"/>
        <pt x="384" y="1438" on="0"/>
        <pt x="487" y="1477" on="0"/>
        <pt x="566" y="1477" on="1"/>
        <pt x="583" y="1477" on="0"/>
        <pt x="599" y="1456" on="0"/>
        <pt x="599" y="1444" on="1"/>
        <pt x="599" y="1431" on="0"/>
        <pt x="583" y="1413" on="0"/>
        <pt x="566" y="1413" on="1"/>
        <pt x="549" y="1413" on="1"/>
        <pt x="481" y="1413" on="0"/>
        <pt x="403" y="1358" on="0"/>
        <pt x="361" y="1268" on="0"/>
        <pt x="345" y="1153" on="0"/>
        <pt x="336" y="1031" on="0"/>
        <pt x="323" y="913" on="0"/>
        <pt x="286" y="817" on="0"/>
        <pt x="214" y="755" on="0"/>
        <pt x="151" y="750" on="1"/>
        <pt x="214" y="745" on="0"/>
        <pt x="286" y="682" on="0"/>
        <pt x="323" y="587" on="0"/>
        <pt x="336" y="469" on="0"/>
        <pt x="346" y="347" on="0"/>
        <pt x="361" y="231" on="0"/>
        <pt x="403" y="141" on="0"/>
        <pt x="481" y="86" on="0"/>
        <pt x="549" y="86" on="1"/>
        <pt x="554" y="86" on="0"/>
        <pt x="563" y="87" on="0"/>
        <pt x="568" y="87" on="1"/>
        <pt x="584" y="87" on="0"/>
        <pt x="599" y="67" on="0"/>
        <pt x="599" y="56" on="1"/>
        <pt x="599" y="43" on="0"/>
        <pt x="583" y="23" on="0"/>
        <pt x="566" y="23" on="1"/>
        <pt x="487" y="23" on="0"/>
        <pt x="384" y="62" on="0"/>
        <pt x="320" y="129" on="0"/>
        <pt x="288" y="218" on="0"/>
        <pt x="274" y="318" on="0"/>
        <pt x="270" y="423" on="0"/>
        <pt x="260" y="523" on="0"/>
        <pt x="239" y="612" on="0"/>
        <pt x="190" y="679" on="0"/>
        <pt x="108" y="718" on="0"/>
        <pt x="42" y="718" on="1"/>
        <pt x="25" y="718" on="0"/>
        <pt x="9" y="738" on="0"/>
        <pt x="9" y="750" on="1"/>
        <pt x="9" y="762" on="0"/>
        <pt x="25" y="782" on="0"/>
      </contour>
    </TTGlyph>
    <TTGlyph name="braceright" xMin="7" yMin="23" xMax="597" yMax="1477">
      <contour>
        <pt x="564" y="782" on="1"/>
        <pt x="581" y="782" on="0"/>
        <pt x="597" y="762" on="0"/>
        <pt x="597" y="750" on="1"/>
        <pt x="597" y="738" on="0"/>
        <pt x="581" y="718" on="0"/>
        <pt x="564" y="718" on="1"/>
        <pt x="498" y="718" on="0"/>
        <pt x="416" y="679" on="0"/>
        <pt x="367" y="612" on="0"/>
        <pt x="346" y="523" on="0"/>
        <pt x="336" y="423" on="0"/>
        <pt x="332" y="318" on="0"/>
        <pt x="318" y="218" on="0"/>
        <pt x="286" y="129" on="0"/>
        <pt x="222" y="62" on="0"/>
        <pt x="119" y="23" on="0"/>
        <pt x="40" y="23" on="1"/>
        <pt x="23" y="23" on="0"/>
        <pt x="7" y="43" on="0"/>
        <pt x="7" y="56" on="1"/>
        <pt x="7" y="67" on="0"/>
        <pt x="22" y="87" on="0"/>
        <pt x="38" y="87" on="1"/>
        <pt x="43" y="87" on="0"/>
        <pt x="52" y="86" on="0"/>
        <pt x="57" y="86" on="1"/>
        <pt x="124" y="86" on="0"/>
        <pt x="203" y="141" on="0"/>
        <pt x="245" y="231" on="0"/>
        <pt x="261" y="347" on="0"/>
        <pt x="270" y="469" on="0"/>
        <pt x="283" y="587" on="0"/>
        <pt x="321" y="682" on="0"/>
        <pt x="392" y="745" on="0"/>
        <pt x="455" y="750" on="1"/>
        <pt x="392" y="755" on="0"/>
        <pt x="321" y="817" on="0"/>
        <pt x="283" y="913" on="0"/>
        <pt x="270" y="1031" on="0"/>
        <pt x="261" y="1153" on="0"/>
        <pt x="245" y="1268" on="0"/>
        <pt x="203" y="1358" on="0"/>
        <pt x="124" y="1413" on="0"/>
        <pt x="57" y="1413" on="1"/>
        <pt x="40" y="1413" on="1"/>
        <pt x="23" y="1413" on="0"/>
        <pt x="7" y="1431" on="0"/>
        <pt x="7" y="1444" on="1"/>
        <pt x="7" y="1456" on="0"/>
        <pt x="23" y="1477" on="0"/>
        <pt x="40" y="1477" on="1"/>
        <pt x="119" y="1477" on="0"/>
        <pt x="222" y="1438" on="0"/>
        <pt x="286" y="1371" on="0"/>
        <pt x="318" y="1282" on="0"/>
        <pt x="332" y="1182" on="0"/>
        <pt x="336" y="1077" on="0"/>
        <pt x="346" y="977" on="0"/>
        <pt x="367" y="888" on="0"/>
        <pt x="416" y="821" on="0"/>
        <pt x="498" y="782" on="0"/>
      </contour>
    </TTGlyph>
    <TTGlyph name="bracketleft" xMin="115" yMin="-209" xMax="332" yMax="1323">
      <contour>
        <pt x="332" y="-174" on="1"/>
        <pt x="332" y="-197" on="0"/>
        <pt x="290" y="-209" on="0"/>
        <pt x="261" y="-209" on="1"/>
        <pt x="154" y="-209" on="1"/>
        <pt x="139" y="-209" on="0"/>
        <pt x="123" y="-198" on="0"/>
        <pt x="116" y="-179" on="0"/>
        <pt x="115" y="-154" on="0"/>
        <pt x="115" y="-139" on="1"/>
        <pt x="115" y="1253" on="1"/>
        <pt x="115" y="1268" on="0"/>
        <pt x="116" y="1293" on="0"/>
        <pt x="124" y="1312" on="0"/>
        <pt x="141" y="1323" on="0"/>
        <pt x="156" y="1323" on="1"/>
        <pt x="261" y="1323" on="1"/>
        <pt x="276" y="1323" on="0"/>
        <pt x="301" y="1322" on="0"/>
        <pt x="321" y="1316" on="0"/>
        <pt x="332" y="1302" on="0"/>
        <pt x="332" y="1290" on="1"/>
        <pt x="332" y="1275" on="0"/>
        <pt x="321" y="1260" on="0"/>
        <pt x="301" y="1254" on="0"/>
        <pt x="276" y="1253" on="0"/>
        <pt x="261" y="1253" on="1"/>
        <pt x="187" y="1253" on="1"/>
        <pt x="187" y="-139" on="1"/>
        <pt x="210" y="-139" on="0"/>
        <pt x="249" y="-138" on="0"/>
        <pt x="265" y="-138" on="1"/>
        <pt x="297" y="-138" on="0"/>
        <pt x="332" y="-151" on="0"/>
      </contour>
    </TTGlyph>
    <TTGlyph name="bracketright" xMin="58" yMin="-209" xMax="275" yMax="1323">
      <contour>
        <pt x="58" y="-174" on="1"/>
        <pt x="58" y="-151" on="0"/>
        <pt x="102" y="-139" on="0"/>
        <pt x="140" y="-139" on="1"/>
        <pt x="204" y="-139" on="1"/>
        <pt x="204" y="1253" on="1"/>
        <pt x="130" y="1253" on="1"/>
        <pt x="117" y="1253" on="0"/>
        <pt x="91" y="1254" on="0"/>
        <pt x="71" y="1260" on="0"/>
        <pt x="58" y="1275" on="0"/>
        <pt x="58" y="1290" on="1"/>
        <pt x="58" y="1302" on="0"/>
        <pt x="71" y="1316" on="0"/>
        <pt x="91" y="1322" on="0"/>
        <pt x="117" y="1323" on="0"/>
        <pt x="130" y="1323" on="1"/>
        <pt x="234" y="1323" on="1"/>
        <pt x="249" y="1323" on="0"/>
        <pt x="266" y="1312" on="0"/>
        <pt x="274" y="1293" on="0"/>
        <pt x="275" y="1268" on="0"/>
        <pt x="275" y="1253" on="1"/>
        <pt x="275" y="-139" on="1"/>
        <pt x="275" y="-154" on="0"/>
        <pt x="274" y="-179" on="0"/>
        <pt x="267" y="-198" on="0"/>
        <pt x="251" y="-209" on="0"/>
        <pt x="236" y="-209" on="1"/>
        <pt x="130" y="-209" on="1"/>
        <pt x="117" y="-209" on="0"/>
        <pt x="91" y="-207" on="0"/>
        <pt x="71" y="-199" on="0"/>
        <pt x="58" y="-186" on="0"/>
      </contour>
    </TTGlyph>
    <TTGlyph name="breve" xMin="174" yMin="989" xMax="544" yMax="1175">
      <contour>
        <pt x="544" y="1175" on="1"/>
        <pt x="544" y="1145" on="0"/>
        <pt x="531" y="1079" on="0"/>
        <pt x="492" y="1025" on="0"/>
        <pt x="419" y="989" on="0"/>
        <pt x="359" y="989" on="1"/>
        <pt x="297" y="989" on="0"/>
        <pt x="223" y="1027" on="0"/>
        <pt x="185" y="1083" on="0"/>
        <pt x="174" y="1148" on="0"/>
        <pt x="174" y="1175" on="1"/>
        <pt x="211" y="1175" on="1"/>
        <pt x="212" y="1153" on="0"/>
        <pt x="226" y="1106" on="0"/>
        <pt x="259" y="1067" on="0"/>
        <pt x="315" y="1041" on="0"/>
        <pt x="359" y="1041" on="1"/>
        <pt x="401" y="1041" on="0"/>
        <pt x="457" y="1066" on="0"/>
        <pt x="490" y="1105" on="0"/>
        <pt x="505" y="1152" on="0"/>
        <pt x="507" y="1175" on="1"/>
      </contour>
    </TTGlyph>
    <TTGlyph name="brokenbar" xMin="117" yMin="-127" xMax="189" yMax="1296">
      <contour>
        <pt x="189" y="694" on="1"/>
        <pt x="189" y="665" on="0"/>
        <pt x="181" y="625" on="0"/>
        <pt x="156" y="625" on="1"/>
        <pt x="141" y="625" on="0"/>
        <pt x="126" y="636" on="0"/>
        <pt x="118" y="655" on="0"/>
        <pt x="117" y="679" on="0"/>
        <pt x="117" y="692" on="1"/>
        <pt x="117" y="1225" on="1"/>
        <pt x="117" y="1240" on="0"/>
        <pt x="118" y="1265" on="0"/>
        <pt x="126" y="1285" on="0"/>
        <pt x="141" y="1296" on="0"/>
        <pt x="156" y="1296" on="1"/>
        <pt x="168" y="1296" on="0"/>
        <pt x="182" y="1284" on="0"/>
        <pt x="188" y="1265" on="0"/>
        <pt x="189" y="1240" on="0"/>
        <pt x="189" y="1227" on="1"/>
      </contour>
      <contour>
        <pt x="189" y="-57" on="1"/>
        <pt x="189" y="-86" on="0"/>
        <pt x="181" y="-127" on="0"/>
        <pt x="156" y="-127" on="1"/>
        <pt x="141" y="-127" on="0"/>
        <pt x="126" y="-116" on="0"/>
        <pt x="118" y="-97" on="0"/>
        <pt x="117" y="-73" on="0"/>
        <pt x="117" y="-59" on="1"/>
        <pt x="117" y="473" on="1"/>
        <pt x="117" y="488" on="0"/>
        <pt x="118" y="514" on="0"/>
        <pt x="126" y="533" on="0"/>
        <pt x="141" y="545" on="0"/>
        <pt x="156" y="545" on="1"/>
        <pt x="168" y="545" on="0"/>
        <pt x="182" y="533" on="0"/>
        <pt x="188" y="513" on="0"/>
        <pt x="189" y="488" on="0"/>
        <pt x="189" y="475" on="1"/>
      </contour>
    </TTGlyph>
    <TTGlyph name="bullet" xMin="74" yMin="68" xMax="777" yMax="741">
      <contour>
        <pt x="777" y="403" on="1"/>
        <pt x="777" y="333" on="0"/>
        <pt x="721" y="211" on="0"/>
        <pt x="625" y="120" on="0"/>
        <pt x="497" y="68" on="0"/>
        <pt x="425" y="68" on="1"/>
        <pt x="353" y="68" on="0"/>
        <pt x="225" y="121" on="0"/>
        <pt x="129" y="212" on="0"/>
        <pt x="74" y="334" on="0"/>
        <pt x="74" y="403" on="1"/>
        <pt x="74" y="473" on="0"/>
        <pt x="129" y="596" on="0"/>
        <pt x="224" y="688" on="0"/>
        <pt x="352" y="741" on="0"/>
        <pt x="425" y="741" on="1"/>
        <pt x="497" y="741" on="0"/>
        <pt x="625" y="688" on="0"/>
        <pt x="721" y="596" on="0"/>
        <pt x="777" y="473" on="0"/>
      </contour>
    </TTGlyph>
    <TTGlyph name="c" xMin="120" yMin="-10" xMax="1013" yMax="786">
      <contour>
        <pt x="628" y="727" on="1"/>
        <pt x="513" y="727" on="0"/>
        <pt x="351" y="689" on="0"/>
        <pt x="248" y="606" on="0"/>
        <pt x="200" y="476" on="0"/>
        <pt x="200" y="385" on="1"/>
        <pt x="200" y="293" on="0"/>
        <pt x="253" y="165" on="0"/>
        <pt x="360" y="85" on="0"/>
        <pt x="520" y="49" on="0"/>
        <pt x="627" y="49" on="1"/>
        <pt x="675" y="49" on="0"/>
        <pt x="774" y="63" on="0"/>
        <pt x="864" y="84" on="0"/>
        <pt x="940" y="110" on="0"/>
        <pt x="964" y="122" on="1"/>
        <pt x="979" y="127" on="0"/>
        <pt x="985" y="127" on="1"/>
        <pt x="998" y="127" on="0"/>
        <pt x="1013" y="112" on="0"/>
        <pt x="1013" y="101" on="1"/>
        <pt x="1013" y="93" on="0"/>
        <pt x="1003" y="76" on="0"/>
        <pt x="992" y="70" on="1"/>
        <pt x="904" y="25" on="0"/>
        <pt x="716" y="-10" on="0"/>
        <pt x="628" y="-10" on="1"/>
        <pt x="514" y="-10" on="0"/>
        <pt x="327" y="26" on="0"/>
        <pt x="194" y="116" on="0"/>
        <pt x="120" y="268" on="0"/>
        <pt x="120" y="385" on="1"/>
        <pt x="120" y="501" on="0"/>
        <pt x="188" y="655" on="0"/>
        <pt x="318" y="748" on="0"/>
        <pt x="507" y="786" on="0"/>
        <pt x="628" y="786" on="1"/>
        <pt x="716" y="786" on="0"/>
        <pt x="904" y="751" on="0"/>
        <pt x="992" y="706" on="1"/>
        <pt x="1003" y="700" on="0"/>
        <pt x="1013" y="683" on="0"/>
        <pt x="1013" y="675" on="1"/>
        <pt x="1013" y="664" on="0"/>
        <pt x="998" y="649" on="0"/>
        <pt x="985" y="649" on="1"/>
        <pt x="979" y="649" on="0"/>
        <pt x="964" y="654" on="1"/>
        <pt x="940" y="666" on="0"/>
        <pt x="864" y="692" on="0"/>
        <pt x="774" y="713" on="0"/>
        <pt x="675" y="727" on="0"/>
      </contour>
    </TTGlyph>
    <TTGlyph name="cacute" xMin="120" yMin="-10" xMax="1013" yMax="1288">
      <component glyphName="c" x="0" y="0" flags="0x204"/>
      <component glyphName="acute" x="377" y="0" flags="0x4"/>
    </TTGlyph>
    <TTGlyph name="caron" xMin="73" yMin="975" xMax="485" yMax="1248">
      <contour>
        <pt x="279" y="1030" on="1"/>
        <pt x="409" y="1248" on="1"/>
        <pt x="485" y="1248" on="1"/>
        <pt x="332" y="1013" on="1"/>
        <pt x="319" y="994" on="0"/>
        <pt x="290" y="975" on="0"/>
        <pt x="279" y="975" on="1"/>
        <pt x="250" y="975" on="0"/>
        <pt x="226" y="1013" on="1"/>
        <pt x="73" y="1248" on="1"/>
        <pt x="149" y="1248" on="1"/>
      </contour>
    </TTGlyph>
    <TTGlyph name="ccaron" xMin="120" yMin="-10" xMax="1013" yMax="1248">
      <component glyphName="c" x="0" y="0" flags="0x204"/>
      <component glyphName="caron" x="287" y="0" flags="0x4"/>
    </TTGlyph>
    <TTGlyph name="ccedilla" xMin="120" yMin="-324" xMax="1013" yMax="786">
      <component glyphName="c" x="0" y="0" flags="0x204"/>
      <component glyphName="cedilla" x="434" y="0" flags="0x4"/>
    </TTGlyph>
    <TTGlyph name="cedilla" xMin="11" yMin="-324" xMax="254" yMax="29">
      <contour>
        <pt x="210" y="10" on="1"/>
        <pt x="223" y="29" on="0"/>
        <pt x="236" y="29" on="1"/>
        <pt x="244" y="29" on="0"/>
        <pt x="254" y="16" on="0"/>
        <pt x="254" y="7" on="1"/>
        <pt x="254" y="-1" on="0"/>
        <pt x="250" y="-8" on="1"/>
        <pt x="84" y="-298" on="1"/>
        <pt x="76" y="-312" on="0"/>
        <pt x="56" y="-324" on="0"/>
        <pt x="45" y="-324" on="1"/>
        <pt x="31" y="-324" on="0"/>
        <pt x="11" y="-305" on="0"/>
        <pt x="11" y="-291" on="1"/>
        <pt x="11" y="-277" on="0"/>
        <pt x="21" y="-264" on="1"/>
      </contour>
    </TTGlyph>
    <TTGlyph name="cent" xMin="120" yMin="-133" xMax="1013" yMax="950">
      <contour>
        <pt x="658" y="-63" on="1"/>
        <pt x="658" y="-78" on="0"/>
        <pt x="657" y="-103" on="0"/>
        <pt x="650" y="-122" on="0"/>
        <pt x="636" y="-133" on="0"/>
        <pt x="623" y="-133" on="1"/>
        <pt x="608" y="-133" on="0"/>
        <pt x="593" y="-122" on="0"/>
        <pt x="587" y="-103" on="0"/>
        <pt x="586" y="-79" on="0"/>
        <pt x="586" y="-66" on="1"/>
        <pt x="586" y="-9" on="1"/>
        <pt x="481" y="-6" on="0"/>
        <pt x="309" y="34" on="0"/>
        <pt x="187" y="125" on="0"/>
        <pt x="120" y="274" on="0"/>
        <pt x="120" y="385" on="1"/>
        <pt x="120" y="496" on="0"/>
        <pt x="182" y="646" on="0"/>
        <pt x="301" y="739" on="0"/>
        <pt x="475" y="782" on="0"/>
        <pt x="586" y="785" on="1"/>
        <pt x="586" y="879" on="1"/>
        <pt x="586" y="894" on="0"/>
        <pt x="587" y="919" on="0"/>
        <pt x="593" y="939" on="0"/>
        <pt x="608" y="950" on="0"/>
        <pt x="623" y="950" on="1"/>
        <pt x="636" y="950" on="0"/>
        <pt x="650" y="938" on="0"/>
        <pt x="657" y="919" on="0"/>
        <pt x="658" y="894" on="0"/>
        <pt x="658" y="881" on="1"/>
        <pt x="658" y="785" on="1"/>
        <pt x="740" y="783" on="0"/>
        <pt x="911" y="748" on="0"/>
        <pt x="992" y="706" on="1"/>
        <pt x="1003" y="700" on="0"/>
        <pt x="1013" y="683" on="0"/>
        <pt x="1013" y="675" on="1"/>
        <pt x="1013" y="664" on="0"/>
        <pt x="998" y="649" on="0"/>
        <pt x="985" y="649" on="1"/>
        <pt x="979" y="649" on="0"/>
        <pt x="964" y="654" on="1"/>
        <pt x="942" y="665" on="0"/>
        <pt x="874" y="689" on="0"/>
        <pt x="792" y="709" on="0"/>
        <pt x="702" y="724" on="0"/>
        <pt x="658" y="726" on="1"/>
        <pt x="658" y="49" on="1"/>
        <pt x="703" y="51" on="0"/>
        <pt x="793" y="66" on="0"/>
        <pt x="874" y="87" on="0"/>
        <pt x="942" y="111" on="0"/>
        <pt x="964" y="122" on="1"/>
        <pt x="979" y="127" on="0"/>
        <pt x="985" y="127" on="1"/>
        <pt x="998" y="127" on="0"/>
        <pt x="1013" y="112" on="0"/>
        <pt x="1013" y="101" on="1"/>
        <pt x="1013" y="93" on="0"/>
        <pt x="1003" y="76" on="0"/>
        <pt x="992" y="70" on="1"/>
        <pt x="911" y="28" on="0"/>
        <pt x="740" y="-7" on="0"/>
        <pt x="658" y="-9" on="1"/>
      </contour>
      <contour>
        <pt x="200" y="385" on="1"/>
        <pt x="200" y="298" on="0"/>
        <pt x="248" y="173" on="0"/>
        <pt x="344" y="92" on="0"/>
        <pt x="489" y="52" on="0"/>
        <pt x="586" y="49" on="1"/>
        <pt x="586" y="726" on="1"/>
        <pt x="482" y="723" on="0"/>
        <pt x="336" y="681" on="0"/>
        <pt x="243" y="598" on="0"/>
        <pt x="200" y="472" on="0"/>
      </contour>
    </TTGlyph>
    <TTGlyph name="circumflex" xMin="35" yMin="892" xMax="447" yMax="1165">
      <contour>
        <pt x="111" y="892" on="1"/>
        <pt x="35" y="892" on="1"/>
        <pt x="188" y="1127" on="1"/>
        <pt x="212" y="1165" on="0"/>
        <pt x="241" y="1165" on="1"/>
        <pt x="252" y="1165" on="0"/>
        <pt x="281" y="1146" on="0"/>
        <pt x="294" y="1127" on="1"/>
        <pt x="447" y="892" on="1"/>
        <pt x="371" y="892" on="1"/>
        <pt x="241" y="1110" on="1"/>
      </contour>
    </TTGlyph>
    <TTGlyph name="colon" xMin="133" yMin="142" xMax="263" yMax="626">
      <component glyphName="period" x="40" y="509" flags="0x0"/>
      <component glyphName="period" x="40" y="152" flags="0x0"/>
    </TTGlyph>
    <TTGlyph name="comma" xMin="85" yMin="-124" xMax="237" yMax="105">
      <contour>
        <pt x="85" y="-88" on="1"/>
        <pt x="122" y="-88" on="0"/>
        <pt x="148" y="-50" on="0"/>
        <pt x="148" y="-21" on="1"/>
        <pt x="131" y="-16" on="0"/>
        <pt x="99" y="16" on="0"/>
        <pt x="99" y="46" on="1"/>
        <pt x="99" y="75" on="0"/>
        <pt x="140" y="105" on="0"/>
        <pt x="169" y="105" on="1"/>
        <pt x="181" y="105" on="0"/>
        <pt x="205" y="96" on="0"/>
        <pt x="224" y="78" on="0"/>
        <pt x="237" y="50" on="0"/>
        <pt x="237" y="31" on="1"/>
        <pt x="237" y="5" on="0"/>
        <pt x="218" y="-49" on="0"/>
        <pt x="180" y="-95" on="0"/>
        <pt x="123" y="-124" on="0"/>
        <pt x="85" y="-124" on="1"/>
      </contour>
    </TTGlyph>
    <TTGlyph name="commaaccent" xMin="124" yMin="-323" xMax="276" yMax="-94">
      <component glyphName="comma" x="39" y="-199" flags="0x4"/>
    </TTGlyph>
    <TTGlyph name="copyright" xMin="75" yMin="92" xMax="1106" yMax="1020">
      <contour>
        <pt x="248" y="556" on="1"/>
        <pt x="248" y="639" on="0"/>
        <pt x="304" y="758" on="0"/>
        <pt x="396" y="835" on="0"/>
        <pt x="516" y="871" on="0"/>
        <pt x="581" y="871" on="1"/>
        <pt x="645" y="871" on="0"/>
        <pt x="772" y="838" on="0"/>
        <pt x="827" y="806" on="1"/>
        <pt x="841" y="798" on="0"/>
        <pt x="841" y="782" on="1"/>
        <pt x="841" y="770" on="0"/>
        <pt x="824" y="750" on="0"/>
        <pt x="813" y="750" on="1"/>
        <pt x="804" y="750" on="0"/>
        <pt x="800" y="754" on="1"/>
        <pt x="755" y="781" on="0"/>
        <pt x="643" y="811" on="0"/>
        <pt x="586" y="811" on="1"/>
        <pt x="534" y="811" on="0"/>
        <pt x="437" y="783" on="0"/>
        <pt x="362" y="722" on="0"/>
        <pt x="316" y="625" on="0"/>
        <pt x="316" y="556" on="1"/>
        <pt x="316" y="487" on="0"/>
        <pt x="362" y="390" on="0"/>
        <pt x="437" y="329" on="0"/>
        <pt x="534" y="301" on="0"/>
        <pt x="586" y="301" on="1"/>
        <pt x="643" y="301" on="0"/>
        <pt x="755" y="331" on="0"/>
        <pt x="800" y="358" on="1"/>
        <pt x="804" y="362" on="0"/>
        <pt x="813" y="362" on="1"/>
        <pt x="824" y="362" on="0"/>
        <pt x="841" y="342" on="0"/>
        <pt x="841" y="330" on="1"/>
        <pt x="841" y="314" on="0"/>
        <pt x="827" y="306" on="1"/>
        <pt x="772" y="274" on="0"/>
        <pt x="645" y="241" on="0"/>
        <pt x="581" y="241" on="1"/>
        <pt x="516" y="241" on="0"/>
        <pt x="396" y="277" on="0"/>
        <pt x="304" y="353" on="0"/>
        <pt x="248" y="473" on="0"/>
      </contour>
      <contour>
        <pt x="1040" y="556" on="1"/>
        <pt x="1040" y="656" on="0"/>
        <pt x="963" y="807" on="0"/>
        <pt x="838" y="908" on="0"/>
        <pt x="678" y="959" on="0"/>
        <pt x="594" y="959" on="1"/>
        <pt x="510" y="959" on="0"/>
        <pt x="350" y="908" on="0"/>
        <pt x="225" y="807" on="0"/>
        <pt x="148" y="656" on="0"/>
        <pt x="148" y="556" on="1"/>
        <pt x="148" y="456" on="0"/>
        <pt x="225" y="305" on="0"/>
        <pt x="350" y="204" on="0"/>
        <pt x="510" y="153" on="0"/>
        <pt x="594" y="153" on="1"/>
        <pt x="678" y="153" on="0"/>
        <pt x="838" y="204" on="0"/>
        <pt x="963" y="305" on="0"/>
        <pt x="1040" y="456" on="0"/>
      </contour>
      <contour>
        <pt x="1106" y="556" on="1"/>
        <pt x="1106" y="441" on="0"/>
        <pt x="1017" y="267" on="0"/>
        <pt x="872" y="151" on="0"/>
        <pt x="687" y="92" on="0"/>
        <pt x="590" y="92" on="1"/>
        <pt x="494" y="92" on="0"/>
        <pt x="309" y="151" on="0"/>
        <pt x="164" y="267" on="0"/>
        <pt x="75" y="441" on="0"/>
        <pt x="75" y="556" on="1"/>
        <pt x="75" y="671" on="0"/>
        <pt x="164" y="845" on="0"/>
        <pt x="309" y="961" on="0"/>
        <pt x="494" y="1020" on="0"/>
        <pt x="590" y="1020" on="1"/>
        <pt x="687" y="1020" on="0"/>
        <pt x="872" y="961" on="0"/>
        <pt x="1017" y="845" on="0"/>
        <pt x="1106" y="671" on="0"/>
      </contour>
    </TTGlyph>
    <TTGlyph name="currency" xMin="92" yMin="379" xMax="866" yMax="1118">
      <contour>
        <pt x="786" y="494" on="1"/>
        <pt x="798" y="485" on="0"/>
        <pt x="826" y="460" on="0"/>
        <pt x="850" y="436" on="0"/>
        <pt x="866" y="415" on="0"/>
        <pt x="866" y="410" on="1"/>
        <pt x="860" y="395" on="1"/>
        <pt x="848" y="385" on="1"/>
        <pt x="842" y="379" on="0"/>
        <pt x="835" y="379" on="1"/>
        <pt x="817" y="385" on="1"/>
        <pt x="727" y="469" on="1"/>
        <pt x="676" y="426" on="0"/>
        <pt x="548" y="381" on="0"/>
        <pt x="479" y="381" on="1"/>
        <pt x="410" y="381" on="0"/>
        <pt x="282" y="426" on="0"/>
        <pt x="231" y="469" on="1"/>
        <pt x="215" y="453" on="1"/>
        <pt x="205" y="443" on="0"/>
        <pt x="177" y="417" on="0"/>
        <pt x="151" y="395" on="0"/>
        <pt x="129" y="379" on="0"/>
        <pt x="125" y="379" on="1"/>
        <pt x="108" y="385" on="1"/>
        <pt x="92" y="398" on="0"/>
        <pt x="92" y="410" on="1"/>
        <pt x="103" y="427" on="0"/>
        <pt x="123" y="446" on="0"/>
        <pt x="135" y="457" on="1"/>
        <pt x="188" y="508" on="1"/>
        <pt x="96" y="615" on="0"/>
        <pt x="96" y="748" on="1"/>
        <pt x="96" y="814" on="0"/>
        <pt x="140" y="938" on="0"/>
        <pt x="188" y="987" on="1"/>
        <pt x="180" y="992" on="0"/>
        <pt x="149" y="1019" on="0"/>
        <pt x="116" y="1050" on="0"/>
        <pt x="92" y="1079" on="0"/>
        <pt x="92" y="1087" on="1"/>
        <pt x="98" y="1102" on="1"/>
        <pt x="103" y="1107" on="0"/>
        <pt x="114" y="1118" on="0"/>
        <pt x="125" y="1118" on="1"/>
        <pt x="141" y="1112" on="1"/>
        <pt x="231" y="1028" on="1"/>
        <pt x="282" y="1071" on="0"/>
        <pt x="410" y="1116" on="0"/>
        <pt x="479" y="1116" on="1"/>
        <pt x="548" y="1116" on="0"/>
        <pt x="676" y="1071" on="0"/>
        <pt x="727" y="1028" on="1"/>
        <pt x="732" y="1033" on="0"/>
        <pt x="761" y="1063" on="0"/>
        <pt x="795" y="1094" on="0"/>
        <pt x="827" y="1118" on="0"/>
        <pt x="835" y="1118" on="1"/>
        <pt x="836" y="1117" on="0"/>
        <pt x="846" y="1113" on="0"/>
        <pt x="857" y="1105" on="0"/>
        <pt x="866" y="1094" on="0"/>
        <pt x="866" y="1087" on="1"/>
        <pt x="860" y="1071" on="1"/>
        <pt x="770" y="987" on="1"/>
        <pt x="818" y="938" on="0"/>
        <pt x="862" y="814" on="0"/>
        <pt x="862" y="748" on="1"/>
        <pt x="862" y="691" on="0"/>
        <pt x="825" y="575" on="0"/>
        <pt x="788" y="530" on="1"/>
        <pt x="770" y="508" on="1"/>
        <pt x="775" y="506" on="0"/>
        <pt x="780" y="499" on="0"/>
      </contour>
      <contour>
        <pt x="781" y="748" on="1"/>
        <pt x="781" y="808" on="0"/>
        <pt x="734" y="914" on="0"/>
        <pt x="653" y="994" on="0"/>
        <pt x="543" y="1041" on="0"/>
        <pt x="480" y="1041" on="1"/>
        <pt x="417" y="1041" on="0"/>
        <pt x="307" y="996" on="0"/>
        <pt x="225" y="917" on="0"/>
        <pt x="178" y="810" on="0"/>
        <pt x="178" y="748" on="1"/>
        <pt x="178" y="688" on="0"/>
        <pt x="226" y="581" on="0"/>
        <pt x="308" y="501" on="0"/>
        <pt x="418" y="454" on="0"/>
        <pt x="480" y="454" on="1"/>
        <pt x="543" y="454" on="0"/>
        <pt x="652" y="501" on="0"/>
        <pt x="734" y="581" on="0"/>
        <pt x="781" y="688" on="0"/>
      </contour>
    </TTGlyph>
    <TTGlyph name="d" xMin="123" yMin="-10" xMax="1096" yMax="1114">
      <contour>
        <pt x="566" y="-10" on="1"/>
        <pt x="476" y="-10" on="0"/>
        <pt x="315" y="27" on="0"/>
        <pt x="194" y="117" on="0"/>
        <pt x="123" y="267" on="0"/>
        <pt x="123" y="380" on="1"/>
        <pt x="123" y="492" on="0"/>
        <pt x="182" y="647" on="0"/>
        <pt x="295" y="743" on="0"/>
        <pt x="460" y="786" on="0"/>
        <pt x="566" y="786" on="1"/>
        <pt x="672" y="786" on="0"/>
        <pt x="824" y="761" on="0"/>
        <pt x="929" y="723" on="0"/>
        <pt x="996" y="678" on="0"/>
        <pt x="1016" y="659" on="1"/>
        <pt x="1016" y="1043" on="1"/>
        <pt x="1016" y="1056" on="0"/>
        <pt x="1017" y="1082" on="0"/>
        <pt x="1025" y="1102" on="0"/>
        <pt x="1040" y="1114" on="0"/>
        <pt x="1055" y="1114" on="1"/>
        <pt x="1070" y="1114" on="0"/>
        <pt x="1086" y="1103" on="0"/>
        <pt x="1094" y="1085" on="0"/>
        <pt x="1096" y="1060" on="0"/>
        <pt x="1096" y="1045" on="1"/>
        <pt x="1096" y="54" on="1"/>
        <pt x="1096" y="22" on="0"/>
        <pt x="1071" y="0" on="0"/>
        <pt x="1057" y="0" on="1"/>
        <pt x="1040" y="0" on="0"/>
        <pt x="1016" y="20" on="0"/>
        <pt x="1016" y="52" on="1"/>
        <pt x="1016" y="191" on="1"/>
        <pt x="1005" y="148" on="0"/>
        <pt x="949" y="85" on="0"/>
        <pt x="872" y="41" on="0"/>
        <pt x="780" y="12" on="0"/>
        <pt x="687" y="-4" on="0"/>
        <pt x="600" y="-10" on="0"/>
      </contour>
      <contour>
        <pt x="566" y="49" on="1"/>
        <pt x="626" y="50" on="0"/>
        <pt x="768" y="67" on="0"/>
        <pt x="898" y="111" on="0"/>
        <pt x="998" y="189" on="0"/>
        <pt x="1016" y="252" on="1"/>
        <pt x="1016" y="612" on="1"/>
        <pt x="993" y="630" on="0"/>
        <pt x="922" y="670" on="0"/>
        <pt x="815" y="705" on="0"/>
        <pt x="666" y="727" on="0"/>
        <pt x="566" y="727" on="1"/>
        <pt x="470" y="727" on="0"/>
        <pt x="333" y="687" on="0"/>
        <pt x="244" y="602" on="0"/>
        <pt x="203" y="471" on="0"/>
        <pt x="203" y="380" on="1"/>
        <pt x="203" y="285" on="0"/>
        <pt x="260" y="158" on="0"/>
        <pt x="358" y="82" on="0"/>
        <pt x="491" y="49" on="0"/>
      </contour>
    </TTGlyph>
    <TTGlyph name="degree" xMin="66" yMin="885" xMax="301" yMax="1110">
      <contour>
        <pt x="301" y="997" on="1"/>
        <pt x="301" y="973" on="0"/>
        <pt x="282" y="932" on="0"/>
        <pt x="251" y="902" on="0"/>
        <pt x="208" y="885" on="0"/>
        <pt x="184" y="885" on="1"/>
        <pt x="160" y="885" on="0"/>
        <pt x="118" y="902" on="0"/>
        <pt x="85" y="932" on="0"/>
        <pt x="66" y="973" on="0"/>
        <pt x="66" y="997" on="1"/>
        <pt x="66" y="1021" on="0"/>
        <pt x="84" y="1062" on="0"/>
        <pt x="116" y="1093" on="0"/>
        <pt x="159" y="1110" on="0"/>
        <pt x="184" y="1110" on="1"/>
        <pt x="208" y="1110" on="0"/>
        <pt x="251" y="1093" on="0"/>
        <pt x="282" y="1062" on="0"/>
        <pt x="301" y="1021" on="0"/>
      </contour>
      <contour>
        <pt x="117" y="997" on="1"/>
        <pt x="117" y="971" on="0"/>
        <pt x="156" y="932" on="0"/>
        <pt x="184" y="932" on="1"/>
        <pt x="212" y="932" on="0"/>
        <pt x="252" y="971" on="0"/>
        <pt x="252" y="997" on="1"/>
        <pt x="252" y="1024" on="0"/>
        <pt x="212" y="1061" on="0"/>
        <pt x="184" y="1061" on="1"/>
        <pt x="156" y="1061" on="0"/>
        <pt x="117" y="1024" on="0"/>
      </contour>
    </TTGlyph>
    <TTGlyph name="dieresis" xMin="87" yMin="940" xMax="644" yMax="1055">
      <contour>
        <pt x="87" y="996" on="1"/>
        <pt x="87" y="1022" on="0"/>
        <pt x="119" y="1055" on="0"/>
        <pt x="145" y="1055" on="1"/>
        <pt x="170" y="1055" on="0"/>
        <pt x="205" y="1022" on="0"/>
        <pt x="205" y="996" on="1"/>
        <pt x="205" y="971" on="0"/>
        <pt x="170" y="940" on="0"/>
        <pt x="145" y="940" on="1"/>
        <pt x="119" y="940" on="0"/>
        <pt x="87" y="971" on="0"/>
      </contour>
      <contour>
        <pt x="526" y="996" on="1"/>
        <pt x="526" y="1022" on="0"/>
        <pt x="558" y="1055" on="0"/>
        <pt x="584" y="1055" on="1"/>
        <pt x="609" y="1055" on="0"/>
        <pt x="644" y="1022" on="0"/>
        <pt x="644" y="996" on="1"/>
        <pt x="644" y="971" on="0"/>
        <pt x="609" y="940" on="0"/>
        <pt x="584" y="940" on="1"/>
        <pt x="558" y="940" on="0"/>
        <pt x="526" y="971" on="0"/>
      </contour>
    </TTGlyph>
    <TTGlyph name="divide" xMin="97" yMin="241" xMax="510" yMax="730">
      <component glyphName="hyphen" x="2" y="0" flags="0x0"/>
      <component glyphName="period" x="184" y="251" flags="0x0"/>
      <component glyphName="period" x="184" y="613" flags="0x0"/>
    </TTGlyph>
    <TTGlyph name="dollar" xMin="110" yMin="-133" xMax="1427" yMax="1296">
      <contour>
        <pt x="1427" y="311" on="1"/>
        <pt x="1427" y="224" on="0"/>
        <pt x="1343" y="103" on="0"/>
        <pt x="1202" y="26" on="0"/>
        <pt x="1015" y="-13" on="0"/>
        <pt x="913" y="-18" on="1"/>
        <pt x="913" y="-63" on="1"/>
        <pt x="913" y="-78" on="0"/>
        <pt x="912" y="-103" on="0"/>
        <pt x="905" y="-122" on="0"/>
        <pt x="891" y="-133" on="0"/>
        <pt x="878" y="-133" on="1"/>
        <pt x="864" y="-133" on="0"/>
        <pt x="849" y="-123" on="0"/>
        <pt x="842" y="-105" on="0"/>
        <pt x="841" y="-83" on="0"/>
        <pt x="841" y="-71" on="1"/>
        <pt x="841" y="-20" on="1"/>
        <pt x="829" y="-20" on="1"/>
        <pt x="794" y="-20" on="0"/>
        <pt x="723" y="-17" on="0"/>
        <pt x="688" y="-15" on="1"/>
        <pt x="688" y="-63" on="1"/>
        <pt x="688" y="-78" on="0"/>
        <pt x="687" y="-103" on="0"/>
        <pt x="680" y="-122" on="0"/>
        <pt x="666" y="-133" on="0"/>
        <pt x="653" y="-133" on="1"/>
        <pt x="639" y="-133" on="0"/>
        <pt x="624" y="-123" on="0"/>
        <pt x="617" y="-105" on="0"/>
        <pt x="616" y="-83" on="0"/>
        <pt x="616" y="-71" on="1"/>
        <pt x="616" y="-9" on="1"/>
        <pt x="538" y="-2" on="0"/>
        <pt x="392" y="21" on="0"/>
        <pt x="269" y="48" on="0"/>
        <pt x="175" y="77" on="0"/>
        <pt x="149" y="90" on="1"/>
        <pt x="135" y="97" on="0"/>
        <pt x="122" y="118" on="0"/>
        <pt x="122" y="129" on="1"/>
        <pt x="122" y="141" on="0"/>
        <pt x="135" y="158" on="0"/>
        <pt x="148" y="158" on="1"/>
        <pt x="154" y="158" on="0"/>
        <pt x="162" y="155" on="1"/>
        <pt x="190" y="143" on="0"/>
        <pt x="283" y="116" on="0"/>
        <pt x="402" y="90" on="0"/>
        <pt x="542" y="67" on="0"/>
        <pt x="616" y="59" on="1"/>
        <pt x="616" y="551" on="1"/>
        <pt x="516" y="558" on="0"/>
        <pt x="333" y="584" on="0"/>
        <pt x="193" y="641" on="0"/>
        <pt x="110" y="738" on="0"/>
        <pt x="110" y="815" on="1"/>
        <pt x="110" y="900" on="0"/>
        <pt x="193" y="1017" on="0"/>
        <pt x="333" y="1091" on="0"/>
        <pt x="516" y="1127" on="0"/>
        <pt x="616" y="1132" on="1"/>
        <pt x="616" y="1230" on="1"/>
        <pt x="616" y="1243" on="0"/>
        <pt x="617" y="1267" on="0"/>
        <pt x="624" y="1285" on="0"/>
        <pt x="639" y="1296" on="0"/>
        <pt x="653" y="1296" on="1"/>
        <pt x="666" y="1296" on="0"/>
        <pt x="680" y="1284" on="0"/>
        <pt x="687" y="1265" on="0"/>
        <pt x="688" y="1240" on="0"/>
        <pt x="688" y="1227" on="1"/>
        <pt x="688" y="1135" on="1"/>
        <pt x="716" y="1135" on="1"/>
        <pt x="748" y="1135" on="0"/>
        <pt x="810" y="1132" on="0"/>
        <pt x="841" y="1130" on="1"/>
        <pt x="841" y="1230" on="1"/>
        <pt x="841" y="1243" on="0"/>
        <pt x="842" y="1267" on="0"/>
        <pt x="849" y="1285" on="0"/>
        <pt x="864" y="1296" on="0"/>
        <pt x="878" y="1296" on="1"/>
        <pt x="891" y="1296" on="0"/>
        <pt x="905" y="1284" on="0"/>
        <pt x="912" y="1265" on="0"/>
        <pt x="913" y="1240" on="0"/>
        <pt x="913" y="1227" on="1"/>
        <pt x="913" y="1125" on="1"/>
        <pt x="977" y="1119" on="0"/>
        <pt x="1097" y="1099" on="0"/>
        <pt x="1200" y="1075" on="0"/>
        <pt x="1283" y="1049" on="0"/>
        <pt x="1311" y="1036" on="1"/>
        <pt x="1319" y="1032" on="0"/>
        <pt x="1327" y="1017" on="0"/>
        <pt x="1327" y="1009" on="1"/>
        <pt x="1327" y="995" on="0"/>
        <pt x="1308" y="971" on="0"/>
        <pt x="1291" y="971" on="1"/>
        <pt x="1281" y="971" on="0"/>
        <pt x="1274" y="975" on="1"/>
        <pt x="1202" y="1004" on="0"/>
        <pt x="1016" y="1047" on="0"/>
        <pt x="913" y="1058" on="1"/>
        <pt x="913" y="610" on="1"/>
        <pt x="1014" y="601" on="0"/>
        <pt x="1200" y="568" on="0"/>
        <pt x="1342" y="503" on="0"/>
        <pt x="1427" y="395" on="0"/>
      </contour>
      <contour>
        <pt x="1342" y="311" on="1"/>
        <pt x="1342" y="373" on="0"/>
        <pt x="1274" y="454" on="0"/>
        <pt x="1157" y="503" on="0"/>
        <pt x="1001" y="528" on="0"/>
        <pt x="913" y="534" on="1"/>
        <pt x="913" y="47" on="1"/>
        <pt x="1001" y="51" on="0"/>
        <pt x="1158" y="83" on="0"/>
        <pt x="1274" y="145" on="0"/>
        <pt x="1342" y="242" on="0"/>
      </contour>
      <contour>
        <pt x="195" y="821" on="1"/>
        <pt x="195" y="767" on="0"/>
        <pt x="262" y="698" on="0"/>
        <pt x="376" y="656" on="0"/>
        <pt x="529" y="635" on="0"/>
        <pt x="616" y="629" on="1"/>
        <pt x="616" y="1066" on="1"/>
        <pt x="529" y="1061" on="0"/>
        <pt x="376" y="1030" on="0"/>
        <pt x="261" y="971" on="0"/>
        <pt x="195" y="883" on="0"/>
      </contour>
      <contour>
        <pt x="841" y="46" on="1"/>
        <pt x="841" y="539" on="1"/>
        <pt x="688" y="539" on="1"/>
        <pt x="688" y="52" on="1"/>
        <pt x="764" y="46" on="0"/>
      </contour>
      <contour>
        <pt x="720" y="1069" on="1"/>
        <pt x="712" y="1069" on="0"/>
        <pt x="696" y="1068" on="0"/>
        <pt x="688" y="1068" on="1"/>
        <pt x="688" y="624" on="1"/>
        <pt x="726" y="622" on="0"/>
        <pt x="802" y="618" on="0"/>
        <pt x="841" y="615" on="1"/>
        <pt x="841" y="1065" on="1"/>
        <pt x="810" y="1067" on="0"/>
        <pt x="750" y="1069" on="0"/>
      </contour>
    </TTGlyph>
    <TTGlyph name="dotaccent" xMin="104" yMin="999" xMax="222" yMax="1114">
      <contour>
        <pt x="104" y="1055" on="1"/>
        <pt x="104" y="1081" on="0"/>
        <pt x="136" y="1114" on="0"/>
        <pt x="162" y="1114" on="1"/>
        <pt x="187" y="1114" on="0"/>
        <pt x="222" y="1081" on="0"/>
        <pt x="222" y="1055" on="1"/>
        <pt x="222" y="1030" on="0"/>
        <pt x="187" y="999" on="0"/>
        <pt x="162" y="999" on="1"/>
        <pt x="136" y="999" on="0"/>
        <pt x="104" y="1030" on="0"/>
      </contour>
    </TTGlyph>
    <TTGlyph name="dotaccentcmb" xMin="104" yMin="999" xMax="222" yMax="1114">
      <contour>
        <pt x="104" y="1055" on="1"/>
        <pt x="104" y="1081" on="0"/>
        <pt x="136" y="1114" on="0"/>
        <pt x="162" y="1114" on="1"/>
        <pt x="187" y="1114" on="0"/>
        <pt x="222" y="1081" on="0"/>
        <pt x="222" y="1055" on="1"/>
        <pt x="222" y="1030" on="0"/>
        <pt x="187" y="999" on="0"/>
        <pt x="162" y="999" on="1"/>
        <pt x="136" y="999" on="0"/>
        <pt x="104" y="1030" on="0"/>
      </contour>
    </TTGlyph>
    <TTGlyph name="dotlessi" xMin="116" yMin="0" xMax="196" yMax="775">
      <contour>
        <pt x="196" y="63" on="1"/>
        <pt x="196" y="50" on="0"/>
        <pt x="194" y="27" on="0"/>
        <pt x="187" y="10" on="0"/>
        <pt x="171" y="0" on="0"/>
        <pt x="156" y="0" on="1"/>
        <pt x="128" y="0" on="0"/>
        <pt x="116" y="34" on="0"/>
        <pt x="116" y="63" on="1"/>
        <pt x="116" y="705" on="1"/>
        <pt x="116" y="734" on="0"/>
        <pt x="128" y="775" on="0"/>
        <pt x="156" y="775" on="1"/>
        <pt x="181" y="775" on="0"/>
        <pt x="196" y="733" on="0"/>
        <pt x="196" y="707" on="1"/>
      </contour>
    </TTGlyph>
    <TTGlyph name="dotlessj" xMin="0" yMin="-266" xMax="359" yMax="775">
      <contour>
        <pt x="359" y="94" on="1"/>
        <pt x="359" y="59" on="0"/>
        <pt x="356" y="-21" on="0"/>
        <pt x="339" y="-101" on="0"/>
        <pt x="303" y="-175" on="0"/>
        <pt x="238" y="-232" on="0"/>
        <pt x="138" y="-266" on="0"/>
        <pt x="66" y="-266" on="1"/>
        <pt x="53" y="-266" on="0"/>
        <pt x="29" y="-265" on="0"/>
        <pt x="11" y="-258" on="0"/>
        <pt x="0" y="-244" on="0"/>
        <pt x="0" y="-231" on="1"/>
        <pt x="0" y="-218" on="0"/>
        <pt x="11" y="-204" on="0"/>
        <pt x="29" y="-198" on="0"/>
        <pt x="53" y="-197" on="0"/>
        <pt x="66" y="-197" on="1"/>
        <pt x="149" y="-197" on="0"/>
        <pt x="236" y="-145" on="0"/>
        <pt x="275" y="-62" on="0"/>
        <pt x="279" y="42" on="0"/>
        <pt x="279" y="94" on="1"/>
        <pt x="279" y="714" on="1"/>
        <pt x="279" y="740" on="0"/>
        <pt x="294" y="775" on="0"/>
        <pt x="320" y="775" on="1"/>
        <pt x="335" y="775" on="0"/>
        <pt x="350" y="766" on="0"/>
        <pt x="358" y="749" on="0"/>
        <pt x="359" y="727" on="0"/>
        <pt x="359" y="714" on="1"/>
      </contour>
    </TTGlyph>
    <TTGlyph name="e" xMin="121" yMin="-10" xMax="1015" yMax="786">
      <contour>
        <pt x="600" y="727" on="1"/>
        <pt x="507" y="727" on="0"/>
        <pt x="363" y="695" on="0"/>
        <pt x="262" y="624" on="0"/>
        <pt x="206" y="512" on="0"/>
        <pt x="202" y="431" on="1"/>
        <pt x="956" y="431" on="1"/>
        <pt x="956" y="485" on="1"/>
        <pt x="956" y="535" on="0"/>
        <pt x="919" y="623" on="0"/>
        <pt x="835" y="689" on="0"/>
        <pt x="699" y="727" on="0"/>
      </contour>
      <contour>
        <pt x="548" y="49" on="1"/>
        <pt x="643" y="49" on="0"/>
        <pt x="785" y="73" on="0"/>
        <pt x="887" y="107" on="0"/>
        <pt x="952" y="143" on="0"/>
        <pt x="970" y="155" on="1"/>
        <pt x="976" y="157" on="0"/>
        <pt x="978" y="157" on="1"/>
        <pt x="989" y="157" on="0"/>
        <pt x="1008" y="136" on="0"/>
        <pt x="1008" y="124" on="1"/>
        <pt x="1008" y="113" on="0"/>
        <pt x="998" y="106" on="1"/>
        <pt x="989" y="97" on="0"/>
        <pt x="930" y="59" on="0"/>
        <pt x="820" y="20" on="0"/>
        <pt x="658" y="-10" on="0"/>
        <pt x="547" y="-10" on="1"/>
        <pt x="431" y="-10" on="0"/>
        <pt x="269" y="48" on="0"/>
        <pt x="167" y="152" on="0"/>
        <pt x="121" y="298" on="0"/>
        <pt x="121" y="385" on="1"/>
        <pt x="121" y="501" on="0"/>
        <pt x="195" y="655" on="0"/>
        <pt x="324" y="748" on="0"/>
        <pt x="499" y="786" on="0"/>
        <pt x="600" y="786" on="1"/>
        <pt x="808" y="786" on="0"/>
        <pt x="1015" y="627" on="0"/>
        <pt x="1015" y="479" on="1"/>
        <pt x="1015" y="465" on="0"/>
        <pt x="1011" y="431" on="0"/>
        <pt x="1004" y="400" on="0"/>
        <pt x="995" y="379" on="0"/>
        <pt x="991" y="379" on="1"/>
        <pt x="697" y="379" on="1"/>
        <pt x="201" y="389" on="1"/>
        <pt x="203" y="296" on="0"/>
        <pt x="248" y="167" on="0"/>
        <pt x="335" y="86" on="0"/>
        <pt x="463" y="49" on="0"/>
      </contour>
    </TTGlyph>
    <TTGlyph name="eacute" xMin="121" yMin="-10" xMax="1015" yMax="1288">
      <component glyphName="e" x="0" y="0" flags="0x204"/>
      <component glyphName="acute" x="379" y="0" flags="0x4"/>
    </TTGlyph>
    <TTGlyph name="ecircumflex" xMin="121" yMin="-10" xMax="1015" yMax="1165">
      <component glyphName="e" x="0" y="0" flags="0x204"/>
      <component glyphName="circumflex" x="327" y="0" flags="0x4"/>
    </TTGlyph>
    <TTGlyph name="edieresis" xMin="121" yMin="-10" xMax="1015" yMax="1064">
      <component glyphName="e" x="0" y="0" flags="0x204"/>
      <component glyphName="dieresis" x="193" y="9" flags="0x4"/>
    </TTGlyph>
    <TTGlyph name="egrave" xMin="121" yMin="-10" xMax="1015" yMax="1300">
      <component glyphName="e" x="0" y="0" flags="0x204"/>
      <component glyphName="grave" x="382" y="0" flags="0x4"/>
    </TTGlyph>
    <TTGlyph name="eight" xMin="87" yMin="-21" xMax="943" yMax="1135">
      <contour>
        <pt x="515" y="567" on="1"/>
        <pt x="408" y="567" on="0"/>
        <pt x="268" y="525" on="0"/>
        <pt x="186" y="455" on="0"/>
        <pt x="153" y="363" on="0"/>
        <pt x="153" y="313" on="1"/>
        <pt x="153" y="255" on="0"/>
        <pt x="189" y="157" on="0"/>
        <pt x="273" y="85" on="0"/>
        <pt x="412" y="45" on="0"/>
        <pt x="515" y="45" on="1"/>
        <pt x="618" y="45" on="0"/>
        <pt x="757" y="85" on="0"/>
        <pt x="841" y="157" on="0"/>
        <pt x="877" y="255" on="0"/>
        <pt x="877" y="313" on="1"/>
        <pt x="877" y="363" on="0"/>
        <pt x="844" y="455" on="0"/>
        <pt x="762" y="525" on="0"/>
        <pt x="622" y="567" on="0"/>
      </contour>
      <contour>
        <pt x="515" y="-21" on="1"/>
        <pt x="396" y="-21" on="0"/>
        <pt x="233" y="29" on="0"/>
        <pt x="132" y="118" on="0"/>
        <pt x="87" y="238" on="0"/>
        <pt x="87" y="307" on="1"/>
        <pt x="87" y="366" on="0"/>
        <pt x="116" y="464" on="0"/>
        <pt x="182" y="539" on="0"/>
        <pt x="289" y="591" on="0"/>
        <pt x="366" y="604" on="1"/>
        <pt x="291" y="614" on="0"/>
        <pt x="193" y="668" on="0"/>
        <pt x="136" y="738" on="0"/>
        <pt x="114" y="816" on="0"/>
        <pt x="114" y="850" on="1"/>
        <pt x="114" y="902" on="0"/>
        <pt x="150" y="1004" on="0"/>
        <pt x="240" y="1085" on="0"/>
        <pt x="395" y="1135" on="0"/>
        <pt x="515" y="1135" on="1"/>
        <pt x="635" y="1135" on="0"/>
        <pt x="790" y="1085" on="0"/>
        <pt x="880" y="1004" on="0"/>
        <pt x="916" y="902" on="0"/>
        <pt x="916" y="850" on="1"/>
        <pt x="916" y="816" on="0"/>
        <pt x="894" y="738" on="0"/>
        <pt x="837" y="668" on="0"/>
        <pt x="739" y="614" on="0"/>
        <pt x="664" y="604" on="1"/>
        <pt x="741" y="591" on="0"/>
        <pt x="848" y="539" on="0"/>
        <pt x="914" y="464" on="0"/>
        <pt x="943" y="366" on="0"/>
        <pt x="943" y="307" on="1"/>
        <pt x="943" y="238" on="0"/>
        <pt x="898" y="118" on="0"/>
        <pt x="797" y="29" on="0"/>
        <pt x="633" y="-21" on="0"/>
      </contour>
      <contour>
        <pt x="515" y="637" on="1"/>
        <pt x="611" y="637" on="0"/>
        <pt x="738" y="674" on="0"/>
        <pt x="814" y="734" on="0"/>
        <pt x="845" y="811" on="0"/>
        <pt x="845" y="851" on="1"/>
        <pt x="845" y="890" on="0"/>
        <pt x="817" y="967" on="0"/>
        <pt x="743" y="1030" on="0"/>
        <pt x="615" y="1069" on="0"/>
        <pt x="515" y="1069" on="1"/>
        <pt x="415" y="1069" on="0"/>
        <pt x="287" y="1030" on="0"/>
        <pt x="213" y="967" on="0"/>
        <pt x="185" y="890" on="0"/>
        <pt x="185" y="851" on="1"/>
        <pt x="185" y="811" on="0"/>
        <pt x="216" y="734" on="0"/>
        <pt x="292" y="674" on="0"/>
        <pt x="419" y="637" on="0"/>
      </contour>
    </TTGlyph>
    <TTGlyph name="emacron" xMin="121" yMin="-10" xMax="1015" yMax="981">
      <component glyphName="e" x="0" y="0" flags="0x204"/>
      <component glyphName="macron" x="231" y="0" flags="0x4"/>
    </TTGlyph>
    <TTGlyph name="emdash" xMin="85" yMin="184" xMax="1350" yMax="272">
      <contour>
        <pt x="1350" y="228" on="1"/>
        <pt x="1350" y="211" on="0"/>
        <pt x="1332" y="184" on="0"/>
        <pt x="1312" y="184" on="1"/>
        <pt x="122" y="184" on="1"/>
        <pt x="102" y="184" on="0"/>
        <pt x="85" y="211" on="0"/>
        <pt x="85" y="228" on="1"/>
        <pt x="85" y="245" on="0"/>
        <pt x="102" y="272" on="0"/>
        <pt x="122" y="272" on="1"/>
        <pt x="1312" y="272" on="1"/>
        <pt x="1332" y="272" on="0"/>
        <pt x="1350" y="245" on="0"/>
      </contour>
    </TTGlyph>
    <TTGlyph name="endash" xMin="96" yMin="514" xMax="509" yMax="588">
      <component glyphName="hyphen" x="1" y="70" flags="0x0"/>
    </TTGlyph>
    <TTGlyph name="eogonek" xMin="121" yMin="-230" xMax="1015" yMax="786">
      <component glyphName="e" x="0" y="0" flags="0x204"/>
      <component glyphName="ogonek" x="702" y="49" flags="0x4"/>
    </TTGlyph>
    <TTGlyph name="equal" xMin="125" yMin="470" xMax="781" yMax="667">
      <contour>
        <pt x="779" y="499" on="1"/>
        <pt x="779" y="488" on="0"/>
        <pt x="767" y="470" on="0"/>
        <pt x="754" y="470" on="1"/>
        <pt x="149" y="470" on="1"/>
        <pt x="136" y="470" on="0"/>
        <pt x="125" y="488" on="0"/>
        <pt x="125" y="499" on="1"/>
        <pt x="125" y="510" on="0"/>
        <pt x="136" y="528" on="0"/>
        <pt x="149" y="528" on="1"/>
        <pt x="754" y="528" on="1"/>
        <pt x="767" y="528" on="0"/>
        <pt x="779" y="510" on="0"/>
      </contour>
      <contour>
        <pt x="781" y="638" on="1"/>
        <pt x="781" y="627" on="0"/>
        <pt x="769" y="609" on="0"/>
        <pt x="756" y="609" on="1"/>
        <pt x="151" y="609" on="1"/>
        <pt x="138" y="609" on="0"/>
        <pt x="127" y="627" on="0"/>
        <pt x="127" y="638" on="1"/>
        <pt x="127" y="649" on="0"/>
        <pt x="138" y="667" on="0"/>
        <pt x="151" y="667" on="1"/>
        <pt x="756" y="667" on="1"/>
        <pt x="769" y="667" on="0"/>
        <pt x="781" y="649" on="0"/>
      </contour>
    </TTGlyph>
    <TTGlyph name="eth" xMin="123" yMin="-20" xMax="1080" yMax="1134">
      <contour>
        <pt x="1046" y="1016" on="1"/>
        <pt x="1054" y="1018" on="0"/>
        <pt x="1058" y="1018" on="1"/>
        <pt x="1069" y="1018" on="0"/>
        <pt x="1080" y="1003" on="0"/>
        <pt x="1080" y="995" on="1"/>
        <pt x="1080" y="980" on="0"/>
        <pt x="1061" y="974" on="1"/>
        <pt x="652" y="835" on="1"/>
        <pt x="644" y="832" on="0"/>
        <pt x="639" y="832" on="1"/>
        <pt x="628" y="832" on="0"/>
        <pt x="617" y="847" on="0"/>
        <pt x="617" y="855" on="1"/>
        <pt x="617" y="869" on="0"/>
        <pt x="637" y="877" on="1"/>
      </contour>
      <contour>
        <pt x="978" y="557" on="1"/>
        <pt x="978" y="396" on="0"/>
        <pt x="934" y="175" on="0"/>
        <pt x="835" y="39" on="0"/>
        <pt x="675" y="-20" on="0"/>
        <pt x="559" y="-20" on="1"/>
        <pt x="437" y="-20" on="0"/>
        <pt x="271" y="34" on="0"/>
        <pt x="168" y="122" on="0"/>
        <pt x="123" y="237" on="0"/>
        <pt x="123" y="298" on="1"/>
        <pt x="123" y="397" on="0"/>
        <pt x="180" y="525" on="0"/>
        <pt x="293" y="598" on="0"/>
        <pt x="461" y="627" on="0"/>
        <pt x="572" y="627" on="1"/>
        <pt x="647" y="627" on="0"/>
        <pt x="755" y="618" on="0"/>
        <pt x="833" y="604" on="0"/>
        <pt x="884" y="587" on="0"/>
        <pt x="901" y="579" on="1"/>
        <pt x="901" y="744" on="0"/>
        <pt x="851" y="938" on="0"/>
        <pt x="755" y="1037" on="0"/>
        <pt x="616" y="1065" on="0"/>
        <pt x="526" y="1065" on="1"/>
        <pt x="438" y="1065" on="0"/>
        <pt x="291" y="1032" on="0"/>
        <pt x="234" y="1015" on="1"/>
        <pt x="216" y="1010" on="0"/>
        <pt x="208" y="1010" on="1"/>
        <pt x="191" y="1010" on="0"/>
        <pt x="172" y="1025" on="0"/>
        <pt x="172" y="1036" on="1"/>
        <pt x="172" y="1055" on="0"/>
        <pt x="241" y="1091" on="0"/>
        <pt x="346" y="1118" on="0"/>
        <pt x="470" y="1134" on="0"/>
        <pt x="526" y="1134" on="1"/>
        <pt x="662" y="1134" on="0"/>
        <pt x="838" y="1071" on="0"/>
        <pt x="939" y="933" on="0"/>
        <pt x="978" y="714" on="0"/>
      </contour>
      <contour>
        <pt x="901" y="526" on="1"/>
        <pt x="876" y="531" on="0"/>
        <pt x="814" y="542" on="0"/>
        <pt x="734" y="551" on="0"/>
        <pt x="635" y="557" on="0"/>
        <pt x="572" y="557" on="1"/>
        <pt x="478" y="557" on="0"/>
        <pt x="338" y="542" on="0"/>
        <pt x="245" y="490" on="0"/>
        <pt x="199" y="391" on="0"/>
        <pt x="199" y="306" on="1"/>
        <pt x="199" y="257" on="0"/>
        <pt x="231" y="165" on="0"/>
        <pt x="312" y="93" on="0"/>
        <pt x="450" y="49" on="0"/>
        <pt x="555" y="49" on="1"/>
        <pt x="651" y="49" on="0"/>
        <pt x="783" y="96" on="0"/>
        <pt x="865" y="206" on="0"/>
        <pt x="901" y="389" on="0"/>
      </contour>
    </TTGlyph>
    <TTGlyph name="exclam" xMin="108" yMin="-10" xMax="226" yMax="1110">
      <contour>
        <pt x="108" y="1065" on="1"/>
        <pt x="108" y="1090" on="0"/>
        <pt x="143" y="1110" on="0"/>
        <pt x="164" y="1110" on="1"/>
        <pt x="186" y="1110" on="0"/>
        <pt x="221" y="1087" on="0"/>
        <pt x="221" y="1063" on="1"/>
        <pt x="189" y="250" on="1"/>
        <pt x="188" y="236" on="0"/>
        <pt x="174" y="221" on="0"/>
        <pt x="164" y="221" on="1"/>
        <pt x="155" y="221" on="0"/>
        <pt x="141" y="236" on="0"/>
        <pt x="140" y="250" on="1"/>
        <pt x="132" y="453" on="0"/>
        <pt x="121" y="732" on="0"/>
        <pt x="114" y="913" on="0"/>
        <pt x="110" y="1011" on="0"/>
        <pt x="108" y="1057" on="0"/>
        <pt x="108" y="1065" on="0"/>
      </contour>
      <contour>
        <pt x="108" y="46" on="1"/>
        <pt x="108" y="72" on="0"/>
        <pt x="140" y="105" on="0"/>
        <pt x="166" y="105" on="1"/>
        <pt x="191" y="105" on="0"/>
        <pt x="226" y="72" on="0"/>
        <pt x="226" y="46" on="1"/>
        <pt x="226" y="21" on="0"/>
        <pt x="191" y="-10" on="0"/>
        <pt x="166" y="-10" on="1"/>
        <pt x="140" y="-10" on="0"/>
        <pt x="108" y="21" on="0"/>
      </contour>
    </TTGlyph>
    <TTGlyph name="exclamdown" xMin="108" yMin="-10" xMax="226" yMax="1109">
      <component glyphName="exclam" x="0" y="1100" scalex="1.0" scaley="-0.999877929688" flags="0x4"/>
    </TTGlyph>
    <TTGlyph name="f" xMin="68" yMin="0" xMax="686" yMax="1105">
      <contour>
        <pt x="264" y="751" on="1"/>
        <pt x="629" y="751" on="1"/>
        <pt x="644" y="751" on="0"/>
        <pt x="659" y="736" on="0"/>
        <pt x="659" y="727" on="1"/>
        <pt x="659" y="718" on="0"/>
        <pt x="643" y="703" on="0"/>
        <pt x="629" y="703" on="1"/>
        <pt x="264" y="703" on="1"/>
        <pt x="264" y="49" on="1"/>
        <pt x="264" y="17" on="0"/>
        <pt x="241" y="0" on="0"/>
        <pt x="224" y="0" on="1"/>
        <pt x="210" y="0" on="0"/>
        <pt x="184" y="17" on="0"/>
        <pt x="184" y="49" on="1"/>
        <pt x="184" y="703" on="1"/>
        <pt x="96" y="703" on="1"/>
        <pt x="82" y="703" on="0"/>
        <pt x="68" y="718" on="0"/>
        <pt x="68" y="727" on="1"/>
        <pt x="68" y="736" on="0"/>
        <pt x="82" y="751" on="0"/>
        <pt x="96" y="751" on="1"/>
        <pt x="185" y="751" on="1"/>
        <pt x="185" y="816" on="1"/>
        <pt x="185" y="897" on="0"/>
        <pt x="218" y="1008" on="0"/>
        <pt x="279" y="1075" on="0"/>
        <pt x="365" y="1105" on="0"/>
        <pt x="419" y="1105" on="1"/>
        <pt x="449" y="1105" on="0"/>
        <pt x="503" y="1102" on="0"/>
        <pt x="558" y="1093" on="0"/>
        <pt x="619" y="1078" on="0"/>
        <pt x="655" y="1066" on="1"/>
        <pt x="686" y="1056" on="0"/>
        <pt x="686" y="1035" on="1"/>
        <pt x="686" y="1027" on="0"/>
        <pt x="670" y="1010" on="0"/>
        <pt x="655" y="1010" on="1"/>
        <pt x="643" y="1010" on="0"/>
        <pt x="636" y="1014" on="1"/>
        <pt x="582" y="1033" on="0"/>
        <pt x="481" y="1047" on="0"/>
        <pt x="433" y="1047" on="1"/>
        <pt x="394" y="1047" on="0"/>
        <pt x="331" y="1030" on="0"/>
        <pt x="287" y="980" on="0"/>
        <pt x="264" y="889" on="0"/>
        <pt x="264" y="816" on="1"/>
      </contour>
    </TTGlyph>
    <TTGlyph name="five" xMin="85" yMin="-40" xMax="804" yMax="1094">
      <contour>
        <pt x="439" y="29" on="1"/>
        <pt x="521" y="29" on="0"/>
        <pt x="633" y="72" on="0"/>
        <pt x="701" y="151" on="0"/>
        <pt x="730" y="261" on="0"/>
        <pt x="730" y="328" on="1"/>
        <pt x="730" y="383" on="0"/>
        <pt x="701" y="462" on="0"/>
        <pt x="634" y="513" on="0"/>
        <pt x="522" y="537" on="0"/>
        <pt x="439" y="537" on="1"/>
        <pt x="189" y="537" on="1"/>
        <pt x="175" y="537" on="0"/>
        <pt x="146" y="538" on="0"/>
        <pt x="122" y="548" on="0"/>
        <pt x="106" y="571" on="0"/>
        <pt x="106" y="592" on="1"/>
        <pt x="106" y="605" on="0"/>
        <pt x="107" y="607" on="1"/>
        <pt x="147" y="1024" on="1"/>
        <pt x="148" y="1036" on="0"/>
        <pt x="151" y="1061" on="0"/>
        <pt x="164" y="1081" on="0"/>
        <pt x="193" y="1094" on="0"/>
        <pt x="220" y="1094" on="1"/>
        <pt x="658" y="1094" on="1"/>
        <pt x="678" y="1094" on="0"/>
        <pt x="698" y="1073" on="0"/>
        <pt x="698" y="1059" on="1"/>
        <pt x="698" y="1046" on="0"/>
        <pt x="678" y="1025" on="0"/>
        <pt x="658" y="1025" on="1"/>
        <pt x="220" y="1025" on="1"/>
        <pt x="180" y="607" on="1"/>
        <pt x="439" y="607" on="1"/>
        <pt x="521" y="607" on="0"/>
        <pt x="656" y="578" on="0"/>
        <pt x="752" y="512" on="0"/>
        <pt x="804" y="403" on="0"/>
        <pt x="804" y="324" on="1"/>
        <pt x="804" y="222" on="0"/>
        <pt x="752" y="83" on="0"/>
        <pt x="656" y="-3" on="0"/>
        <pt x="521" y="-40" on="0"/>
        <pt x="439" y="-40" on="1"/>
        <pt x="380" y="-40" on="0"/>
        <pt x="254" y="-23" on="0"/>
        <pt x="151" y="4" on="0"/>
        <pt x="85" y="40" on="0"/>
        <pt x="85" y="58" on="1"/>
        <pt x="85" y="69" on="0"/>
        <pt x="104" y="84" on="0"/>
        <pt x="121" y="84" on="1"/>
        <pt x="131" y="84" on="0"/>
        <pt x="159" y="77" on="0"/>
        <pt x="191" y="67" on="0"/>
        <pt x="224" y="57" on="0"/>
        <pt x="239" y="54" on="1"/>
        <pt x="281" y="45" on="0"/>
        <pt x="385" y="29" on="0"/>
      </contour>
    </TTGlyph>
    <TTGlyph name="four" xMin="100" yMin="0" xMax="1044" yMax="1114">
      <contour>
        <pt x="1044" y="381" on="1"/>
        <pt x="1044" y="359" on="0"/>
        <pt x="996" y="347" on="0"/>
        <pt x="962" y="347" on="1"/>
        <pt x="947" y="347" on="0"/>
        <pt x="914" y="348" on="0"/>
        <pt x="898" y="348" on="1"/>
        <pt x="753" y="348" on="1"/>
        <pt x="753" y="70" on="1"/>
        <pt x="753" y="57" on="0"/>
        <pt x="752" y="32" on="0"/>
        <pt x="745" y="12" on="0"/>
        <pt x="731" y="0" on="0"/>
        <pt x="718" y="0" on="1"/>
        <pt x="703" y="0" on="0"/>
        <pt x="688" y="12" on="0"/>
        <pt x="682" y="32" on="0"/>
        <pt x="681" y="57" on="0"/>
        <pt x="681" y="70" on="1"/>
        <pt x="681" y="348" on="1"/>
        <pt x="173" y="348" on="1"/>
        <pt x="146" y="348" on="0"/>
        <pt x="116" y="360" on="0"/>
        <pt x="102" y="380" on="0"/>
        <pt x="100" y="405" on="0"/>
        <pt x="100" y="418" on="1"/>
        <pt x="100" y="1047" on="1"/>
        <pt x="100" y="1059" on="0"/>
        <pt x="101" y="1083" on="0"/>
        <pt x="109" y="1102" on="0"/>
        <pt x="124" y="1114" on="0"/>
        <pt x="139" y="1114" on="1"/>
        <pt x="152" y="1114" on="0"/>
        <pt x="166" y="1101" on="0"/>
        <pt x="172" y="1082" on="0"/>
        <pt x="173" y="1058" on="0"/>
        <pt x="173" y="1047" on="1"/>
        <pt x="173" y="418" on="1"/>
        <pt x="681" y="418" on="1"/>
        <pt x="681" y="1044" on="1"/>
        <pt x="681" y="1057" on="0"/>
        <pt x="682" y="1082" on="0"/>
        <pt x="688" y="1102" on="0"/>
        <pt x="703" y="1114" on="0"/>
        <pt x="718" y="1114" on="1"/>
        <pt x="731" y="1114" on="0"/>
        <pt x="745" y="1102" on="0"/>
        <pt x="752" y="1082" on="0"/>
        <pt x="753" y="1057" on="0"/>
        <pt x="753" y="1044" on="1"/>
        <pt x="753" y="418" on="1"/>
        <pt x="972" y="418" on="1"/>
        <pt x="988" y="418" on="0"/>
        <pt x="1015" y="417" on="0"/>
        <pt x="1034" y="411" on="0"/>
        <pt x="1044" y="396" on="0"/>
      </contour>
    </TTGlyph>
    <TTGlyph name="foursuperior" xMin="236" yMin="0" xMax="994" yMax="776">
      <contour>
        <pt x="994" y="321" on="1"/>
        <pt x="994" y="300" on="0"/>
        <pt x="957" y="288" on="0"/>
        <pt x="923" y="288" on="1"/>
        <pt x="753" y="288" on="1"/>
        <pt x="753" y="70" on="1"/>
        <pt x="753" y="57" on="0"/>
        <pt x="752" y="32" on="0"/>
        <pt x="745" y="12" on="0"/>
        <pt x="731" y="0" on="0"/>
        <pt x="718" y="0" on="1"/>
        <pt x="703" y="0" on="0"/>
        <pt x="688" y="12" on="0"/>
        <pt x="682" y="32" on="0"/>
        <pt x="681" y="57" on="0"/>
        <pt x="681" y="70" on="1"/>
        <pt x="681" y="288" on="1"/>
        <pt x="309" y="288" on="1"/>
        <pt x="282" y="288" on="0"/>
        <pt x="252" y="300" on="0"/>
        <pt x="238" y="320" on="0"/>
        <pt x="236" y="345" on="0"/>
        <pt x="236" y="358" on="1"/>
        <pt x="236" y="709" on="1"/>
        <pt x="236" y="721" on="0"/>
        <pt x="237" y="745" on="0"/>
        <pt x="245" y="764" on="0"/>
        <pt x="260" y="776" on="0"/>
        <pt x="275" y="776" on="1"/>
        <pt x="288" y="776" on="0"/>
        <pt x="302" y="763" on="0"/>
        <pt x="308" y="744" on="0"/>
        <pt x="309" y="720" on="0"/>
        <pt x="309" y="709" on="1"/>
        <pt x="309" y="358" on="1"/>
        <pt x="681" y="358" on="1"/>
        <pt x="681" y="706" on="1"/>
        <pt x="681" y="719" on="0"/>
        <pt x="682" y="744" on="0"/>
        <pt x="688" y="764" on="0"/>
        <pt x="703" y="776" on="0"/>
        <pt x="718" y="776" on="1"/>
        <pt x="731" y="776" on="0"/>
        <pt x="745" y="764" on="0"/>
        <pt x="752" y="744" on="0"/>
        <pt x="753" y="719" on="0"/>
        <pt x="753" y="706" on="1"/>
        <pt x="753" y="358" on="1"/>
        <pt x="922" y="358" on="1"/>
        <pt x="955" y="358" on="0"/>
        <pt x="994" y="349" on="0"/>
      </contour>
    </TTGlyph>
    <TTGlyph name="fraction" xMin="-21" yMin="295" xMax="483" yMax="1524">
      <contour>
        <pt x="61" y="352" on="1"/>
        <pt x="50" y="329" on="0"/>
        <pt x="34" y="295" on="0"/>
        <pt x="16" y="295" on="1"/>
        <pt x="2" y="295" on="0"/>
        <pt x="-13" y="304" on="0"/>
        <pt x="-20" y="317" on="0"/>
        <pt x="-21" y="332" on="0"/>
        <pt x="-21" y="337" on="1"/>
        <pt x="-21" y="347" on="0"/>
        <pt x="-14" y="362" on="0"/>
        <pt x="-9" y="373" on="1"/>
        <pt x="401" y="1466" on="1"/>
        <pt x="408" y="1489" on="0"/>
        <pt x="427" y="1524" on="0"/>
        <pt x="450" y="1524" on="1"/>
        <pt x="471" y="1524" on="0"/>
        <pt x="483" y="1502" on="0"/>
        <pt x="483" y="1489" on="1"/>
        <pt x="483" y="1478" on="0"/>
        <pt x="476" y="1457" on="0"/>
        <pt x="473" y="1446" on="1"/>
      </contour>
    </TTGlyph>
    <TTGlyph name="g" xMin="121" yMin="-340" xMax="1080" yMax="786">
      <contour>
        <pt x="647" y="717" on="1"/>
        <pt x="528" y="717" on="0"/>
        <pt x="359" y="682" on="0"/>
        <pt x="251" y="603" on="0"/>
        <pt x="201" y="475" on="0"/>
        <pt x="201" y="383" on="1"/>
        <pt x="201" y="291" on="0"/>
        <pt x="243" y="163" on="0"/>
        <pt x="338" y="84" on="0"/>
        <pt x="493" y="49" on="0"/>
        <pt x="606" y="49" on="1"/>
        <pt x="658" y="49" on="0"/>
        <pt x="763" y="60" on="0"/>
        <pt x="865" y="85" on="0"/>
        <pt x="959" y="123" on="0"/>
        <pt x="1000" y="150" on="1"/>
        <pt x="1000" y="524" on="1"/>
        <pt x="993" y="552" on="0"/>
        <pt x="956" y="619" on="0"/>
        <pt x="877" y="678" on="0"/>
        <pt x="747" y="717" on="0"/>
      </contour>
      <contour>
        <pt x="621" y="-270" on="1"/>
        <pt x="703" y="-270" on="0"/>
        <pt x="842" y="-241" on="0"/>
        <pt x="943" y="-181" on="0"/>
        <pt x="1000" y="-88" on="0"/>
        <pt x="1000" y="-23" on="1"/>
        <pt x="1000" y="96" on="1"/>
        <pt x="957" y="66" on="0"/>
        <pt x="859" y="25" on="0"/>
        <pt x="756" y="1" on="0"/>
        <pt x="651" y="-10" on="0"/>
        <pt x="602" y="-10" on="1"/>
        <pt x="488" y="-10" on="0"/>
        <pt x="310" y="25" on="0"/>
        <pt x="186" y="113" on="0"/>
        <pt x="121" y="266" on="0"/>
        <pt x="121" y="383" on="1"/>
        <pt x="121" y="500" on="0"/>
        <pt x="195" y="655" on="0"/>
        <pt x="331" y="748" on="0"/>
        <pt x="522" y="786" on="0"/>
        <pt x="639" y="786" on="1"/>
        <pt x="742" y="786" on="0"/>
        <pt x="875" y="747" on="0"/>
        <pt x="956" y="690" on="0"/>
        <pt x="993" y="622" on="0"/>
        <pt x="1000" y="594" on="1"/>
        <pt x="1000" y="612" on="0"/>
        <pt x="997" y="659" on="0"/>
        <pt x="997" y="682" on="1"/>
        <pt x="997" y="716" on="0"/>
        <pt x="1010" y="766" on="0"/>
        <pt x="1032" y="766" on="1"/>
        <pt x="1047" y="766" on="0"/>
        <pt x="1065" y="753" on="0"/>
        <pt x="1076" y="733" on="0"/>
        <pt x="1080" y="708" on="0"/>
        <pt x="1080" y="696" on="1"/>
        <pt x="1080" y="-23" on="1"/>
        <pt x="1080" y="-181" on="0"/>
        <pt x="841" y="-340" on="0"/>
        <pt x="621" y="-340" on="1"/>
        <pt x="549" y="-340" on="0"/>
        <pt x="436" y="-326" on="0"/>
        <pt x="349" y="-303" on="0"/>
        <pt x="281" y="-273" on="0"/>
        <pt x="254" y="-258" on="1"/>
        <pt x="243" y="-255" on="0"/>
        <pt x="213" y="-230" on="0"/>
        <pt x="213" y="-213" on="1"/>
        <pt x="213" y="-194" on="0"/>
        <pt x="240" y="-178" on="0"/>
        <pt x="246" y="-178" on="1"/>
        <pt x="255" y="-178" on="0"/>
        <pt x="279" y="-191" on="0"/>
        <pt x="310" y="-208" on="0"/>
        <pt x="348" y="-227" on="0"/>
        <pt x="371" y="-233" on="1"/>
        <pt x="413" y="-247" on="0"/>
        <pt x="533" y="-270" on="0"/>
      </contour>
    </TTGlyph>
    <TTGlyph name="gcedilla" xMin="45" yMin="-340" xMax="1004" yMax="1137">
      <component glyphName="g" x="-76" y="0" flags="0x4"/>
      <component glyphName="comma" x="717" y="1014" scale="-0.999938964844" flags="0x4"/>
    </TTGlyph>
    <TTGlyph name="germandbls" xMin="159" yMin="-73" xMax="1170" yMax="1135">
      <contour>
        <pt x="1170" y="288" on="1"/>
        <pt x="1170" y="239" on="0"/>
        <pt x="1153" y="158" on="0"/>
        <pt x="1108" y="94" on="0"/>
        <pt x="1026" y="47" on="0"/>
        <pt x="896" y="15" on="0"/>
        <pt x="711" y="0" on="0"/>
        <pt x="585" y="0" on="1"/>
        <pt x="562" y="0" on="0"/>
        <pt x="521" y="12" on="0"/>
        <pt x="521" y="32" on="1"/>
        <pt x="521" y="56" on="0"/>
        <pt x="560" y="66" on="0"/>
        <pt x="589" y="66" on="1"/>
        <pt x="737" y="66" on="0"/>
        <pt x="933" y="84" on="0"/>
        <pt x="1050" y="131" on="0"/>
        <pt x="1098" y="214" on="0"/>
        <pt x="1098" y="280" on="1"/>
        <pt x="1098" y="336" on="0"/>
        <pt x="1059" y="415" on="0"/>
        <pt x="992" y="468" on="0"/>
        <pt x="905" y="499" on="0"/>
        <pt x="807" y="514" on="0"/>
        <pt x="705" y="518" on="0"/>
        <pt x="658" y="518" on="1"/>
        <pt x="591" y="518" on="1"/>
        <pt x="558" y="518" on="0"/>
        <pt x="510" y="522" on="0"/>
        <pt x="479" y="537" on="0"/>
        <pt x="464" y="565" on="0"/>
        <pt x="464" y="589" on="1"/>
        <pt x="464" y="616" on="0"/>
        <pt x="503" y="646" on="0"/>
        <pt x="546" y="655" on="1"/>
        <pt x="584" y="663" on="0"/>
        <pt x="674" y="683" on="0"/>
        <pt x="764" y="709" on="0"/>
        <pt x="848" y="744" on="0"/>
        <pt x="912" y="790" on="0"/>
        <pt x="951" y="848" on="0"/>
        <pt x="951" y="885" on="1"/>
        <pt x="951" y="937" on="0"/>
        <pt x="908" y="1005" on="0"/>
        <pt x="825" y="1046" on="0"/>
        <pt x="703" y="1063" on="0"/>
        <pt x="625" y="1063" on="1"/>
        <pt x="526" y="1063" on="0"/>
        <pt x="377" y="1036" on="0"/>
        <pt x="279" y="966" on="0"/>
        <pt x="230" y="846" on="0"/>
        <pt x="230" y="752" on="1"/>
        <pt x="230" y="-4" on="1"/>
        <pt x="230" y="-33" on="0"/>
        <pt x="222" y="-73" on="0"/>
        <pt x="198" y="-73" on="1"/>
        <pt x="183" y="-73" on="0"/>
        <pt x="168" y="-62" on="0"/>
        <pt x="160" y="-44" on="0"/>
        <pt x="159" y="-19" on="0"/>
        <pt x="159" y="-4" on="1"/>
        <pt x="159" y="752" on="1"/>
        <pt x="159" y="856" on="0"/>
        <pt x="213" y="1002" on="0"/>
        <pt x="326" y="1093" on="0"/>
        <pt x="502" y="1135" on="0"/>
        <pt x="624" y="1135" on="1"/>
        <pt x="720" y="1135" on="0"/>
        <pt x="870" y="1111" on="0"/>
        <pt x="972" y="1052" on="0"/>
        <pt x="1025" y="953" on="0"/>
        <pt x="1025" y="878" on="1"/>
        <pt x="1025" y="831" on="0"/>
        <pt x="983" y="758" on="0"/>
        <pt x="916" y="702" on="0"/>
        <pt x="829" y="662" on="0"/>
        <pt x="738" y="634" on="0"/>
        <pt x="651" y="615" on="0"/>
        <pt x="584" y="601" on="0"/>
        <pt x="542" y="591" on="0"/>
        <pt x="542" y="586" on="1"/>
        <pt x="542" y="582" on="0"/>
        <pt x="569" y="580" on="0"/>
        <pt x="591" y="580" on="1"/>
        <pt x="638" y="580" on="1"/>
        <pt x="694" y="580" on="0"/>
        <pt x="817" y="576" on="0"/>
        <pt x="935" y="558" on="0"/>
        <pt x="1042" y="521" on="0"/>
        <pt x="1122" y="457" on="0"/>
        <pt x="1170" y="359" on="0"/>
      </contour>
    </TTGlyph>
    <TTGlyph name="grave" xMin="12" yMin="969" xMax="361" yMax="1300">
      <contour>
        <pt x="353" y="1013" on="1"/>
        <pt x="361" y="1005" on="0"/>
        <pt x="361" y="995" on="1"/>
        <pt x="361" y="984" on="0"/>
        <pt x="345" y="969" on="0"/>
        <pt x="334" y="969" on="1"/>
        <pt x="327" y="969" on="0"/>
        <pt x="319" y="974" on="1"/>
        <pt x="27" y="1211" on="1"/>
        <pt x="12" y="1223" on="0"/>
        <pt x="12" y="1239" on="1"/>
        <pt x="12" y="1250" on="0"/>
        <pt x="24" y="1272" on="0"/>
        <pt x="42" y="1289" on="0"/>
        <pt x="65" y="1300" on="0"/>
        <pt x="76" y="1300" on="1"/>
        <pt x="90" y="1300" on="0"/>
        <pt x="101" y="1289" on="1"/>
      </contour>
    </TTGlyph>
    <TTGlyph name="greater" xMin="99" yMin="44" xMax="708" yMax="627">
      <component glyphName="less" x="773" y="0" scalex="-0.999877929688" scaley="1.0" flags="0x0"/>
    </TTGlyph>
    <TTGlyph name="guillemotleft" xMin="40" yMin="37" xMax="563" yMax="631">
      <component glyphName="guillemotright" x="645" y="0" scalex="-0.999877929688" scaley="1.0" flags="0x0"/>
    </TTGlyph>
    <TTGlyph name="guillemotright" xMin="82" yMin="37" xMax="605" yMax="631">
      <contour>
        <pt x="389" y="367" on="1"/>
        <pt x="398" y="358" on="0"/>
        <pt x="405" y="341" on="0"/>
        <pt x="406" y="335" on="1"/>
        <pt x="406" y="318" on="0"/>
        <pt x="389" y="301" on="1"/>
        <pt x="148" y="49" on="1"/>
        <pt x="136" y="37" on="0"/>
        <pt x="121" y="37" on="1"/>
        <pt x="106" y="37" on="0"/>
        <pt x="82" y="58" on="0"/>
        <pt x="82" y="72" on="1"/>
        <pt x="82" y="85" on="0"/>
        <pt x="94" y="97" on="1"/>
        <pt x="332" y="334" on="1"/>
        <pt x="94" y="571" on="1"/>
        <pt x="83" y="582" on="0"/>
        <pt x="83" y="596" on="1"/>
        <pt x="83" y="610" on="0"/>
        <pt x="106" y="631" on="0"/>
        <pt x="121" y="631" on="1"/>
        <pt x="136" y="631" on="0"/>
        <pt x="148" y="619" on="1"/>
      </contour>
      <contour>
        <pt x="588" y="367" on="1"/>
        <pt x="597" y="358" on="0"/>
        <pt x="604" y="341" on="0"/>
        <pt x="605" y="335" on="1"/>
        <pt x="605" y="318" on="0"/>
        <pt x="588" y="301" on="1"/>
        <pt x="347" y="49" on="1"/>
        <pt x="335" y="37" on="0"/>
        <pt x="320" y="37" on="1"/>
        <pt x="305" y="37" on="0"/>
        <pt x="281" y="58" on="0"/>
        <pt x="281" y="72" on="1"/>
        <pt x="281" y="85" on="0"/>
        <pt x="293" y="97" on="1"/>
        <pt x="531" y="334" on="1"/>
        <pt x="293" y="571" on="1"/>
        <pt x="282" y="582" on="0"/>
        <pt x="282" y="596" on="1"/>
        <pt x="282" y="610" on="0"/>
        <pt x="305" y="631" on="0"/>
        <pt x="320" y="631" on="1"/>
        <pt x="335" y="631" on="0"/>
        <pt x="347" y="619" on="1"/>
      </contour>
    </TTGlyph>
    <TTGlyph name="guilsinglleft" xMin="42" yMin="37" xMax="366" yMax="631">
      <contour>
        <pt x="300" y="619" on="1"/>
        <pt x="312" y="631" on="0"/>
        <pt x="327" y="631" on="1"/>
        <pt x="342" y="631" on="0"/>
        <pt x="365" y="610" on="0"/>
        <pt x="365" y="596" on="1"/>
        <pt x="365" y="582" on="0"/>
        <pt x="354" y="571" on="1"/>
        <pt x="116" y="334" on="1"/>
        <pt x="354" y="97" on="1"/>
        <pt x="366" y="85" on="0"/>
        <pt x="366" y="72" on="1"/>
        <pt x="366" y="58" on="0"/>
        <pt x="342" y="37" on="0"/>
        <pt x="327" y="37" on="1"/>
        <pt x="312" y="37" on="0"/>
        <pt x="300" y="49" on="1"/>
        <pt x="59" y="301" on="1"/>
        <pt x="42" y="318" on="0"/>
        <pt x="42" y="335" on="1"/>
        <pt x="42" y="341" on="0"/>
        <pt x="50" y="358" on="0"/>
        <pt x="59" y="367" on="1"/>
      </contour>
    </TTGlyph>
    <TTGlyph name="guilsinglright" xMin="82" yMin="37" xMax="406" yMax="631">
      <contour>
        <pt x="389" y="367" on="1"/>
        <pt x="398" y="358" on="0"/>
        <pt x="405" y="341" on="0"/>
        <pt x="406" y="335" on="1"/>
        <pt x="406" y="318" on="0"/>
        <pt x="389" y="301" on="1"/>
        <pt x="148" y="49" on="1"/>
        <pt x="136" y="37" on="0"/>
        <pt x="121" y="37" on="1"/>
        <pt x="106" y="37" on="0"/>
        <pt x="82" y="58" on="0"/>
        <pt x="82" y="72" on="1"/>
        <pt x="82" y="85" on="0"/>
        <pt x="94" y="97" on="1"/>
        <pt x="332" y="334" on="1"/>
        <pt x="94" y="571" on="1"/>
        <pt x="83" y="582" on="0"/>
        <pt x="83" y="596" on="1"/>
        <pt x="83" y="610" on="0"/>
        <pt x="106" y="631" on="0"/>
        <pt x="121" y="631" on="1"/>
        <pt x="136" y="631" on="0"/>
        <pt x="148" y="619" on="1"/>
      </contour>
    </TTGlyph>
    <TTGlyph name="h" xMin="159" yMin="0" xMax="1051" yMax="1114">
      <contour>
        <pt x="1051" y="72" on="1"/>
        <pt x="1051" y="59" on="0"/>
        <pt x="1048" y="33" on="0"/>
        <pt x="1040" y="13" on="0"/>
        <pt x="1025" y="0" on="0"/>
        <pt x="1013" y="0" on="1"/>
        <pt x="998" y="0" on="0"/>
        <pt x="982" y="13" on="0"/>
        <pt x="973" y="33" on="0"/>
        <pt x="971" y="59" on="0"/>
        <pt x="971" y="72" on="1"/>
        <pt x="971" y="418" on="1"/>
        <pt x="971" y="496" on="0"/>
        <pt x="947" y="612" on="0"/>
        <pt x="880" y="689" on="0"/>
        <pt x="760" y="727" on="0"/>
        <pt x="664" y="727" on="1"/>
        <pt x="606" y="727" on="0"/>
        <pt x="472" y="708" on="0"/>
        <pt x="351" y="661" on="0"/>
        <pt x="257" y="583" on="0"/>
        <pt x="239" y="524" on="1"/>
        <pt x="239" y="72" on="1"/>
        <pt x="239" y="59" on="0"/>
        <pt x="236" y="33" on="0"/>
        <pt x="228" y="13" on="0"/>
        <pt x="213" y="0" on="0"/>
        <pt x="201" y="0" on="1"/>
        <pt x="187" y="0" on="0"/>
        <pt x="170" y="13" on="0"/>
        <pt x="161" y="33" on="0"/>
        <pt x="159" y="59" on="0"/>
        <pt x="159" y="72" on="1"/>
        <pt x="159" y="1044" on="1"/>
        <pt x="159" y="1056" on="0"/>
        <pt x="161" y="1081" on="0"/>
        <pt x="170" y="1101" on="0"/>
        <pt x="187" y="1114" on="0"/>
        <pt x="201" y="1114" on="1"/>
        <pt x="213" y="1114" on="0"/>
        <pt x="228" y="1102" on="0"/>
        <pt x="236" y="1082" on="0"/>
        <pt x="239" y="1057" on="0"/>
        <pt x="239" y="1044" on="1"/>
        <pt x="239" y="594" on="1"/>
        <pt x="250" y="634" on="0"/>
        <pt x="303" y="694" on="0"/>
        <pt x="374" y="737" on="0"/>
        <pt x="460" y="764" on="0"/>
        <pt x="547" y="780" on="0"/>
        <pt x="630" y="786" on="0"/>
        <pt x="664" y="786" on="1"/>
        <pt x="772" y="786" on="0"/>
        <pt x="920" y="749" on="0"/>
        <pt x="1011" y="663" on="0"/>
        <pt x="1051" y="522" on="0"/>
        <pt x="1051" y="418" on="1"/>
      </contour>
    </TTGlyph>
    <TTGlyph name="hbar" xMin="0" yMin="0" xMax="993" yMax="1114">
      <contour>
        <pt x="993" y="72" on="1"/>
        <pt x="993" y="59" on="0"/>
        <pt x="990" y="33" on="0"/>
        <pt x="982" y="13" on="0"/>
        <pt x="967" y="0" on="0"/>
        <pt x="955" y="0" on="1"/>
        <pt x="940" y="0" on="0"/>
        <pt x="924" y="13" on="0"/>
        <pt x="915" y="33" on="0"/>
        <pt x="913" y="59" on="0"/>
        <pt x="913" y="72" on="1"/>
        <pt x="913" y="418" on="1"/>
        <pt x="913" y="496" on="0"/>
        <pt x="889" y="612" on="0"/>
        <pt x="822" y="689" on="0"/>
        <pt x="702" y="727" on="0"/>
        <pt x="606" y="727" on="1"/>
        <pt x="548" y="727" on="0"/>
        <pt x="414" y="708" on="0"/>
        <pt x="293" y="661" on="0"/>
        <pt x="199" y="583" on="0"/>
        <pt x="181" y="524" on="1"/>
        <pt x="181" y="72" on="1"/>
        <pt x="181" y="59" on="0"/>
        <pt x="178" y="33" on="0"/>
        <pt x="170" y="13" on="0"/>
        <pt x="155" y="0" on="0"/>
        <pt x="143" y="0" on="1"/>
        <pt x="129" y="0" on="0"/>
        <pt x="112" y="13" on="0"/>
        <pt x="103" y="33" on="0"/>
        <pt x="101" y="59" on="0"/>
        <pt x="101" y="72" on="1"/>
        <pt x="101" y="912" on="1"/>
        <pt x="28" y="912" on="1"/>
        <pt x="16" y="912" on="0"/>
        <pt x="0" y="930" on="0"/>
        <pt x="0" y="942" on="1"/>
        <pt x="0" y="954" on="0"/>
        <pt x="16" y="972" on="0"/>
        <pt x="28" y="972" on="1"/>
        <pt x="101" y="972" on="1"/>
        <pt x="101" y="1044" on="1"/>
        <pt x="101" y="1056" on="0"/>
        <pt x="103" y="1081" on="0"/>
        <pt x="112" y="1101" on="0"/>
        <pt x="129" y="1114" on="0"/>
        <pt x="143" y="1114" on="1"/>
        <pt x="155" y="1114" on="0"/>
        <pt x="170" y="1102" on="0"/>
        <pt x="178" y="1082" on="0"/>
        <pt x="181" y="1057" on="0"/>
        <pt x="181" y="1044" on="1"/>
        <pt x="181" y="972" on="1"/>
        <pt x="435" y="972" on="1"/>
        <pt x="447" y="972" on="0"/>
        <pt x="463" y="954" on="0"/>
        <pt x="463" y="942" on="1"/>
        <pt x="463" y="930" on="0"/>
        <pt x="447" y="912" on="0"/>
        <pt x="435" y="912" on="1"/>
        <pt x="181" y="912" on="1"/>
        <pt x="181" y="594" on="1"/>
        <pt x="192" y="634" on="0"/>
        <pt x="245" y="694" on="0"/>
        <pt x="316" y="737" on="0"/>
        <pt x="402" y="764" on="0"/>
        <pt x="489" y="780" on="0"/>
        <pt x="572" y="786" on="0"/>
        <pt x="606" y="786" on="1"/>
        <pt x="714" y="786" on="0"/>
        <pt x="862" y="749" on="0"/>
        <pt x="953" y="663" on="0"/>
        <pt x="993" y="522" on="0"/>
        <pt x="993" y="418" on="1"/>
      </contour>
    </TTGlyph>
    <TTGlyph name="hungarumlaut" xMin="263" yMin="961" xMax="840" yMax="1292">
      <contour>
        <pt x="523" y="1281" on="1"/>
        <pt x="534" y="1292" on="0"/>
        <pt x="548" y="1292" on="1"/>
        <pt x="559" y="1292" on="0"/>
        <pt x="582" y="1281" on="0"/>
        <pt x="600" y="1264" on="0"/>
        <pt x="612" y="1242" on="0"/>
        <pt x="612" y="1231" on="1"/>
        <pt x="612" y="1215" on="0"/>
        <pt x="597" y="1203" on="1"/>
        <pt x="305" y="966" on="1"/>
        <pt x="297" y="961" on="0"/>
        <pt x="290" y="961" on="1"/>
        <pt x="279" y="961" on="0"/>
        <pt x="263" y="976" on="0"/>
        <pt x="263" y="987" on="1"/>
        <pt x="263" y="997" on="0"/>
        <pt x="271" y="1005" on="1"/>
      </contour>
      <contour>
        <pt x="751" y="1281" on="1"/>
        <pt x="762" y="1292" on="0"/>
        <pt x="776" y="1292" on="1"/>
        <pt x="787" y="1292" on="0"/>
        <pt x="810" y="1281" on="0"/>
        <pt x="828" y="1264" on="0"/>
        <pt x="840" y="1242" on="0"/>
        <pt x="840" y="1231" on="1"/>
        <pt x="840" y="1215" on="0"/>
        <pt x="825" y="1203" on="1"/>
        <pt x="533" y="966" on="1"/>
        <pt x="525" y="961" on="0"/>
        <pt x="518" y="961" on="1"/>
        <pt x="507" y="961" on="0"/>
        <pt x="491" y="976" on="0"/>
        <pt x="491" y="987" on="1"/>
        <pt x="491" y="997" on="0"/>
        <pt x="499" y="1005" on="1"/>
      </contour>
    </TTGlyph>
    <TTGlyph name="hyphen" xMin="95" yMin="444" xMax="508" yMax="518">
      <contour>
        <pt x="481" y="518" on="1"/>
        <pt x="495" y="518" on="0"/>
        <pt x="508" y="493" on="0"/>
        <pt x="508" y="480" on="1"/>
        <pt x="508" y="468" on="0"/>
        <pt x="495" y="444" on="0"/>
        <pt x="481" y="444" on="1"/>
        <pt x="122" y="444" on="1"/>
        <pt x="108" y="444" on="0"/>
        <pt x="95" y="468" on="0"/>
        <pt x="95" y="480" on="1"/>
        <pt x="95" y="493" on="0"/>
        <pt x="108" y="518" on="0"/>
        <pt x="122" y="518" on="1"/>
      </contour>
    </TTGlyph>
    <TTGlyph name="i" xMin="159" yMin="0" xMax="267" yMax="1046">
      <contour>
        <pt x="252" y="63" on="1"/>
        <pt x="252" y="50" on="0"/>
        <pt x="250" y="27" on="0"/>
        <pt x="243" y="10" on="0"/>
        <pt x="227" y="0" on="0"/>
        <pt x="212" y="0" on="1"/>
        <pt x="184" y="0" on="0"/>
        <pt x="172" y="34" on="0"/>
        <pt x="172" y="63" on="1"/>
        <pt x="172" y="705" on="1"/>
        <pt x="172" y="730" on="0"/>
        <pt x="186" y="766" on="0"/>
        <pt x="214" y="766" on="1"/>
        <pt x="239" y="766" on="0"/>
        <pt x="252" y="730" on="0"/>
        <pt x="252" y="707" on="1"/>
      </contour>
      <contour>
        <pt x="159" y="992" on="1"/>
        <pt x="159" y="1015" on="0"/>
        <pt x="189" y="1046" on="0"/>
        <pt x="212" y="1046" on="1"/>
        <pt x="235" y="1046" on="0"/>
        <pt x="267" y="1015" on="0"/>
        <pt x="267" y="992" on="1"/>
        <pt x="267" y="969" on="0"/>
        <pt x="235" y="941" on="0"/>
        <pt x="212" y="941" on="1"/>
        <pt x="189" y="941" on="0"/>
        <pt x="159" y="969" on="0"/>
      </contour>
    </TTGlyph>
    <TTGlyph name="iacute" xMin="-17" yMin="0" xMax="332" yMax="1288">
      <component glyphName="dotlessi" x="0" y="0" flags="0x204"/>
      <component glyphName="acute" x="-32" y="0" flags="0x4"/>
    </TTGlyph>
    <TTGlyph name="icircumflex" xMin="-49" yMin="0" xMax="363" yMax="1165">
      <component glyphName="dotlessi" x="0" y="0" flags="0x204"/>
      <component glyphName="circumflex" x="-84" y="0" flags="0x4"/>
    </TTGlyph>
    <TTGlyph name="idieresis" xMin="-131" yMin="0" xMax="426" yMax="1064">
      <component glyphName="dotlessi" x="0" y="0" flags="0x204"/>
      <component glyphName="dieresis" x="-218" y="9" flags="0x4"/>
    </TTGlyph>
    <TTGlyph name="igrave" xMin="-17" yMin="0" xMax="332" yMax="1300">
      <component glyphName="dotlessi" x="0" y="0" flags="0x204"/>
      <component glyphName="grave" x="-29" y="0" flags="0x4"/>
    </TTGlyph>
    <TTGlyph name="ij" xMin="159" yMin="-266" xMax="799" yMax="1046">
      <component glyphName="i" x="0" y="0" flags="0x4"/>
      <component glyphName="j" x="426" y="0" flags="0x4"/>
    </TTGlyph>
    <TTGlyph name="imacron" xMin="-45" yMin="0" xMax="361" yMax="981">
      <component glyphName="dotlessi" x="0" y="0" flags="0x204"/>
      <component glyphName="macron" x="-180" y="0" flags="0x4"/>
    </TTGlyph>
    <TTGlyph name="iogonek" xMin="103" yMin="-279" xMax="324" yMax="1046">
      <component glyphName="i" x="0" y="0" flags="0x204"/>
      <component glyphName="ogonek" x="57" y="0" flags="0x4"/>
    </TTGlyph>
    <TTGlyph name="itilde" xMin="-83" yMin="0" xMax="398" yMax="1057">
      <component glyphName="dotlessi" x="0" y="0" flags="0x204"/>
      <component glyphName="tilde" x="-309" y="0" flags="0x4"/>
    </TTGlyph>
    <TTGlyph name="j" xMin="0" yMin="-266" xMax="373" yMax="1046">
      <contour>
        <pt x="359" y="94" on="1"/>
        <pt x="359" y="59" on="0"/>
        <pt x="356" y="-21" on="0"/>
        <pt x="339" y="-101" on="0"/>
        <pt x="303" y="-175" on="0"/>
        <pt x="238" y="-232" on="0"/>
        <pt x="138" y="-266" on="0"/>
        <pt x="66" y="-266" on="1"/>
        <pt x="53" y="-266" on="0"/>
        <pt x="29" y="-265" on="0"/>
        <pt x="11" y="-258" on="0"/>
        <pt x="0" y="-244" on="0"/>
        <pt x="0" y="-231" on="1"/>
        <pt x="0" y="-218" on="0"/>
        <pt x="11" y="-204" on="0"/>
        <pt x="29" y="-198" on="0"/>
        <pt x="53" y="-197" on="0"/>
        <pt x="66" y="-197" on="1"/>
        <pt x="149" y="-197" on="0"/>
        <pt x="236" y="-145" on="0"/>
        <pt x="275" y="-62" on="0"/>
        <pt x="279" y="42" on="0"/>
        <pt x="279" y="94" on="1"/>
        <pt x="279" y="714" on="1"/>
        <pt x="279" y="736" on="0"/>
        <pt x="294" y="766" on="0"/>
        <pt x="320" y="766" on="1"/>
        <pt x="349" y="766" on="0"/>
        <pt x="359" y="736" on="0"/>
        <pt x="359" y="714" on="1"/>
      </contour>
      <contour>
        <pt x="265" y="992" on="1"/>
        <pt x="265" y="1015" on="0"/>
        <pt x="295" y="1046" on="0"/>
        <pt x="318" y="1046" on="1"/>
        <pt x="341" y="1046" on="0"/>
        <pt x="373" y="1015" on="0"/>
        <pt x="373" y="992" on="1"/>
        <pt x="373" y="969" on="0"/>
        <pt x="341" y="941" on="0"/>
        <pt x="318" y="941" on="1"/>
        <pt x="295" y="941" on="0"/>
        <pt x="265" y="969" on="0"/>
      </contour>
    </TTGlyph>
    <TTGlyph name="jcircumflex" xMin="0" yMin="-266" xMax="526" yMax="1165">
      <component glyphName="dotlessj" x="0" y="0" flags="0x204"/>
      <component glyphName="circumflex" x="79" y="0" flags="0x4"/>
    </TTGlyph>
    <TTGlyph name="k" xMin="160" yMin="-1" xMax="917" yMax="1110">
      <contour>
        <pt x="904" y="59" on="1"/>
        <pt x="911" y="52" on="0"/>
        <pt x="915" y="38" on="0"/>
        <pt x="917" y="30" on="1"/>
        <pt x="917" y="16" on="0"/>
        <pt x="898" y="0" on="0"/>
        <pt x="882" y="0" on="1"/>
        <pt x="874" y="-1" on="0"/>
        <pt x="859" y="8" on="0"/>
        <pt x="851" y="16" on="1"/>
        <pt x="392" y="430" on="1"/>
        <pt x="240" y="345" on="1"/>
        <pt x="240" y="44" on="1"/>
        <pt x="240" y="21" on="0"/>
        <pt x="214" y="0" on="0"/>
        <pt x="200" y="0" on="1"/>
        <pt x="187" y="0" on="0"/>
        <pt x="160" y="21" on="0"/>
        <pt x="160" y="44" on="1"/>
        <pt x="160" y="1070" on="1"/>
        <pt x="160" y="1090" on="0"/>
        <pt x="189" y="1110" on="0"/>
        <pt x="202" y="1110" on="1"/>
        <pt x="216" y="1110" on="0"/>
        <pt x="240" y="1090" on="0"/>
        <pt x="240" y="1070" on="1"/>
        <pt x="240" y="410" on="1"/>
        <pt x="866" y="774" on="1"/>
        <pt x="872" y="777" on="0"/>
        <pt x="879" y="777" on="1"/>
        <pt x="892" y="777" on="0"/>
        <pt x="909" y="757" on="0"/>
        <pt x="909" y="746" on="1"/>
        <pt x="909" y="733" on="0"/>
        <pt x="892" y="722" on="1"/>
        <pt x="453" y="461" on="1"/>
      </contour>
    </TTGlyph>
    <TTGlyph name="kcommaaccent" xMin="160" yMin="-323" xMax="917" yMax="1110">
      <component glyphName="k" x="0" y="0" flags="0x204"/>
      <component glyphName="comma" x="398" y="-199" flags="0x4"/>
    </TTGlyph>
    <TTGlyph name="kgreenlandic" xMin="100" yMin="0" xMax="888" yMax="777">
      <contour>
        <pt x="872" y="61" on="1"/>
        <pt x="885" y="48" on="0"/>
        <pt x="885" y="32" on="1"/>
        <pt x="885" y="19" on="0"/>
        <pt x="867" y="2" on="0"/>
        <pt x="853" y="2" on="1"/>
        <pt x="834" y="2" on="0"/>
        <pt x="819" y="18" on="1"/>
        <pt x="403" y="444" on="1"/>
        <pt x="180" y="318" on="1"/>
        <pt x="180" y="44" on="1"/>
        <pt x="180" y="21" on="0"/>
        <pt x="154" y="0" on="0"/>
        <pt x="140" y="0" on="1"/>
        <pt x="127" y="0" on="0"/>
        <pt x="100" y="21" on="0"/>
        <pt x="100" y="44" on="1"/>
        <pt x="100" y="737" on="1"/>
        <pt x="100" y="757" on="0"/>
        <pt x="129" y="777" on="0"/>
        <pt x="142" y="777" on="1"/>
        <pt x="156" y="777" on="0"/>
        <pt x="180" y="757" on="0"/>
        <pt x="180" y="737" on="1"/>
        <pt x="180" y="385" on="1"/>
        <pt x="846" y="772" on="1"/>
        <pt x="852" y="775" on="0"/>
        <pt x="859" y="775" on="1"/>
        <pt x="872" y="775" on="0"/>
        <pt x="888" y="755" on="0"/>
        <pt x="888" y="743" on="1"/>
        <pt x="888" y="727" on="0"/>
        <pt x="872" y="720" on="1"/>
        <pt x="464" y="473" on="1"/>
      </contour>
    </TTGlyph>
    <TTGlyph name="l" xMin="160" yMin="0" xMax="240" yMax="1114">
      <contour>
        <pt x="240" y="70" on="1"/>
        <pt x="240" y="41" on="0"/>
        <pt x="226" y="0" on="0"/>
        <pt x="201" y="0" on="1"/>
        <pt x="186" y="0" on="0"/>
        <pt x="170" y="11" on="0"/>
        <pt x="162" y="30" on="0"/>
        <pt x="160" y="54" on="0"/>
        <pt x="160" y="68" on="1"/>
        <pt x="160" y="1042" on="1"/>
        <pt x="160" y="1057" on="0"/>
        <pt x="162" y="1083" on="0"/>
        <pt x="171" y="1102" on="0"/>
        <pt x="188" y="1114" on="0"/>
        <pt x="203" y="1114" on="1"/>
        <pt x="215" y="1114" on="0"/>
        <pt x="230" y="1102" on="0"/>
        <pt x="238" y="1082" on="0"/>
        <pt x="240" y="1057" on="0"/>
        <pt x="240" y="1044" on="1"/>
      </contour>
    </TTGlyph>
    <TTGlyph name="ldot" xMin="160" yMin="0" xMax="580" yMax="1114">
      <component glyphName="l" x="0" y="0" flags="0x4"/>
      <component glyphName="periodcentered#1" x="345" y="0" flags="0x4"/>
    </TTGlyph>
    <TTGlyph name="less" xMin="65" yMin="44" xMax="674" yMax="627">
      <contour>
        <pt x="65" y="335" on="1"/>
        <pt x="65" y="357" on="0"/>
        <pt x="92" y="377" on="0"/>
        <pt x="116" y="388" on="1"/>
        <pt x="620" y="622" on="1"/>
        <pt x="626" y="624" on="0"/>
        <pt x="635" y="627" on="0"/>
        <pt x="640" y="627" on="1"/>
        <pt x="655" y="627" on="0"/>
        <pt x="674" y="605" on="0"/>
        <pt x="674" y="591" on="1"/>
        <pt x="674" y="568" on="0"/>
        <pt x="653" y="559" on="1"/>
        <pt x="166" y="335" on="1"/>
        <pt x="653" y="112" on="1"/>
        <pt x="664" y="107" on="0"/>
        <pt x="674" y="89" on="0"/>
        <pt x="674" y="79" on="1"/>
        <pt x="674" y="66" on="0"/>
        <pt x="655" y="44" on="0"/>
        <pt x="640" y="44" on="1"/>
        <pt x="635" y="44" on="0"/>
        <pt x="620" y="49" on="1"/>
        <pt x="116" y="283" on="1"/>
        <pt x="92" y="294" on="0"/>
        <pt x="65" y="314" on="0"/>
      </contour>
    </TTGlyph>
    <TTGlyph name="logicalnot" xMin="137" yMin="300" xMax="623" yMax="504">
      <contour>
        <pt x="623" y="327" on="1"/>
        <pt x="623" y="313" on="0"/>
        <pt x="609" y="300" on="0"/>
        <pt x="600" y="300" on="1"/>
        <pt x="592" y="300" on="0"/>
        <pt x="578" y="313" on="0"/>
        <pt x="578" y="327" on="1"/>
        <pt x="578" y="482" on="1"/>
        <pt x="623" y="482" on="1"/>
      </contour>
      <contour>
        <pt x="596" y="504" on="1"/>
        <pt x="610" y="504" on="0"/>
        <pt x="623" y="490" on="0"/>
        <pt x="623" y="481" on="1"/>
        <pt x="623" y="473" on="0"/>
        <pt x="610" y="459" on="0"/>
        <pt x="596" y="459" on="1"/>
        <pt x="164" y="459" on="1"/>
        <pt x="150" y="459" on="0"/>
        <pt x="137" y="473" on="0"/>
        <pt x="137" y="481" on="1"/>
        <pt x="137" y="490" on="0"/>
        <pt x="150" y="504" on="0"/>
        <pt x="164" y="504" on="1"/>
      </contour>
    </TTGlyph>
    <TTGlyph name="lslash" xMin="-9" yMin="2" xMax="548" yMax="1114">
      <contour>
        <pt x="360" y="639" on="1"/>
        <pt x="343" y="631" on="0"/>
        <pt x="313" y="619" on="0"/>
        <pt x="296" y="612" on="1"/>
        <pt x="296" y="72" on="1"/>
        <pt x="296" y="57" on="0"/>
        <pt x="295" y="32" on="0"/>
        <pt x="288" y="13" on="0"/>
        <pt x="274" y="2" on="0"/>
        <pt x="261" y="2" on="1"/>
        <pt x="237" y="2" on="0"/>
        <pt x="223" y="36" on="0"/>
        <pt x="223" y="64" on="1"/>
        <pt x="223" y="78" on="0"/>
        <pt x="225" y="112" on="0"/>
        <pt x="225" y="129" on="1"/>
        <pt x="225" y="584" on="1"/>
        <pt x="10" y="489" on="1"/>
        <pt x="-9" y="553" on="1"/>
        <pt x="225" y="657" on="1"/>
        <pt x="225" y="1044" on="1"/>
        <pt x="225" y="1059" on="0"/>
        <pt x="226" y="1085" on="0"/>
        <pt x="232" y="1104" on="0"/>
        <pt x="247" y="1114" on="0"/>
        <pt x="261" y="1114" on="1"/>
        <pt x="274" y="1114" on="0"/>
        <pt x="288" y="1103" on="0"/>
        <pt x="295" y="1084" on="0"/>
        <pt x="296" y="1059" on="0"/>
        <pt x="296" y="1044" on="1"/>
        <pt x="296" y="688" on="1"/>
        <pt x="356" y="713" on="0"/>
        <pt x="468" y="762" on="0"/>
        <pt x="528" y="786" on="1"/>
        <pt x="548" y="723" on="1"/>
        <pt x="500" y="700" on="0"/>
        <pt x="408" y="659" on="0"/>
      </contour>
    </TTGlyph>
    <TTGlyph name="m" xMin="159" yMin="0" xMax="1483" yMax="786">
      <contour>
        <pt x="1403" y="489" on="1"/>
        <pt x="1403" y="558" on="0"/>
        <pt x="1380" y="650" on="0"/>
        <pt x="1333" y="705" on="0"/>
        <pt x="1263" y="727" on="0"/>
        <pt x="1215" y="727" on="1"/>
        <pt x="1087" y="727" on="0"/>
        <pt x="918" y="623" on="0"/>
        <pt x="862" y="532" on="1"/>
        <pt x="862" y="52" on="1"/>
        <pt x="862" y="34" on="0"/>
        <pt x="855" y="14" on="0"/>
        <pt x="843" y="3" on="0"/>
        <pt x="830" y="0" on="0"/>
        <pt x="824" y="0" on="1"/>
        <pt x="817" y="0" on="0"/>
        <pt x="802" y="2" on="0"/>
        <pt x="790" y="12" on="0"/>
        <pt x="782" y="33" on="0"/>
        <pt x="782" y="52" on="1"/>
        <pt x="782" y="532" on="1"/>
        <pt x="782" y="623" on="0"/>
        <pt x="697" y="727" on="0"/>
        <pt x="603" y="727" on="1"/>
        <pt x="532" y="727" on="0"/>
        <pt x="410" y="695" on="0"/>
        <pt x="315" y="641" on="0"/>
        <pt x="251" y="568" on="0"/>
        <pt x="239" y="528" on="1"/>
        <pt x="239" y="52" on="1"/>
        <pt x="239" y="17" on="0"/>
        <pt x="216" y="0" on="0"/>
        <pt x="204" y="0" on="1"/>
        <pt x="197" y="0" on="0"/>
        <pt x="181" y="2" on="0"/>
        <pt x="168" y="12" on="0"/>
        <pt x="159" y="33" on="0"/>
        <pt x="159" y="52" on="1"/>
        <pt x="159" y="717" on="1"/>
        <pt x="159" y="749" on="0"/>
        <pt x="185" y="766" on="0"/>
        <pt x="200" y="766" on="1"/>
        <pt x="217" y="766" on="0"/>
        <pt x="238" y="749" on="0"/>
        <pt x="238" y="717" on="1"/>
        <pt x="238" y="594" on="1"/>
        <pt x="254" y="639" on="0"/>
        <pt x="323" y="711" on="0"/>
        <pt x="418" y="760" on="0"/>
        <pt x="536" y="786" on="0"/>
        <pt x="601" y="786" on="1"/>
        <pt x="677" y="786" on="0"/>
        <pt x="770" y="745" on="0"/>
        <pt x="822" y="686" on="0"/>
        <pt x="843" y="622" on="0"/>
        <pt x="848" y="599" on="1"/>
        <pt x="866" y="630" on="0"/>
        <pt x="927" y="696" on="0"/>
        <pt x="1016" y="751" on="0"/>
        <pt x="1136" y="786" on="0"/>
        <pt x="1213" y="786" on="1"/>
        <pt x="1351" y="786" on="0"/>
        <pt x="1483" y="645" on="0"/>
        <pt x="1483" y="489" on="1"/>
        <pt x="1483" y="52" on="1"/>
        <pt x="1483" y="34" on="0"/>
        <pt x="1475" y="14" on="0"/>
        <pt x="1464" y="3" on="0"/>
        <pt x="1450" y="0" on="0"/>
        <pt x="1444" y="0" on="1"/>
        <pt x="1436" y="0" on="0"/>
        <pt x="1422" y="2" on="0"/>
        <pt x="1410" y="12" on="0"/>
        <pt x="1403" y="33" on="0"/>
        <pt x="1403" y="52" on="1"/>
      </contour>
    </TTGlyph>
    <TTGlyph name="macron" xMin="135" yMin="926" xMax="541" yMax="981">
      <contour>
        <pt x="514" y="981" on="1"/>
        <pt x="528" y="981" on="0"/>
        <pt x="541" y="961" on="0"/>
        <pt x="541" y="952" on="1"/>
        <pt x="541" y="944" on="0"/>
        <pt x="528" y="926" on="0"/>
        <pt x="514" y="926" on="1"/>
        <pt x="162" y="926" on="1"/>
        <pt x="148" y="926" on="0"/>
        <pt x="135" y="944" on="0"/>
        <pt x="135" y="952" on="1"/>
        <pt x="135" y="961" on="0"/>
        <pt x="148" y="981" on="0"/>
        <pt x="162" y="981" on="1"/>
      </contour>
    </TTGlyph>
    <TTGlyph name="mu" xMin="147" yMin="-10" xMax="1019" yMax="766">
      <component glyphName="u" x="0" y="0" flags="0x204"/>
    </TTGlyph>
    <TTGlyph name="multiply" xMin="91" yMin="250" xMax="574" yMax="715">
      <contour>
        <pt x="332" y="434" on="1"/>
        <pt x="209" y="315" on="1"/>
        <pt x="200" y="306" on="0"/>
        <pt x="180" y="285" on="0"/>
        <pt x="157" y="265" on="0"/>
        <pt x="135" y="252" on="0"/>
        <pt x="125" y="252" on="1"/>
        <pt x="112" y="252" on="0"/>
        <pt x="93" y="273" on="0"/>
        <pt x="93" y="283" on="1"/>
        <pt x="93" y="297" on="0"/>
        <pt x="115" y="324" on="0"/>
        <pt x="132" y="338" on="1"/>
        <pt x="283" y="483" on="1"/>
        <pt x="127" y="631" on="1"/>
        <pt x="110" y="645" on="0"/>
        <pt x="91" y="670" on="0"/>
        <pt x="91" y="682" on="1"/>
        <pt x="91" y="694" on="0"/>
        <pt x="114" y="715" on="0"/>
        <pt x="125" y="715" on="1"/>
        <pt x="135" y="715" on="0"/>
        <pt x="157" y="701" on="0"/>
        <pt x="178" y="681" on="0"/>
        <pt x="198" y="659" on="0"/>
        <pt x="207" y="651" on="1"/>
        <pt x="332" y="532" on="1"/>
        <pt x="457" y="651" on="1"/>
        <pt x="466" y="660" on="0"/>
        <pt x="487" y="682" on="0"/>
        <pt x="509" y="701" on="0"/>
        <pt x="530" y="715" on="0"/>
        <pt x="539" y="715" on="1"/>
        <pt x="550" y="715" on="0"/>
        <pt x="574" y="694" on="0"/>
        <pt x="574" y="682" on="1"/>
        <pt x="574" y="671" on="0"/>
        <pt x="553" y="645" on="0"/>
        <pt x="539" y="631" on="1"/>
        <pt x="385" y="483" on="1"/>
        <pt x="537" y="338" on="1"/>
        <pt x="551" y="324" on="0"/>
        <pt x="572" y="297" on="0"/>
        <pt x="572" y="285" on="1"/>
        <pt x="572" y="274" on="0"/>
        <pt x="554" y="250" on="0"/>
        <pt x="541" y="250" on="1"/>
        <pt x="529" y="250" on="0"/>
        <pt x="500" y="273" on="0"/>
        <pt x="486" y="287" on="1"/>
      </contour>
    </TTGlyph>
</ttFont>
